<mxfile host="65bd71144e">
    <diagram name="Page-1" id="xwPf36MFEoy99nyk6V8D">
        <mxGraphModel dx="1696" dy="736" grid="0" gridSize="10" guides="1" tooltips="1" connect="1" arrows="1" fold="1" page="1" pageScale="1" pageWidth="850" pageHeight="1100" math="0" shadow="0">
            <root>
                <mxCell id="0"/>
                <mxCell id="1" parent="0"/>
                <mxCell id="LuvTsgrXkjyb_PGmXndt-128" value="" style="rounded=1;whiteSpace=wrap;html=1;" parent="1" vertex="1">
                    <mxGeometry x="70" y="697" width="1020" height="360" as="geometry"/>
                </mxCell>
                <mxCell id="LuvTsgrXkjyb_PGmXndt-134" value="" style="rounded=1;whiteSpace=wrap;html=1;dashed=1;strokeWidth=2;" parent="1" vertex="1">
                    <mxGeometry x="400" y="717" width="672.5" height="320" as="geometry"/>
                </mxCell>
                <mxCell id="LuvTsgrXkjyb_PGmXndt-127" value="" style="rounded=1;whiteSpace=wrap;html=1;" parent="1" vertex="1">
                    <mxGeometry x="70" y="60" width="940" height="400" as="geometry"/>
                </mxCell>
                <mxCell id="LuvTsgrXkjyb_PGmXndt-131" value="" style="rounded=1;whiteSpace=wrap;html=1;dashed=1;strokeWidth=2;" parent="1" vertex="1">
                    <mxGeometry x="430" y="110" width="570" height="320" as="geometry"/>
                </mxCell>
                <mxCell id="LuvTsgrXkjyb_PGmXndt-12" value="&lt;font style=&quot;font-size: 16px;&quot;&gt;&lt;b&gt;Tools&lt;/b&gt;&lt;/font&gt;" style="shape=process;whiteSpace=wrap;html=1;backgroundOutline=1;fillColor=#dae8fc;strokeColor=#6c8ebf;strokeWidth=2;" parent="1" vertex="1">
                    <mxGeometry x="625" y="211" width="80" height="50" as="geometry"/>
                </mxCell>
                <mxCell id="LuvTsgrXkjyb_PGmXndt-2" value="" style="rounded=1;whiteSpace=wrap;html=1;strokeWidth=2;" parent="1" vertex="1">
                    <mxGeometry x="85" y="265" width="100" height="70" as="geometry"/>
                </mxCell>
                <mxCell id="LuvTsgrXkjyb_PGmXndt-1" value="" style="points=[];aspect=fixed;html=1;align=center;shadow=0;dashed=0;fillColor=#FF6A00;strokeColor=none;shape=mxgraph.alibaba_cloud.user;" parent="1" vertex="1">
                    <mxGeometry x="105" y="270" width="60" height="60" as="geometry"/>
                </mxCell>
                <mxCell id="LuvTsgrXkjyb_PGmXndt-3" value="" style="sketch=0;points=[[0,0,0],[0.25,0,0],[0.5,0,0],[0.75,0,0],[1,0,0],[0,1,0],[0.25,1,0],[0.5,1,0],[0.75,1,0],[1,1,0],[0,0.25,0],[0,0.5,0],[0,0.75,0],[1,0.25,0],[1,0.5,0],[1,0.75,0]];points=[[0,0,0],[0.25,0,0],[0.5,0,0],[0.75,0,0],[1,0,0],[0,1,0],[0.25,1,0],[0.5,1,0],[0.75,1,0],[1,1,0],[0,0.25,0],[0,0.5,0],[0,0.75,0],[1,0.25,0],[1,0.5,0],[1,0.75,0]];outlineConnect=0;fontColor=#232F3E;fillColor=#E7157B;strokeColor=#ffffff;dashed=0;verticalLabelPosition=bottom;verticalAlign=top;align=center;html=1;fontSize=12;fontStyle=0;aspect=fixed;shape=mxgraph.aws4.resourceIcon;resIcon=mxgraph.aws4.chatbot;" parent="1" vertex="1">
                    <mxGeometry x="255" y="261" width="78" height="78" as="geometry"/>
                </mxCell>
                <mxCell id="LuvTsgrXkjyb_PGmXndt-4" style="edgeStyle=orthogonalEdgeStyle;rounded=0;orthogonalLoop=1;jettySize=auto;html=1;entryX=0;entryY=0.5;entryDx=0;entryDy=0;entryPerimeter=0;strokeWidth=2;" parent="1" source="LuvTsgrXkjyb_PGmXndt-2" target="LuvTsgrXkjyb_PGmXndt-3" edge="1">
                    <mxGeometry relative="1" as="geometry"/>
                </mxCell>
                <mxCell id="LuvTsgrXkjyb_PGmXndt-6" value="" style="sketch=0;aspect=fixed;pointerEvents=1;shadow=0;dashed=0;html=1;strokeColor=#36393d;labelPosition=center;verticalLabelPosition=bottom;verticalAlign=top;align=center;fillColor=#cce5ff;shape=mxgraph.mscae.enterprise.tool;" parent="1" vertex="1">
                    <mxGeometry x="605" y="180" width="50" height="45" as="geometry"/>
                </mxCell>
                <mxCell id="LuvTsgrXkjyb_PGmXndt-7" value="&lt;b&gt;&lt;font style=&quot;font-size: 16px;&quot;&gt;server.py&lt;/font&gt;&lt;/b&gt;" style="shape=module;align=left;spacingLeft=20;align=center;verticalAlign=top;whiteSpace=wrap;html=1;fillColor=#cce5ff;strokeColor=#36393d;strokeWidth=2;" parent="1" vertex="1">
                    <mxGeometry x="455" y="211" width="115" height="50" as="geometry"/>
                </mxCell>
                <mxCell id="LuvTsgrXkjyb_PGmXndt-10" value="&lt;b&gt;&lt;font style=&quot;font-size: 16px;&quot;&gt;server.py&lt;/font&gt;&lt;/b&gt;" style="shape=module;align=left;spacingLeft=20;align=center;verticalAlign=top;whiteSpace=wrap;html=1;fillColor=#ffcccc;strokeColor=#36393d;strokeWidth=2;" parent="1" vertex="1">
                    <mxGeometry x="455" y="275" width="115" height="50" as="geometry"/>
                </mxCell>
                <mxCell id="LuvTsgrXkjyb_PGmXndt-11" value="&lt;b&gt;&lt;font style=&quot;font-size: 16px;&quot;&gt;server.py&lt;/font&gt;&lt;/b&gt;" style="shape=module;align=left;spacingLeft=20;align=center;verticalAlign=top;whiteSpace=wrap;html=1;fillColor=#d5e8d4;strokeColor=#82b366;strokeWidth=2;" parent="1" vertex="1">
                    <mxGeometry x="455" y="369" width="115" height="50" as="geometry"/>
                </mxCell>
                <mxCell id="LuvTsgrXkjyb_PGmXndt-15" value="" style="endArrow=none;dashed=1;html=1;rounded=0;entryX=0;entryY=0;entryDx=0;entryDy=0;exitX=1;exitY=0;exitDx=0;exitDy=0;strokeWidth=2;" parent="1" source="LuvTsgrXkjyb_PGmXndt-12" target="LuvTsgrXkjyb_PGmXndt-25" edge="1">
                    <mxGeometry width="50" height="50" relative="1" as="geometry">
                        <mxPoint x="705" y="380" as="sourcePoint"/>
                        <mxPoint x="775" y="121" as="targetPoint"/>
                    </mxGeometry>
                </mxCell>
                <mxCell id="LuvTsgrXkjyb_PGmXndt-16" value="" style="endArrow=none;dashed=1;html=1;rounded=0;entryX=0;entryY=1;entryDx=0;entryDy=0;exitX=1;exitY=1;exitDx=0;exitDy=0;strokeWidth=2;" parent="1" source="LuvTsgrXkjyb_PGmXndt-12" target="LuvTsgrXkjyb_PGmXndt-25" edge="1">
                    <mxGeometry width="50" height="50" relative="1" as="geometry">
                        <mxPoint x="745" y="205" as="sourcePoint"/>
                        <mxPoint x="775" y="351.0000000000001" as="targetPoint"/>
                    </mxGeometry>
                </mxCell>
                <mxCell id="LuvTsgrXkjyb_PGmXndt-17" style="edgeStyle=orthogonalEdgeStyle;rounded=0;orthogonalLoop=1;jettySize=auto;html=1;entryX=0;entryY=0;entryDx=0;entryDy=15;entryPerimeter=0;strokeWidth=2;" parent="1" source="LuvTsgrXkjyb_PGmXndt-3" target="LuvTsgrXkjyb_PGmXndt-7" edge="1">
                    <mxGeometry relative="1" as="geometry"/>
                </mxCell>
                <mxCell id="LuvTsgrXkjyb_PGmXndt-18" style="edgeStyle=orthogonalEdgeStyle;rounded=0;orthogonalLoop=1;jettySize=auto;html=1;entryX=0;entryY=0;entryDx=0;entryDy=15;entryPerimeter=0;strokeWidth=2;" parent="1" source="LuvTsgrXkjyb_PGmXndt-3" target="LuvTsgrXkjyb_PGmXndt-10" edge="1">
                    <mxGeometry relative="1" as="geometry"/>
                </mxCell>
                <mxCell id="LuvTsgrXkjyb_PGmXndt-19" style="edgeStyle=orthogonalEdgeStyle;rounded=0;orthogonalLoop=1;jettySize=auto;html=1;entryX=0;entryY=0;entryDx=0;entryDy=35;entryPerimeter=0;strokeWidth=2;" parent="1" source="LuvTsgrXkjyb_PGmXndt-3" target="LuvTsgrXkjyb_PGmXndt-11" edge="1">
                    <mxGeometry relative="1" as="geometry"/>
                </mxCell>
                <mxCell id="LuvTsgrXkjyb_PGmXndt-28" value="" style="endArrow=none;dashed=1;html=1;rounded=0;entryX=0;entryY=0;entryDx=0;entryDy=0;exitX=1;exitY=0.5;exitDx=0;exitDy=0;strokeWidth=2;" parent="1" source="LuvTsgrXkjyb_PGmXndt-7" target="LuvTsgrXkjyb_PGmXndt-12" edge="1">
                    <mxGeometry width="50" height="50" relative="1" as="geometry">
                        <mxPoint x="735" y="204" as="sourcePoint"/>
                        <mxPoint x="785" y="148" as="targetPoint"/>
                    </mxGeometry>
                </mxCell>
                <mxCell id="LuvTsgrXkjyb_PGmXndt-29" value="" style="endArrow=none;dashed=1;html=1;rounded=0;entryX=1;entryY=0.5;entryDx=0;entryDy=0;exitX=0;exitY=1;exitDx=0;exitDy=0;strokeWidth=2;" parent="1" source="LuvTsgrXkjyb_PGmXndt-12" target="LuvTsgrXkjyb_PGmXndt-7" edge="1">
                    <mxGeometry width="50" height="50" relative="1" as="geometry">
                        <mxPoint x="735" y="254" as="sourcePoint"/>
                        <mxPoint x="785" y="327" as="targetPoint"/>
                    </mxGeometry>
                </mxCell>
                <mxCell id="LuvTsgrXkjyb_PGmXndt-30" value="&lt;b&gt;&lt;font style=&quot;font-size: 16px;&quot;&gt;Client&lt;/font&gt;&lt;/b&gt;" style="text;html=1;align=center;verticalAlign=middle;resizable=0;points=[];autosize=1;strokeColor=none;fillColor=none;" parent="1" vertex="1">
                    <mxGeometry x="100" y="339" width="70" height="30" as="geometry"/>
                </mxCell>
                <mxCell id="LuvTsgrXkjyb_PGmXndt-31" value="&lt;b&gt;&lt;font style=&quot;font-size: 16px;&quot;&gt;...&lt;/font&gt;&lt;/b&gt;" style="text;html=1;align=center;verticalAlign=middle;resizable=0;points=[];autosize=1;strokeColor=none;fillColor=none;" parent="1" vertex="1">
                    <mxGeometry x="492.5" y="330" width="40" height="30" as="geometry"/>
                </mxCell>
                <mxCell id="LuvTsgrXkjyb_PGmXndt-33" value="" style="endArrow=none;dashed=1;html=1;rounded=0;entryX=1;entryY=0.5;entryDx=0;entryDy=0;exitX=1;exitY=0;exitDx=0;exitDy=0;strokeWidth=2;exitPerimeter=0;" parent="1" source="LuvTsgrXkjyb_PGmXndt-3" target="LuvTsgrXkjyb_PGmXndt-32" edge="1">
                    <mxGeometry width="50" height="50" relative="1" as="geometry">
                        <mxPoint x="550" y="246" as="sourcePoint"/>
                        <mxPoint x="605" y="221" as="targetPoint"/>
                    </mxGeometry>
                </mxCell>
                <mxCell id="LuvTsgrXkjyb_PGmXndt-34" value="" style="endArrow=none;dashed=1;html=1;rounded=0;entryX=0;entryY=0.5;entryDx=0;entryDy=0;exitX=0;exitY=0;exitDx=0;exitDy=0;strokeWidth=2;exitPerimeter=0;" parent="1" source="LuvTsgrXkjyb_PGmXndt-3" target="LuvTsgrXkjyb_PGmXndt-32" edge="1">
                    <mxGeometry width="50" height="50" relative="1" as="geometry">
                        <mxPoint x="605" y="271" as="sourcePoint"/>
                        <mxPoint x="550" y="246" as="targetPoint"/>
                    </mxGeometry>
                </mxCell>
                <mxCell id="LuvTsgrXkjyb_PGmXndt-32" value="" style="ellipse;whiteSpace=wrap;html=1;strokeWidth=2;fillColor=light-dark(#FFFFFF,#330033);" parent="1" vertex="1">
                    <mxGeometry x="170" y="70" width="250" height="134" as="geometry"/>
                </mxCell>
                <mxCell id="LuvTsgrXkjyb_PGmXndt-5" value="&lt;b&gt;Any LLM&lt;/b&gt;&lt;div&gt;&lt;b&gt;that supports tool calling&lt;/b&gt;&lt;/div&gt;" style="sketch=0;outlineConnect=0;fontColor=#232F3E;gradientColor=none;fillColor=#01A88D;strokeColor=none;dashed=0;verticalLabelPosition=bottom;verticalAlign=top;align=center;html=1;fontSize=12;fontStyle=0;aspect=fixed;pointerEvents=1;shape=mxgraph.aws4.sagemaker_model;" parent="1" vertex="1">
                    <mxGeometry x="266" y="79.5" width="58" height="58" as="geometry"/>
                </mxCell>
                <mxCell id="LuvTsgrXkjyb_PGmXndt-35" value="&lt;font style=&quot;font-size: 16px;&quot;&gt;Tools&lt;/font&gt;" style="shape=process;whiteSpace=wrap;html=1;backgroundOutline=1;fillColor=#dae8fc;strokeColor=#6c8ebf;strokeWidth=2;" parent="1" vertex="1">
                    <mxGeometry x="720" y="755.5" width="80" height="50" as="geometry"/>
                </mxCell>
                <mxCell id="LuvTsgrXkjyb_PGmXndt-36" value="" style="rounded=1;whiteSpace=wrap;html=1;strokeWidth=2;" parent="1" vertex="1">
                    <mxGeometry x="80" y="842" width="100" height="70" as="geometry"/>
                </mxCell>
                <mxCell id="LuvTsgrXkjyb_PGmXndt-37" value="" style="points=[];aspect=fixed;html=1;align=center;shadow=0;dashed=0;fillColor=#FF6A00;strokeColor=none;shape=mxgraph.alibaba_cloud.user;" parent="1" vertex="1">
                    <mxGeometry x="100" y="847" width="60" height="60" as="geometry"/>
                </mxCell>
                <mxCell id="LuvTsgrXkjyb_PGmXndt-38" value="" style="sketch=0;points=[[0,0,0],[0.25,0,0],[0.5,0,0],[0.75,0,0],[1,0,0],[0,1,0],[0.25,1,0],[0.5,1,0],[0.75,1,0],[1,1,0],[0,0.25,0],[0,0.5,0],[0,0.75,0],[1,0.25,0],[1,0.5,0],[1,0.75,0]];points=[[0,0,0],[0.25,0,0],[0.5,0,0],[0.75,0,0],[1,0,0],[0,1,0],[0.25,1,0],[0.5,1,0],[0.75,1,0],[1,1,0],[0,0.25,0],[0,0.5,0],[0,0.75,0],[1,0.25,0],[1,0.5,0],[1,0.75,0]];outlineConnect=0;fontColor=#232F3E;fillColor=#E7157B;strokeColor=#ffffff;dashed=0;verticalLabelPosition=bottom;verticalAlign=top;align=center;html=1;fontSize=12;fontStyle=0;aspect=fixed;shape=mxgraph.aws4.resourceIcon;resIcon=mxgraph.aws4.chatbot;" parent="1" vertex="1">
                    <mxGeometry x="250" y="838" width="78" height="78" as="geometry"/>
                </mxCell>
                <mxCell id="LuvTsgrXkjyb_PGmXndt-39" style="edgeStyle=orthogonalEdgeStyle;rounded=0;orthogonalLoop=1;jettySize=auto;html=1;entryX=0;entryY=0.5;entryDx=0;entryDy=0;entryPerimeter=0;strokeWidth=2;" parent="1" source="LuvTsgrXkjyb_PGmXndt-36" target="LuvTsgrXkjyb_PGmXndt-38" edge="1">
                    <mxGeometry relative="1" as="geometry"/>
                </mxCell>
                <mxCell id="LuvTsgrXkjyb_PGmXndt-40" value="" style="sketch=0;aspect=fixed;pointerEvents=1;shadow=0;dashed=0;html=1;strokeColor=#36393d;labelPosition=center;verticalLabelPosition=bottom;verticalAlign=top;align=center;fillColor=#cce5ff;shape=mxgraph.mscae.enterprise.tool;" parent="1" vertex="1">
                    <mxGeometry x="700" y="724.5" width="50" height="45" as="geometry"/>
                </mxCell>
                <mxCell id="LuvTsgrXkjyb_PGmXndt-41" value="&lt;font style=&quot;&quot;&gt;&lt;span style=&quot;font-size: 16px;&quot;&gt;&lt;b&gt;daily_news.py&lt;/b&gt;&lt;/span&gt;&lt;/font&gt;" style="shape=module;align=left;spacingLeft=20;align=center;verticalAlign=top;whiteSpace=wrap;html=1;fillColor=#cce5ff;strokeColor=#36393d;strokeWidth=2;" parent="1" vertex="1">
                    <mxGeometry x="430" y="798" width="210" height="50" as="geometry"/>
                </mxCell>
                <mxCell id="LuvTsgrXkjyb_PGmXndt-42" value="&lt;font style=&quot;&quot;&gt;&lt;span style=&quot;font-size: 16px;&quot;&gt;&lt;b&gt;stock_news.py&lt;/b&gt;&lt;/span&gt;&lt;/font&gt;" style="shape=module;align=left;spacingLeft=20;align=center;verticalAlign=top;whiteSpace=wrap;html=1;fillColor=#fad9d5;strokeColor=#ae4132;strokeWidth=2;" parent="1" vertex="1">
                    <mxGeometry x="430" y="862" width="210" height="50" as="geometry"/>
                </mxCell>
                <mxCell id="LuvTsgrXkjyb_PGmXndt-43" value="&lt;font style=&quot;&quot;&gt;&lt;span style=&quot;font-size: 16px;&quot;&gt;&lt;b&gt;wikipedia_summary.py&lt;/b&gt;&lt;/span&gt;&lt;/font&gt;" style="shape=module;align=left;spacingLeft=20;align=center;verticalAlign=top;whiteSpace=wrap;html=1;fillColor=#d5e8d4;strokeColor=#82b366;strokeWidth=2;" parent="1" vertex="1">
                    <mxGeometry x="430" y="926" width="210" height="50" as="geometry"/>
                </mxCell>
                <mxCell id="LuvTsgrXkjyb_PGmXndt-44" value="" style="endArrow=none;dashed=1;html=1;rounded=0;entryX=0;entryY=0;entryDx=0;entryDy=0;exitX=1;exitY=0;exitDx=0;exitDy=0;strokeWidth=2;" parent="1" source="LuvTsgrXkjyb_PGmXndt-35" target="LuvTsgrXkjyb_PGmXndt-50" edge="1">
                    <mxGeometry width="50" height="50" relative="1" as="geometry">
                        <mxPoint x="800" y="924.5" as="sourcePoint"/>
                        <mxPoint x="870" y="665.5" as="targetPoint"/>
                    </mxGeometry>
                </mxCell>
                <mxCell id="LuvTsgrXkjyb_PGmXndt-45" value="" style="endArrow=none;dashed=1;html=1;rounded=0;entryX=0;entryY=1;entryDx=0;entryDy=0;exitX=1;exitY=1;exitDx=0;exitDy=0;strokeWidth=2;" parent="1" source="LuvTsgrXkjyb_PGmXndt-35" target="LuvTsgrXkjyb_PGmXndt-50" edge="1">
                    <mxGeometry width="50" height="50" relative="1" as="geometry">
                        <mxPoint x="840" y="749.5" as="sourcePoint"/>
                        <mxPoint x="870" y="895.5000000000001" as="targetPoint"/>
                    </mxGeometry>
                </mxCell>
                <mxCell id="LuvTsgrXkjyb_PGmXndt-46" style="edgeStyle=orthogonalEdgeStyle;rounded=0;orthogonalLoop=1;jettySize=auto;html=1;entryX=0;entryY=0;entryDx=0;entryDy=15;entryPerimeter=0;strokeWidth=2;" parent="1" source="LuvTsgrXkjyb_PGmXndt-38" target="LuvTsgrXkjyb_PGmXndt-41" edge="1">
                    <mxGeometry relative="1" as="geometry"/>
                </mxCell>
                <mxCell id="LuvTsgrXkjyb_PGmXndt-47" style="edgeStyle=orthogonalEdgeStyle;rounded=0;orthogonalLoop=1;jettySize=auto;html=1;entryX=0;entryY=0;entryDx=0;entryDy=15;entryPerimeter=0;strokeWidth=2;" parent="1" source="LuvTsgrXkjyb_PGmXndt-38" target="LuvTsgrXkjyb_PGmXndt-42" edge="1">
                    <mxGeometry relative="1" as="geometry"/>
                </mxCell>
                <mxCell id="LuvTsgrXkjyb_PGmXndt-48" style="edgeStyle=orthogonalEdgeStyle;rounded=0;orthogonalLoop=1;jettySize=auto;html=1;entryX=0;entryY=0;entryDx=0;entryDy=35;entryPerimeter=0;strokeWidth=2;dashed=1;" parent="1" source="LuvTsgrXkjyb_PGmXndt-38" target="LuvTsgrXkjyb_PGmXndt-43" edge="1">
                    <mxGeometry relative="1" as="geometry"/>
                </mxCell>
                <mxCell id="LuvTsgrXkjyb_PGmXndt-55" value="" style="endArrow=none;dashed=1;html=1;rounded=0;entryX=0;entryY=0;entryDx=0;entryDy=0;exitX=1;exitY=0.5;exitDx=0;exitDy=0;strokeWidth=2;" parent="1" source="LuvTsgrXkjyb_PGmXndt-41" target="LuvTsgrXkjyb_PGmXndt-35" edge="1">
                    <mxGeometry width="50" height="50" relative="1" as="geometry">
                        <mxPoint x="670" y="822" as="sourcePoint"/>
                        <mxPoint x="885" y="734" as="targetPoint"/>
                    </mxGeometry>
                </mxCell>
                <mxCell id="LuvTsgrXkjyb_PGmXndt-56" value="" style="endArrow=none;dashed=1;html=1;rounded=0;entryX=1;entryY=0.5;entryDx=0;entryDy=0;exitX=0;exitY=1;exitDx=0;exitDy=0;strokeWidth=2;" parent="1" source="LuvTsgrXkjyb_PGmXndt-35" target="LuvTsgrXkjyb_PGmXndt-41" edge="1">
                    <mxGeometry width="50" height="50" relative="1" as="geometry">
                        <mxPoint x="835" y="840" as="sourcePoint"/>
                        <mxPoint x="670" y="822" as="targetPoint"/>
                    </mxGeometry>
                </mxCell>
                <mxCell id="LuvTsgrXkjyb_PGmXndt-57" value="&lt;b&gt;&lt;font style=&quot;font-size: 16px;&quot;&gt;Client&lt;/font&gt;&lt;/b&gt;" style="text;html=1;align=center;verticalAlign=middle;resizable=0;points=[];autosize=1;strokeColor=none;fillColor=none;" parent="1" vertex="1">
                    <mxGeometry x="95" y="916" width="70" height="30" as="geometry"/>
                </mxCell>
                <mxCell id="LuvTsgrXkjyb_PGmXndt-59" value="" style="endArrow=none;dashed=1;html=1;rounded=0;entryX=1;entryY=0.5;entryDx=0;entryDy=0;exitX=1;exitY=0;exitDx=0;exitDy=0;strokeWidth=2;exitPerimeter=0;" parent="1" source="LuvTsgrXkjyb_PGmXndt-38" target="LuvTsgrXkjyb_PGmXndt-61" edge="1">
                    <mxGeometry width="50" height="50" relative="1" as="geometry">
                        <mxPoint x="545" y="823" as="sourcePoint"/>
                        <mxPoint x="600" y="798" as="targetPoint"/>
                    </mxGeometry>
                </mxCell>
                <mxCell id="LuvTsgrXkjyb_PGmXndt-60" value="" style="endArrow=none;dashed=1;html=1;rounded=0;entryX=0;entryY=0.5;entryDx=0;entryDy=0;exitX=0;exitY=0;exitDx=0;exitDy=0;strokeWidth=2;exitPerimeter=0;" parent="1" source="LuvTsgrXkjyb_PGmXndt-38" target="LuvTsgrXkjyb_PGmXndt-61" edge="1">
                    <mxGeometry width="50" height="50" relative="1" as="geometry">
                        <mxPoint x="600" y="848" as="sourcePoint"/>
                        <mxPoint x="545" y="823" as="targetPoint"/>
                    </mxGeometry>
                </mxCell>
                <mxCell id="LuvTsgrXkjyb_PGmXndt-61" value="&lt;b&gt;&lt;font style=&quot;font-size: 16px;&quot;&gt;Claude desktop&lt;/font&gt;&lt;/b&gt;&lt;div&gt;&lt;b&gt;&lt;font style=&quot;font-size: 16px;&quot;&gt;(Anthropic)&lt;/font&gt;&lt;/b&gt;&lt;/div&gt;" style="ellipse;whiteSpace=wrap;html=1;strokeWidth=2;fillColor=light-dark(#FFFFFF,#330033);" parent="1" vertex="1">
                    <mxGeometry x="207.5" y="723.5" width="165" height="94" as="geometry"/>
                </mxCell>
                <mxCell id="LuvTsgrXkjyb_PGmXndt-25" value="" style="rounded=0;whiteSpace=wrap;html=1;strokeWidth=2;container=0;" parent="1" vertex="1">
                    <mxGeometry x="775" y="129.75" width="210" height="212.5" as="geometry"/>
                </mxCell>
                <mxCell id="LuvTsgrXkjyb_PGmXndt-21" value="&lt;b&gt;&lt;font style=&quot;font-size: 14px;&quot;&gt;Cloud&lt;/font&gt;&lt;/b&gt;" style="ellipse;shape=cloud;whiteSpace=wrap;html=1;fillColor=#e1d5e7;strokeColor=#9673a6;strokeWidth=2;container=0;" parent="1" vertex="1">
                    <mxGeometry x="775" y="227.5" width="120" height="80" as="geometry"/>
                </mxCell>
                <mxCell id="LuvTsgrXkjyb_PGmXndt-22" value="&lt;b&gt;&lt;font style=&quot;font-size: 14px;&quot;&gt;Databases&lt;/font&gt;&lt;/b&gt;" style="shape=cylinder3;whiteSpace=wrap;html=1;boundedLbl=1;backgroundOutline=1;size=15;fillColor=#fff2cc;strokeColor=#d6b656;strokeWidth=2;container=0;" parent="1" vertex="1">
                    <mxGeometry x="885" y="167.5" width="90" height="70" as="geometry"/>
                </mxCell>
                <mxCell id="LuvTsgrXkjyb_PGmXndt-23" value="" style="image;aspect=fixed;html=1;points=[];align=center;fontSize=12;image=img/lib/azure2/devops/API_Connections.svg;container=0;" parent="1" vertex="1">
                    <mxGeometry x="795" y="153.18" width="68" height="45.32" as="geometry"/>
                </mxCell>
                <mxCell id="LuvTsgrXkjyb_PGmXndt-24" value="&lt;font style=&quot;font-size: 14px;&quot;&gt;&lt;b style=&quot;&quot;&gt;APIs&lt;/b&gt;&lt;/font&gt;" style="text;html=1;align=center;verticalAlign=middle;resizable=0;points=[];autosize=1;strokeColor=none;fillColor=none;container=0;" parent="1" vertex="1">
                    <mxGeometry x="830" y="137.5" width="50" height="30" as="geometry"/>
                </mxCell>
                <mxCell id="LuvTsgrXkjyb_PGmXndt-64" value="" style="points=[];aspect=fixed;html=1;align=center;shadow=0;dashed=0;fillColor=#FF6A00;strokeColor=none;shape=mxgraph.alibaba_cloud.domain_and_website;container=0;" parent="1" vertex="1">
                    <mxGeometry x="913.7" y="260" width="51.3" height="41.4" as="geometry"/>
                </mxCell>
                <mxCell id="LuvTsgrXkjyb_PGmXndt-65" value="&lt;font style=&quot;font-size: 14px;&quot;&gt;&lt;b&gt;Internet&lt;/b&gt;&lt;/font&gt;" style="text;html=1;align=center;verticalAlign=middle;resizable=0;points=[];autosize=1;strokeColor=none;fillColor=none;" parent="1" vertex="1">
                    <mxGeometry x="900" y="305" width="70" height="30" as="geometry"/>
                </mxCell>
                <mxCell id="LuvTsgrXkjyb_PGmXndt-50" value="" style="rounded=0;whiteSpace=wrap;html=1;strokeWidth=2;container=0;" parent="1" vertex="1">
                    <mxGeometry x="855" y="750.5" width="205" height="60" as="geometry"/>
                </mxCell>
                <UserObject label="https://www.npr.org/sections/news/" link="https://www.npr.org/sections/news/" id="LuvTsgrXkjyb_PGmXndt-66">
                    <mxCell style="text;whiteSpace=wrap;fontColor=light-dark(#000000,#66B2FF);" parent="1" vertex="1">
                        <mxGeometry x="860" y="765.5" width="220" height="40" as="geometry"/>
                    </mxCell>
                </UserObject>
                <mxCell id="LuvTsgrXkjyb_PGmXndt-67" value="&lt;font style=&quot;font-size: 16px;&quot;&gt;Tools&lt;/font&gt;" style="shape=process;whiteSpace=wrap;html=1;backgroundOutline=1;fillColor=#fad9d5;strokeColor=#ae4132;strokeWidth=2;" parent="1" vertex="1">
                    <mxGeometry x="720" y="842" width="80" height="50" as="geometry"/>
                </mxCell>
                <mxCell id="LuvTsgrXkjyb_PGmXndt-68" value="" style="sketch=0;aspect=fixed;pointerEvents=1;shadow=0;dashed=0;html=1;strokeColor=#ae4132;labelPosition=center;verticalLabelPosition=bottom;verticalAlign=top;align=center;fillColor=#fad9d5;shape=mxgraph.mscae.enterprise.tool;" parent="1" vertex="1">
                    <mxGeometry x="690" y="817" width="50" height="45" as="geometry"/>
                </mxCell>
                <mxCell id="LuvTsgrXkjyb_PGmXndt-69" value="" style="endArrow=none;dashed=1;html=1;rounded=0;entryX=0;entryY=0;entryDx=0;entryDy=0;exitX=1;exitY=0;exitDx=0;exitDy=0;strokeWidth=2;" parent="1" source="LuvTsgrXkjyb_PGmXndt-67" target="LuvTsgrXkjyb_PGmXndt-71" edge="1">
                    <mxGeometry width="50" height="50" relative="1" as="geometry">
                        <mxPoint x="800" y="1011" as="sourcePoint"/>
                        <mxPoint x="870" y="752" as="targetPoint"/>
                    </mxGeometry>
                </mxCell>
                <mxCell id="LuvTsgrXkjyb_PGmXndt-70" value="" style="endArrow=none;dashed=1;html=1;rounded=0;entryX=0;entryY=1;entryDx=0;entryDy=0;exitX=1;exitY=1;exitDx=0;exitDy=0;strokeWidth=2;" parent="1" source="LuvTsgrXkjyb_PGmXndt-67" target="LuvTsgrXkjyb_PGmXndt-71" edge="1">
                    <mxGeometry width="50" height="50" relative="1" as="geometry">
                        <mxPoint x="840" y="836" as="sourcePoint"/>
                        <mxPoint x="870" y="982.0000000000001" as="targetPoint"/>
                    </mxGeometry>
                </mxCell>
                <mxCell id="LuvTsgrXkjyb_PGmXndt-71" value="" style="rounded=0;whiteSpace=wrap;html=1;strokeWidth=2;container=0;" parent="1" vertex="1">
                    <mxGeometry x="855" y="837" width="205" height="60" as="geometry"/>
                </mxCell>
                <UserObject label="https://www.npr.org/sections/news/" link="https://www.npr.org/sections/news/" id="LuvTsgrXkjyb_PGmXndt-72">
                    <mxCell style="text;whiteSpace=wrap;fontColor=light-dark(#000000,#FF6666);" parent="1" vertex="1">
                        <mxGeometry x="860" y="852" width="220" height="40" as="geometry"/>
                    </mxCell>
                </UserObject>
                <mxCell id="LuvTsgrXkjyb_PGmXndt-73" value="" style="endArrow=none;dashed=1;html=1;rounded=0;strokeWidth=2;entryX=0;entryY=1;entryDx=0;entryDy=0;exitX=1;exitY=0.5;exitDx=0;exitDy=0;" parent="1" source="LuvTsgrXkjyb_PGmXndt-42" target="LuvTsgrXkjyb_PGmXndt-67" edge="1">
                    <mxGeometry width="50" height="50" relative="1" as="geometry">
                        <mxPoint x="540" y="887" as="sourcePoint"/>
                        <mxPoint x="710" y="917" as="targetPoint"/>
                    </mxGeometry>
                </mxCell>
                <mxCell id="LuvTsgrXkjyb_PGmXndt-74" value="" style="endArrow=none;dashed=1;html=1;rounded=0;entryX=1;entryY=0.5;entryDx=0;entryDy=0;exitX=0;exitY=0;exitDx=0;exitDy=0;strokeWidth=2;" parent="1" source="LuvTsgrXkjyb_PGmXndt-67" target="LuvTsgrXkjyb_PGmXndt-42" edge="1">
                    <mxGeometry width="50" height="50" relative="1" as="geometry">
                        <mxPoint x="735" y="857" as="sourcePoint"/>
                        <mxPoint x="650" y="833" as="targetPoint"/>
                    </mxGeometry>
                </mxCell>
                <mxCell id="LuvTsgrXkjyb_PGmXndt-76" value="&lt;font style=&quot;font-size: 16px;&quot;&gt;Tools&lt;/font&gt;" style="shape=process;whiteSpace=wrap;html=1;backgroundOutline=1;fillColor=#d5e8d4;strokeColor=#82b366;strokeWidth=2;gradientColor=#97d077;" parent="1" vertex="1">
                    <mxGeometry x="720" y="926" width="80" height="50" as="geometry"/>
                </mxCell>
                <mxCell id="LuvTsgrXkjyb_PGmXndt-77" value="" style="sketch=0;aspect=fixed;pointerEvents=1;shadow=0;dashed=0;html=1;strokeColor=#82b366;labelPosition=center;verticalLabelPosition=bottom;verticalAlign=top;align=center;fillColor=#d5e8d4;shape=mxgraph.mscae.enterprise.tool;gradientColor=#97d077;" parent="1" vertex="1">
                    <mxGeometry x="690" y="901" width="50" height="45" as="geometry"/>
                </mxCell>
                <mxCell id="LuvTsgrXkjyb_PGmXndt-78" value="" style="endArrow=none;dashed=1;html=1;rounded=0;entryX=0;entryY=0;entryDx=0;entryDy=0;exitX=1;exitY=0;exitDx=0;exitDy=0;strokeWidth=2;" parent="1" source="LuvTsgrXkjyb_PGmXndt-76" target="LuvTsgrXkjyb_PGmXndt-80" edge="1">
                    <mxGeometry width="50" height="50" relative="1" as="geometry">
                        <mxPoint x="800" y="1095" as="sourcePoint"/>
                        <mxPoint x="870" y="836" as="targetPoint"/>
                    </mxGeometry>
                </mxCell>
                <mxCell id="LuvTsgrXkjyb_PGmXndt-79" value="" style="endArrow=none;dashed=1;html=1;rounded=0;entryX=0;entryY=1;entryDx=0;entryDy=0;exitX=1;exitY=1;exitDx=0;exitDy=0;strokeWidth=2;" parent="1" source="LuvTsgrXkjyb_PGmXndt-76" target="LuvTsgrXkjyb_PGmXndt-80" edge="1">
                    <mxGeometry width="50" height="50" relative="1" as="geometry">
                        <mxPoint x="840" y="920" as="sourcePoint"/>
                        <mxPoint x="870" y="1066" as="targetPoint"/>
                    </mxGeometry>
                </mxCell>
                <mxCell id="LuvTsgrXkjyb_PGmXndt-80" value="" style="rounded=0;whiteSpace=wrap;html=1;strokeWidth=2;container=0;" parent="1" vertex="1">
                    <mxGeometry x="855" y="921" width="205" height="60" as="geometry"/>
                </mxCell>
                <UserObject label="https://www.npr.org/sections/news/" link="https://www.npr.org/sections/news/" id="LuvTsgrXkjyb_PGmXndt-81">
                    <mxCell style="text;whiteSpace=wrap;fontColor=light-dark(#000000,#33FF33);" parent="1" vertex="1">
                        <mxGeometry x="860" y="936" width="220" height="40" as="geometry"/>
                    </mxCell>
                </UserObject>
                <mxCell id="LuvTsgrXkjyb_PGmXndt-82" value="" style="endArrow=none;dashed=1;html=1;rounded=0;strokeWidth=2;entryX=0.5;entryY=0.67;entryDx=0;entryDy=0;exitX=1;exitY=0.5;exitDx=0;exitDy=0;entryPerimeter=0;" parent="1" source="LuvTsgrXkjyb_PGmXndt-43" target="LuvTsgrXkjyb_PGmXndt-77" edge="1">
                    <mxGeometry width="50" height="50" relative="1" as="geometry">
                        <mxPoint x="650" y="897" as="sourcePoint"/>
                        <mxPoint x="730" y="922" as="targetPoint"/>
                    </mxGeometry>
                </mxCell>
                <mxCell id="LuvTsgrXkjyb_PGmXndt-83" value="" style="endArrow=none;dashed=1;html=1;rounded=0;entryX=1;entryY=0.5;entryDx=0;entryDy=0;exitX=0;exitY=1;exitDx=0;exitDy=0;strokeWidth=2;" parent="1" source="LuvTsgrXkjyb_PGmXndt-76" target="LuvTsgrXkjyb_PGmXndt-43" edge="1">
                    <mxGeometry width="50" height="50" relative="1" as="geometry">
                        <mxPoint x="730" y="872" as="sourcePoint"/>
                        <mxPoint x="650" y="897" as="targetPoint"/>
                    </mxGeometry>
                </mxCell>
                <mxCell id="LuvTsgrXkjyb_PGmXndt-84" value="" style="shape=image;verticalLabelPosition=bottom;labelBackgroundColor=default;verticalAlign=top;aspect=fixed;imageAspect=0;image=https://upload.wikimedia.org/wikipedia/commons/1/14/Anthropic.png;" parent="1" vertex="1">
                    <mxGeometry x="254" y="916" width="70" height="70" as="geometry"/>
                </mxCell>
                <mxCell id="LuvTsgrXkjyb_PGmXndt-130" value="&lt;b&gt;&lt;font style=&quot;font-size: 16px;&quot;&gt;MCP servers&lt;/font&gt;&lt;/b&gt;" style="text;html=1;align=center;verticalAlign=middle;resizable=0;points=[];autosize=1;strokeColor=#BD7000;fillColor=#f0a30a;fontColor=#000000;" parent="1" vertex="1">
                    <mxGeometry x="455" y="137.5" width="120" height="30" as="geometry"/>
                </mxCell>
                <mxCell id="LuvTsgrXkjyb_PGmXndt-135" value="&lt;b&gt;&lt;font style=&quot;font-size: 16px;&quot;&gt;MCP servers&lt;/font&gt;&lt;/b&gt;" style="text;html=1;align=center;verticalAlign=middle;resizable=0;points=[];autosize=1;strokeColor=#BD7000;fillColor=#f0a30a;fontColor=#000000;" parent="1" vertex="1">
                    <mxGeometry x="440" y="735.5" width="120" height="30" as="geometry"/>
                </mxCell>
                <mxCell id="LuvTsgrXkjyb_PGmXndt-136" value="" style="rounded=1;whiteSpace=wrap;html=1;" parent="1" vertex="1">
                    <mxGeometry x="70" y="1343" width="1020" height="360" as="geometry"/>
                </mxCell>
                <mxCell id="LuvTsgrXkjyb_PGmXndt-137" value="" style="rounded=1;whiteSpace=wrap;html=1;dashed=1;strokeWidth=2;" parent="1" vertex="1">
                    <mxGeometry x="410" y="1363" width="662.5" height="320" as="geometry"/>
                </mxCell>
                <mxCell id="LuvTsgrXkjyb_PGmXndt-138" value="&lt;font style=&quot;font-size: 16px;&quot;&gt;Tools&lt;/font&gt;" style="shape=process;whiteSpace=wrap;html=1;backgroundOutline=1;fillColor=#dae8fc;strokeColor=#6c8ebf;strokeWidth=2;" parent="1" vertex="1">
                    <mxGeometry x="720" y="1401.5" width="80" height="50" as="geometry"/>
                </mxCell>
                <mxCell id="LuvTsgrXkjyb_PGmXndt-139" value="" style="rounded=1;whiteSpace=wrap;html=1;strokeWidth=2;" parent="1" vertex="1">
                    <mxGeometry x="80" y="1488" width="100" height="70" as="geometry"/>
                </mxCell>
                <mxCell id="LuvTsgrXkjyb_PGmXndt-140" value="" style="points=[];aspect=fixed;html=1;align=center;shadow=0;dashed=0;fillColor=#FF6A00;strokeColor=none;shape=mxgraph.alibaba_cloud.user;" parent="1" vertex="1">
                    <mxGeometry x="100" y="1493" width="60" height="60" as="geometry"/>
                </mxCell>
                <mxCell id="LuvTsgrXkjyb_PGmXndt-141" value="" style="sketch=0;points=[[0,0,0],[0.25,0,0],[0.5,0,0],[0.75,0,0],[1,0,0],[0,1,0],[0.25,1,0],[0.5,1,0],[0.75,1,0],[1,1,0],[0,0.25,0],[0,0.5,0],[0,0.75,0],[1,0.25,0],[1,0.5,0],[1,0.75,0]];points=[[0,0,0],[0.25,0,0],[0.5,0,0],[0.75,0,0],[1,0,0],[0,1,0],[0.25,1,0],[0.5,1,0],[0.75,1,0],[1,1,0],[0,0.25,0],[0,0.5,0],[0,0.75,0],[1,0.25,0],[1,0.5,0],[1,0.75,0]];outlineConnect=0;fontColor=#232F3E;fillColor=#E7157B;strokeColor=#ffffff;dashed=0;verticalLabelPosition=bottom;verticalAlign=top;align=center;html=1;fontSize=12;fontStyle=0;aspect=fixed;shape=mxgraph.aws4.resourceIcon;resIcon=mxgraph.aws4.chatbot;" parent="1" vertex="1">
                    <mxGeometry x="250" y="1484" width="78" height="78" as="geometry"/>
                </mxCell>
                <mxCell id="LuvTsgrXkjyb_PGmXndt-142" style="edgeStyle=orthogonalEdgeStyle;rounded=0;orthogonalLoop=1;jettySize=auto;html=1;entryX=0;entryY=0.5;entryDx=0;entryDy=0;entryPerimeter=0;strokeWidth=2;" parent="1" source="LuvTsgrXkjyb_PGmXndt-139" target="LuvTsgrXkjyb_PGmXndt-141" edge="1">
                    <mxGeometry relative="1" as="geometry"/>
                </mxCell>
                <mxCell id="LuvTsgrXkjyb_PGmXndt-143" value="" style="sketch=0;aspect=fixed;pointerEvents=1;shadow=0;dashed=0;html=1;strokeColor=#36393d;labelPosition=center;verticalLabelPosition=bottom;verticalAlign=top;align=center;fillColor=#cce5ff;shape=mxgraph.mscae.enterprise.tool;" parent="1" vertex="1">
                    <mxGeometry x="700" y="1370.5" width="50" height="45" as="geometry"/>
                </mxCell>
                <mxCell id="LuvTsgrXkjyb_PGmXndt-144" value="&lt;font style=&quot;&quot;&gt;&lt;span style=&quot;font-size: 16px;&quot;&gt;&lt;b&gt;daily_news.py&lt;/b&gt;&lt;/span&gt;&lt;/font&gt;" style="shape=module;align=left;spacingLeft=20;align=center;verticalAlign=top;whiteSpace=wrap;html=1;fillColor=#cce5ff;strokeColor=#36393d;strokeWidth=2;" parent="1" vertex="1">
                    <mxGeometry x="430" y="1444" width="210" height="50" as="geometry"/>
                </mxCell>
                <mxCell id="LuvTsgrXkjyb_PGmXndt-145" value="&lt;font style=&quot;&quot;&gt;&lt;span style=&quot;font-size: 16px;&quot;&gt;&lt;b&gt;stock_news.py&lt;/b&gt;&lt;/span&gt;&lt;/font&gt;" style="shape=module;align=left;spacingLeft=20;align=center;verticalAlign=top;whiteSpace=wrap;html=1;fillColor=#fad9d5;strokeColor=#ae4132;strokeWidth=2;" parent="1" vertex="1">
                    <mxGeometry x="430" y="1508" width="210" height="50" as="geometry"/>
                </mxCell>
                <mxCell id="LuvTsgrXkjyb_PGmXndt-146" value="&lt;font style=&quot;&quot;&gt;&lt;span style=&quot;font-size: 16px;&quot;&gt;&lt;b&gt;wikipedia_summary.py&lt;/b&gt;&lt;/span&gt;&lt;/font&gt;" style="shape=module;align=left;spacingLeft=20;align=center;verticalAlign=top;whiteSpace=wrap;html=1;fillColor=#d5e8d4;strokeColor=#82b366;strokeWidth=2;" parent="1" vertex="1">
                    <mxGeometry x="430" y="1572" width="210" height="50" as="geometry"/>
                </mxCell>
                <mxCell id="LuvTsgrXkjyb_PGmXndt-147" value="" style="endArrow=none;dashed=1;html=1;rounded=0;entryX=0;entryY=0;entryDx=0;entryDy=0;exitX=1;exitY=0;exitDx=0;exitDy=0;strokeWidth=2;" parent="1" source="LuvTsgrXkjyb_PGmXndt-138" target="LuvTsgrXkjyb_PGmXndt-158" edge="1">
                    <mxGeometry width="50" height="50" relative="1" as="geometry">
                        <mxPoint x="800" y="1570.5" as="sourcePoint"/>
                        <mxPoint x="870" y="1311.5" as="targetPoint"/>
                    </mxGeometry>
                </mxCell>
                <mxCell id="LuvTsgrXkjyb_PGmXndt-148" value="" style="endArrow=none;dashed=1;html=1;rounded=0;entryX=0;entryY=1;entryDx=0;entryDy=0;exitX=1;exitY=1;exitDx=0;exitDy=0;strokeWidth=2;" parent="1" source="LuvTsgrXkjyb_PGmXndt-138" target="LuvTsgrXkjyb_PGmXndt-158" edge="1">
                    <mxGeometry width="50" height="50" relative="1" as="geometry">
                        <mxPoint x="840" y="1395.5" as="sourcePoint"/>
                        <mxPoint x="870" y="1541.5" as="targetPoint"/>
                    </mxGeometry>
                </mxCell>
                <mxCell id="LuvTsgrXkjyb_PGmXndt-149" style="edgeStyle=orthogonalEdgeStyle;rounded=0;orthogonalLoop=1;jettySize=auto;html=1;entryX=0;entryY=0;entryDx=0;entryDy=15;entryPerimeter=0;strokeWidth=2;" parent="1" source="LuvTsgrXkjyb_PGmXndt-141" target="LuvTsgrXkjyb_PGmXndt-144" edge="1">
                    <mxGeometry relative="1" as="geometry"/>
                </mxCell>
                <mxCell id="LuvTsgrXkjyb_PGmXndt-150" style="edgeStyle=orthogonalEdgeStyle;rounded=0;orthogonalLoop=1;jettySize=auto;html=1;entryX=0;entryY=0;entryDx=0;entryDy=15;entryPerimeter=0;strokeWidth=2;" parent="1" source="LuvTsgrXkjyb_PGmXndt-141" target="LuvTsgrXkjyb_PGmXndt-145" edge="1">
                    <mxGeometry relative="1" as="geometry"/>
                </mxCell>
                <mxCell id="LuvTsgrXkjyb_PGmXndt-151" style="edgeStyle=orthogonalEdgeStyle;rounded=0;orthogonalLoop=1;jettySize=auto;html=1;entryX=0;entryY=0;entryDx=0;entryDy=35;entryPerimeter=0;strokeWidth=2;dashed=1;" parent="1" source="LuvTsgrXkjyb_PGmXndt-141" target="LuvTsgrXkjyb_PGmXndt-146" edge="1">
                    <mxGeometry relative="1" as="geometry"/>
                </mxCell>
                <mxCell id="LuvTsgrXkjyb_PGmXndt-152" value="" style="endArrow=none;dashed=1;html=1;rounded=0;entryX=0;entryY=0;entryDx=0;entryDy=0;exitX=1;exitY=0.5;exitDx=0;exitDy=0;strokeWidth=2;" parent="1" source="LuvTsgrXkjyb_PGmXndt-144" target="LuvTsgrXkjyb_PGmXndt-138" edge="1">
                    <mxGeometry width="50" height="50" relative="1" as="geometry">
                        <mxPoint x="670" y="1468" as="sourcePoint"/>
                        <mxPoint x="885" y="1380" as="targetPoint"/>
                    </mxGeometry>
                </mxCell>
                <mxCell id="LuvTsgrXkjyb_PGmXndt-153" value="" style="endArrow=none;dashed=1;html=1;rounded=0;entryX=1;entryY=0.5;entryDx=0;entryDy=0;exitX=0;exitY=1;exitDx=0;exitDy=0;strokeWidth=2;" parent="1" source="LuvTsgrXkjyb_PGmXndt-138" target="LuvTsgrXkjyb_PGmXndt-144" edge="1">
                    <mxGeometry width="50" height="50" relative="1" as="geometry">
                        <mxPoint x="835" y="1486" as="sourcePoint"/>
                        <mxPoint x="670" y="1468" as="targetPoint"/>
                    </mxGeometry>
                </mxCell>
                <mxCell id="LuvTsgrXkjyb_PGmXndt-154" value="&lt;b&gt;&lt;font style=&quot;font-size: 16px;&quot;&gt;Client&lt;/font&gt;&lt;/b&gt;" style="text;html=1;align=center;verticalAlign=middle;resizable=0;points=[];autosize=1;strokeColor=none;fillColor=none;" parent="1" vertex="1">
                    <mxGeometry x="95" y="1562" width="70" height="30" as="geometry"/>
                </mxCell>
                <mxCell id="LuvTsgrXkjyb_PGmXndt-155" value="" style="endArrow=none;dashed=1;html=1;rounded=0;entryX=1;entryY=0.5;entryDx=0;entryDy=0;exitX=1;exitY=0;exitDx=0;exitDy=0;strokeWidth=2;exitPerimeter=0;" parent="1" source="LuvTsgrXkjyb_PGmXndt-141" target="LuvTsgrXkjyb_PGmXndt-157" edge="1">
                    <mxGeometry width="50" height="50" relative="1" as="geometry">
                        <mxPoint x="545" y="1469" as="sourcePoint"/>
                        <mxPoint x="600" y="1444" as="targetPoint"/>
                    </mxGeometry>
                </mxCell>
                <mxCell id="LuvTsgrXkjyb_PGmXndt-156" value="" style="endArrow=none;dashed=1;html=1;rounded=0;entryX=0;entryY=0.5;entryDx=0;entryDy=0;exitX=0;exitY=0;exitDx=0;exitDy=0;strokeWidth=2;exitPerimeter=0;" parent="1" source="LuvTsgrXkjyb_PGmXndt-141" target="LuvTsgrXkjyb_PGmXndt-157" edge="1">
                    <mxGeometry width="50" height="50" relative="1" as="geometry">
                        <mxPoint x="600" y="1494" as="sourcePoint"/>
                        <mxPoint x="545" y="1469" as="targetPoint"/>
                    </mxGeometry>
                </mxCell>
                <mxCell id="LuvTsgrXkjyb_PGmXndt-157" value="&lt;span style=&quot;font-size: 16px;&quot;&gt;&lt;b&gt;OLLAMA&lt;/b&gt;&lt;/span&gt;&lt;div&gt;&lt;span style=&quot;font-size: 16px;&quot;&gt;&lt;b&gt;(LLAMA3.1 andc Flacon7)&lt;/b&gt;&lt;/span&gt;&lt;/div&gt;" style="ellipse;whiteSpace=wrap;html=1;strokeWidth=2;fillColor=light-dark(#FFFFFF,#330033);" parent="1" vertex="1">
                    <mxGeometry x="207.5" y="1369.5" width="165" height="94" as="geometry"/>
                </mxCell>
                <mxCell id="LuvTsgrXkjyb_PGmXndt-158" value="" style="rounded=0;whiteSpace=wrap;html=1;strokeWidth=2;container=0;" parent="1" vertex="1">
                    <mxGeometry x="855" y="1396.5" width="205" height="60" as="geometry"/>
                </mxCell>
                <UserObject label="https://www.npr.org/sections/news/" link="https://www.npr.org/sections/news/" id="LuvTsgrXkjyb_PGmXndt-159">
                    <mxCell style="text;whiteSpace=wrap;fontColor=light-dark(#000000,#66B2FF);" parent="1" vertex="1">
                        <mxGeometry x="860" y="1411.5" width="220" height="40" as="geometry"/>
                    </mxCell>
                </UserObject>
                <mxCell id="LuvTsgrXkjyb_PGmXndt-160" value="&lt;font style=&quot;font-size: 16px;&quot;&gt;Tools&lt;/font&gt;" style="shape=process;whiteSpace=wrap;html=1;backgroundOutline=1;fillColor=#fad9d5;strokeColor=#ae4132;strokeWidth=2;" parent="1" vertex="1">
                    <mxGeometry x="720" y="1488" width="80" height="50" as="geometry"/>
                </mxCell>
                <mxCell id="LuvTsgrXkjyb_PGmXndt-161" value="" style="sketch=0;aspect=fixed;pointerEvents=1;shadow=0;dashed=0;html=1;strokeColor=#ae4132;labelPosition=center;verticalLabelPosition=bottom;verticalAlign=top;align=center;fillColor=#fad9d5;shape=mxgraph.mscae.enterprise.tool;" parent="1" vertex="1">
                    <mxGeometry x="690" y="1463" width="50" height="45" as="geometry"/>
                </mxCell>
                <mxCell id="LuvTsgrXkjyb_PGmXndt-162" value="" style="endArrow=none;dashed=1;html=1;rounded=0;entryX=0;entryY=0;entryDx=0;entryDy=0;exitX=1;exitY=0;exitDx=0;exitDy=0;strokeWidth=2;" parent="1" source="LuvTsgrXkjyb_PGmXndt-160" target="LuvTsgrXkjyb_PGmXndt-164" edge="1">
                    <mxGeometry width="50" height="50" relative="1" as="geometry">
                        <mxPoint x="800" y="1657" as="sourcePoint"/>
                        <mxPoint x="870" y="1398" as="targetPoint"/>
                    </mxGeometry>
                </mxCell>
                <mxCell id="LuvTsgrXkjyb_PGmXndt-163" value="" style="endArrow=none;dashed=1;html=1;rounded=0;entryX=0;entryY=1;entryDx=0;entryDy=0;exitX=1;exitY=1;exitDx=0;exitDy=0;strokeWidth=2;" parent="1" source="LuvTsgrXkjyb_PGmXndt-160" target="LuvTsgrXkjyb_PGmXndt-164" edge="1">
                    <mxGeometry width="50" height="50" relative="1" as="geometry">
                        <mxPoint x="840" y="1482" as="sourcePoint"/>
                        <mxPoint x="870" y="1628" as="targetPoint"/>
                    </mxGeometry>
                </mxCell>
                <mxCell id="LuvTsgrXkjyb_PGmXndt-164" value="" style="rounded=0;whiteSpace=wrap;html=1;strokeWidth=2;container=0;" parent="1" vertex="1">
                    <mxGeometry x="855" y="1483" width="205" height="60" as="geometry"/>
                </mxCell>
                <UserObject label="https://www.npr.org/sections/news/" link="https://www.npr.org/sections/news/" id="LuvTsgrXkjyb_PGmXndt-165">
                    <mxCell style="text;whiteSpace=wrap;fontColor=light-dark(#000000,#FF6666);" parent="1" vertex="1">
                        <mxGeometry x="860" y="1498" width="220" height="40" as="geometry"/>
                    </mxCell>
                </UserObject>
                <mxCell id="LuvTsgrXkjyb_PGmXndt-166" value="" style="endArrow=none;dashed=1;html=1;rounded=0;strokeWidth=2;entryX=0;entryY=1;entryDx=0;entryDy=0;exitX=1;exitY=0.5;exitDx=0;exitDy=0;" parent="1" source="LuvTsgrXkjyb_PGmXndt-145" target="LuvTsgrXkjyb_PGmXndt-160" edge="1">
                    <mxGeometry width="50" height="50" relative="1" as="geometry">
                        <mxPoint x="540" y="1533" as="sourcePoint"/>
                        <mxPoint x="710" y="1563" as="targetPoint"/>
                    </mxGeometry>
                </mxCell>
                <mxCell id="LuvTsgrXkjyb_PGmXndt-167" value="" style="endArrow=none;dashed=1;html=1;rounded=0;entryX=1;entryY=0.5;entryDx=0;entryDy=0;exitX=0;exitY=0;exitDx=0;exitDy=0;strokeWidth=2;" parent="1" source="LuvTsgrXkjyb_PGmXndt-160" target="LuvTsgrXkjyb_PGmXndt-145" edge="1">
                    <mxGeometry width="50" height="50" relative="1" as="geometry">
                        <mxPoint x="735" y="1503" as="sourcePoint"/>
                        <mxPoint x="650" y="1479" as="targetPoint"/>
                    </mxGeometry>
                </mxCell>
                <mxCell id="LuvTsgrXkjyb_PGmXndt-168" value="&lt;font style=&quot;font-size: 16px;&quot;&gt;Tools&lt;/font&gt;" style="shape=process;whiteSpace=wrap;html=1;backgroundOutline=1;fillColor=#d5e8d4;strokeColor=#82b366;strokeWidth=2;gradientColor=#97d077;" parent="1" vertex="1">
                    <mxGeometry x="720" y="1572" width="80" height="50" as="geometry"/>
                </mxCell>
                <mxCell id="LuvTsgrXkjyb_PGmXndt-169" value="" style="sketch=0;aspect=fixed;pointerEvents=1;shadow=0;dashed=0;html=1;strokeColor=#82b366;labelPosition=center;verticalLabelPosition=bottom;verticalAlign=top;align=center;fillColor=#d5e8d4;shape=mxgraph.mscae.enterprise.tool;gradientColor=#97d077;" parent="1" vertex="1">
                    <mxGeometry x="690" y="1547" width="50" height="45" as="geometry"/>
                </mxCell>
                <mxCell id="LuvTsgrXkjyb_PGmXndt-170" value="" style="endArrow=none;dashed=1;html=1;rounded=0;entryX=0;entryY=0;entryDx=0;entryDy=0;exitX=1;exitY=0;exitDx=0;exitDy=0;strokeWidth=2;" parent="1" source="LuvTsgrXkjyb_PGmXndt-168" target="LuvTsgrXkjyb_PGmXndt-172" edge="1">
                    <mxGeometry width="50" height="50" relative="1" as="geometry">
                        <mxPoint x="800" y="1741" as="sourcePoint"/>
                        <mxPoint x="870" y="1482" as="targetPoint"/>
                    </mxGeometry>
                </mxCell>
                <mxCell id="LuvTsgrXkjyb_PGmXndt-171" value="" style="endArrow=none;dashed=1;html=1;rounded=0;entryX=0;entryY=1;entryDx=0;entryDy=0;exitX=1;exitY=1;exitDx=0;exitDy=0;strokeWidth=2;" parent="1" source="LuvTsgrXkjyb_PGmXndt-168" target="LuvTsgrXkjyb_PGmXndt-172" edge="1">
                    <mxGeometry width="50" height="50" relative="1" as="geometry">
                        <mxPoint x="840" y="1566" as="sourcePoint"/>
                        <mxPoint x="870" y="1712" as="targetPoint"/>
                    </mxGeometry>
                </mxCell>
                <mxCell id="LuvTsgrXkjyb_PGmXndt-172" value="" style="rounded=0;whiteSpace=wrap;html=1;strokeWidth=2;container=0;" parent="1" vertex="1">
                    <mxGeometry x="855" y="1567" width="205" height="60" as="geometry"/>
                </mxCell>
                <UserObject label="https://www.npr.org/sections/news/" link="https://www.npr.org/sections/news/" id="LuvTsgrXkjyb_PGmXndt-173">
                    <mxCell style="text;whiteSpace=wrap;fontColor=light-dark(#000000,#33FF33);" parent="1" vertex="1">
                        <mxGeometry x="860" y="1582" width="220" height="40" as="geometry"/>
                    </mxCell>
                </UserObject>
                <mxCell id="LuvTsgrXkjyb_PGmXndt-174" value="" style="endArrow=none;dashed=1;html=1;rounded=0;strokeWidth=2;entryX=0.5;entryY=0.67;entryDx=0;entryDy=0;exitX=1;exitY=0.5;exitDx=0;exitDy=0;entryPerimeter=0;" parent="1" source="LuvTsgrXkjyb_PGmXndt-146" target="LuvTsgrXkjyb_PGmXndt-169" edge="1">
                    <mxGeometry width="50" height="50" relative="1" as="geometry">
                        <mxPoint x="650" y="1543" as="sourcePoint"/>
                        <mxPoint x="730" y="1568" as="targetPoint"/>
                    </mxGeometry>
                </mxCell>
                <mxCell id="LuvTsgrXkjyb_PGmXndt-175" value="" style="endArrow=none;dashed=1;html=1;rounded=0;entryX=1;entryY=0.5;entryDx=0;entryDy=0;exitX=0;exitY=1;exitDx=0;exitDy=0;strokeWidth=2;" parent="1" source="LuvTsgrXkjyb_PGmXndt-168" target="LuvTsgrXkjyb_PGmXndt-146" edge="1">
                    <mxGeometry width="50" height="50" relative="1" as="geometry">
                        <mxPoint x="730" y="1518" as="sourcePoint"/>
                        <mxPoint x="650" y="1543" as="targetPoint"/>
                    </mxGeometry>
                </mxCell>
                <mxCell id="LuvTsgrXkjyb_PGmXndt-177" value="&lt;b&gt;&lt;font style=&quot;font-size: 16px;&quot;&gt;MCP servers&lt;/font&gt;&lt;/b&gt;" style="text;html=1;align=center;verticalAlign=middle;resizable=0;points=[];autosize=1;strokeColor=#BD7000;fillColor=#f0a30a;fontColor=#000000;" parent="1" vertex="1">
                    <mxGeometry x="440" y="1385.5" width="120" height="30" as="geometry"/>
                </mxCell>
                <mxCell id="LuvTsgrXkjyb_PGmXndt-125" value="" style="shape=image;verticalLabelPosition=bottom;labelBackgroundColor=default;verticalAlign=top;aspect=fixed;imageAspect=0;image=data:image/png,iVBORw0KGgoAAAANSUhEUgAAAh0AAAJlCAYAAAB+EUBLAAAAAXNSR0IArs4c6QAAAARnQU1BAACxjwv8YQUAAAAJcEhZcwAADsMAAA7DAcdvqGQAAP1pSURBVHhe7J13fBzF+f8/u3tV0qn33mzLvXeDjW0wLRgbbFrgRyCJ6WCHEFoAA04CgZAEAoQeSiCYZkrABjdsbFxwt2RbtprVezvp2u78/sjNflerbutu96R5v17zsrWzdzc7O/PMM8888wwHgIDBYDAYDAbDx/DqCwwGg8FgMBi+gCkdDAaDwWAw/AJTOhgMBoPBYPgFpnQwGAwGg8HwC0zpYDAYDAaD4ReY0sFgMBgMBsMvMKWD4RM4jlNfkuE4rsd89PJ5BoPhO/rSP9GP+xgMJRyL08EYCDiOAyH/a0pGoxHBwcEQRVF9GyRJgiRJ8Hg8cLvd6mwZQRBACIEkSeosBoNxhij7qRqqRPA8D6PRCIPBAJ7nO9zP8zw8Ho+caH9Wfkd3389ggCkdjLNBEASIogibzQabzYaIiAiEhoYiKSkJsbGxMJlM8r2EELjdbrS1taG1tRV2ux3Nzc1wOBxwOBxoa2tDQ0MDmpqaQAiBIAiAV0lhQozBGBiUlglBEODxeGA2mxEVFYXw8HCEhITAZrPJfxuNxg6fCQoKQltbG2pqalBfX4+mpiY0NzejoaEBLS0taG9vl/srU0AYXcGUDsYZYTAYkJaWhpiYGGRkZGDy5MmYOnWqfM1oNMJoNHb4jCiKkCQJoijC7XajubkZVVVVKCsrQ1lZGXJzc3HixAmUlpaioqICra2t8meY8GIwBgZBEBASEoLw8HAkJiYiMzMTY8eOxYgRIzBs2DBERUXBZrMhODgY8E4Y1Mso7e3tcDqdqKysREFBAX766SccO3YMp06dQkVFBaqqquB0Ojt8hsEAUzoYvaGerdhsNqSnpyMtLQ2LFi3CrFmzMG7cOAiC0EEwiaIoWyvUKJUIatKlSykNDQ348ccfsWvXLuzZswfHjh1DZWUlXC4XeP5/LkhsyYXB6B5lP6R9i1oP4+PjkZ6ejjFjxmDatGmYO3cu4uPjYTAYYDAYuu2zvUEIgSiKyMvLw65du7Bx40acOHEChYWFaGxsBCEEPM/LfVctVxhDB6Z0MHqECoqoqChkZmZi2rRpuPTSSzFt2jQEBwdDEARZUKlnQ2eD2+1GYWEhvvrqK2zYsAF5eXmora2VfUGY4sFgdA/1iaKKREREBMaMGYPzzjsPixYtQnZ2NqxWa6fJwkDR0tKCvLw8fPjhh/jxxx+Rm5uL9vZ2OBwOQCFXGEMPpnQwuoXjOAQFBWHEiBGYN28err/+eowdOxY8z8PpdMJsNne6f6ARRRGnT5/Gl19+ia+++gpHjx5FZWVlj06oDMZQh+M4CIKAuLg4jBs3DpdccgkuvPBCpKSkwGQywe12d1r+HAjcbjd4npf9vZxOJ3Jzc/Huu+/ixx9/xKFDh+BwOJiVYwjDlA5Gl3Ach8zMTJxzzjlYvnw55syZA5vNJuc7nc4OjqL0MwOFeh3Z4XDgxIkT+Oyzz/Dll18iNzcXdru9w2cYDMb/CAkJwejRo3HJJZdg6dKlyMrKgiAIMBqNIITA4/H4ROnoCqfTCZ7nsX37drz88svYvn07Ghoa4HQ6mbVjCCIAeEx9kTH0UA7wQUFBmDlzJu666y7cfvvtGDNmDCwWS4f76RqtkoFUOqDy3aDr0ZMmTcKIESMgiiJqa2vR2toK+OC3GYxAxGw2IyEhARdffDHuueceXHHFFUhOTpaXUWg/OVPfjZ5QWi/UfiWCICAtLQ3nnXcejEYjWltbUVtbC7fbLd+r3p7LGJwwpYMhw3EcYmNjsWTJEjz88MO4+OKLERQUJAsFpSBRCjGlMBsoOG+8APX3m81mZGVlYdy4cbBYLKipqUFDQ4OsBDGhxRiqBAcHY/Lkybj55ptx6623Yvz48bBYLHL/UfYnX6DuqxTl71qtVsycORMjR45EW1sbCgoK4Ha7IQiC3H+V39NbYgQeTOkYwhgMhg6D9PDhw/HrX/8aDzzwANLS0nxuyTgbIiIiMGHCBCQmJqKxsRF1dXVwuVxyGZkCwhhKREREYMGCBbjnnnuwbNkyREdH63ZgFgQBSUlJmDNnDiRJQkFBAZxOZwerB2PwwpSOIQz1IDcYDBg5ciRWrVqFW265BaGhoV0KLPXfWkIIgcViwahRozBs2DC0tbV1cDDtKhoqgzEYiY+PxxVXXIF77rkHs2bNkn2t9NRfKcpJQUhICBYsWACO41BSUoKampou72UMLpjSMYRQd2KO42A0GjF9+nQ88sgjuPLKK+XQx+p76f16gi6pJCUlyX4ehYWFaGhoABRLNMziwRgsKPsgx3FIT0/HddddhxUrViAnJ0e+rre+qka5jDJlyhSEhYXh9OnTqKysDIjyM84cpnQMEWgnpv9SxWL27Nl4/PHHsWDBAhgMhh47e095/kYpmDiOQ3R0NLKzs+Uttq2trbJgY0oHY7Cg7IPp6em44YYb8Itf/ELenUJ9I/QOfQ66i2bYsGFITExEaWkpysvLIUmSfE93DqqMwIQpHUMUk8mEmTNn4vHHH8fMmTOBPni067nDS5KE4OBgZGRkgOM4FBcXMwdTxqAlOzsbN998M2644QakpKTIZ6TouY92hVJBGjFiBNLT03H8+HGUlpbKy79KAu35GJ1hSscQhSocc+fOlQ996g09d3jJe3JteHg4srKyIIoiioqK0NraGpDCmMHoCs67pPLLX/4SN954IxISEnq1UOoV5USAWmhSUlKQlJSE0tJSlJWVMaVjEMKUjiGGyWTCxIkT8fjjj2PevHkQRRG8N4Jgb+i5w9NnMBqNiIiIQEpKCtrb21FUVAS73c4cSxmDgtTUVNx44424/vrrER8fD84bA4MuJQYSyuUTjuPkpZb09HRkZmZi//79qKqqUn8s4J6T0RGmdAwxMjIycN999+Gyyy4Dz/Ny6gt67+zK8kVGRiI5ORnNzc0oLCxk0UsZAU98fDyuvfZa3HzzzUhKSgLP8zAYDEAA9M2+QOWQwWBAYmIiIiMjsW/fPjQ3N6tvZQQwTOkYQlitVtxzzz24+uqrYbVa+y2o+nu/lhBCEBsbi4SEBJSWlqK4uJid18IIWMLDw3HFFVfg1ltvRXZ2dqfJQiD1TTXKsouiCI7jIEkSRo8eDY/HgwMHDrBJwyCCKR1DiGuvvRYrV66UzbL95Uw+oxV0LTg+Ph5hYWHIz89HWVkZcyhlBBxWqxWLFi3CXXfdhXHjxsn9kBtkkTk5RdRUQgiMRiNycnLQ3NyM3bt3q29nBChM6RgCCIKAc845B0888QTS09P75L/RFYEk3KjgAoCEhAQIgoATJ06gvr5efn6mgDD0jsFgwLRp07By5Uqce+65cpulW0oDqU/2Bfo8kiSB53k5AODhw4dRXFwsTyY4b4whtaMpQ/8wpWMIkJqaij/+8Y+YMWNGh5MllTOlvqRAglPMmoxGIzIzM+HxeHD8+HG0tbWBEMKUDobuSU9Px69//WssWbJEPrYgUPtkV3QnY+jSkSRJsFgsSEpKwt69e1FTUwPeuwVe6UB7ponhf5jSMcgxm8244447sHz5cgQFBamzBz1UuFitVqSlpaGyshKnTp1Ce3s7UzoYukM5EIaEhGDp0qX4xS9+gYiICHmgVTOYB0+e52E0GpGUlARRFLF9+3ZIkgRJklj/DVCY0jGI6Er4LFq0CA899BBiY2O7zB8qEEIQHh6OiIgIHD9+HCUlJcw0y9AtZrMZc+bMwW233YbRo0cDCgVaTVfXBhPUvyM5ORmFhYU4cuSInDfYn30wwpSOQQQ1O8Lrx5GVlYXVq1djzJgxHZZVhiK0XmJiYiBJEo4dO4ba2lqACS6GzhAEASNGjMCKFSuwaNEimEymTrtVKIO97VKLBvXviI+Px86dO9HU1NTBv4MRODClY5BisVhw++23Y9myZQgKCpIds4YqVDDx3gPiKisrcfLkSTgcDmamZegGjuMQExODZcuW4ec//zlsNlunrbHKNBRQ9t2oqChwHIedO3fC5XJ1yGcEBkN3FBqEUKcqAJgwYQKWL18Oq9Uqe7oPdTivc2lsbCyWLFmC8ePHd7lGzmBohcFgwKRJk3DllVcO+SVRqBQKjuMQFBSEpUuXYvr06WyyEKAwpWMQQZdXbDYbbrrpJmRmZsrnMgxlK4cSWhdTpkzBxRdfjISEBPUtDIZfUVotUlNT8bOf/QyjRo3qdkllKCMIAhISEnDjjTciKipKnc0IAFiLHkRQzX/hwoXyWjBTODpDZ0yLFy/G7Nmz+3TYHYPhC6jCwXEcQkNDMX/+fFx88cVym2Sz+Y5w3i3wc+bMwZVXXilfZ/UUOLDRaBBBvKG/b7zxRsTHx6uzGQokSUJ2djauuOIKZGdnq7MZDL9ACJEdIkeOHIklS5YgJSVFnihwiiB3QxWlYgavRTcmJgY///nPkZGRIS8rU0uvMjH0B1M6BhlXXHEFZs2axXwVeoHWz/z583HuuefCZrOpb2Ew/EZ4eDjOOecczJw5E2DOkd1C68VsNmPEiBFYunSprJgxmRcYMKVjEJGeno5rrrkGkZGRLAZFH5AkCTabDYsXL8awYcPU2QyGz+G9wa9ycnJw2WWXITw8XB5Y1TN8xv+g9REeHo4lS5Zg+PDhrK4CCKZ0BDBGo7GDdn/ddddh9OjR4L3hv/WA0sSpR3Mnx3GYPn065s2bh/DwcNl5Ty/1xxhc0GUAiiRJiImJwYIFCzBu3Di5j7D21zMcx8FgMGDkyJG44oorOixTMfQNUzoCGEmSIIoiACAxMRE/+9nPEBoaqtuYHHpTOnieh8FgQHh4OC6//HJkZ2ezw+AYfoXneYwePRqXXXYZrFar7J/A6B2O4xAeHo6LLroIqampsixk6Bv9jUyMPqPsZEuXLkVGRobuZurKcnDetVc9OnmNHz9e9u3QW9kYgwf1jDw+Pl62chiNRl1OFvQMz/MYNmwYrrzyym59OvQob4YyrIUHOLw32NUll1yC0NBQ3SgbFEIIysvL8cUXX2Dr1q1oa2uTlQ89ERQUhCVLliAnJ0d3ZWMMTgRBwLBhw3DRRRfJJ6bqbYmgra0N27ZtwxdffIHS0lJdWhMiIyNx4YUXdhlMTdmXWb/WBywM+iDgyiuvxLJlyxAZGamLmZIoinI5Dhw4gOeeew7//ve/sWPHDrS2tiIlJQU2m00WEHqImEqVt+LiYuTl5aG9vV19C4Nx1lCfDkIIYmJicO211+Kyyy7rYJ3Uui9QysvL8eabb+KNN97A+vXrcezYMSQlJSEuLg6cjpw2BUEAx3EoLy/HgQMHmHKhc5jSEcDwPI/w8HD87ne/w5gxY+RgYFrj8Xjgdruxc+dO/OEPf8B///tfnD59GgUFBcjPz0dbWxuysrIQGhqqq6UgQRBgMpmwZ88elJeXq7MZjLOGDtYcx2HixIm45557kJSUJPcDvfSFU6dO4YUXXsCbb76Jo0ePorS0FHl5eSgqKkJKSgri4+N1dYikwWCAIAj45ptvIEmS7ixGjP+DKR0Bzvz58/GLX/wCUVFRuhnAOY7D/v37sXr1aqxfvx5tbW2yEGhsbMTJkyfhdruRk5OD4OBg2XlO67ITQhAeHo7jx4/j+PHjcDqd6lsYjLOGEIKwsDBcfvnluOKKK3Q1eANAYWEh/va3v+H9999HRUUFPB4P4J1MnDp1CsXFxRg7dixiY2O79aPwJ8Qbo8NkMuHgwYM4efKk+haGjmBKRwAjCAJWrlyJOXPm6MqBtKSkBE8++STWr18PURQ7mTtbW1tRXFwMo9GIcePGyV77Wi8NcRwHk8kEj8eDXbt2oba2Vn0Lg3FW0P6ZnZ2Nu+66C1lZWbros5Smpib8/e9/xzvvvIPq6mp1NuBddqmvr8eECRPkU1+1RJIkGAwGhISEwOFw4KuvvtK8TIzu0VbKM/oFx3HyzEIQBEyePBlTp06FyWSSD3bTmoaGBvzzn//EJ598AqfT2UnhoJSXl+Odd97Bhx9+CI/HA04nzqU8z2POnDkYO3YsLBYLBEGQ14x7SgxGXyCEwGKxYOrUqZg4caI6WxNEUYQkSWhtbcVHH32ETz/9FLW1tXJ/VLZvjuMgiiI2bdqE119/HY2NjZr3W1o+s9mMGTNmYNiwYZqXidE9TOkIIIjXu51aNM477zwkJibqZv2ytbUVGzZswAcffACXywXSw1Y1QgiKi4vx73//G1u2bOnSIqIVUVFRWLhwIRISEmQhq5eyMQKfpKQkLFy4EGFhYbpQWKnCv337drz99tsoKioC8S55qvswlUEtLS1Yu3YtNm7cCIfD0eH7/I3SQpqamoqLL764Qz5DXzClI8Ag3vXL6OhozJ07Vw6brLXiIUkSTp8+jRdeeAFFRUV9EqYulwuHDh3Cm2++iZKSkk4CTksWLFiAzMxMWcnTeumHMTgwm80YP3485s+fD+hkGyfP8yguLsbbb7+Nffv29erLRAiB2+1GRUUF/vGPf6CsrEw3W2lDQ0Nx3nnnISgoSJ3F0AlMkgYgkiRhzJgxGDFiBEwmE3ie13w23tTUhPfeew+7du2StwT2hebmZnz//ff49NNP0d7e3ufP+ZqMjAzMnDkTMTExfVKgGIyeoG0oMjISM2bMkE+B1rq9i6IIu92Ojz76CNu2bYPdbpfzeiobVTz27t2Lt956Cw0NDT3e7y8MBgNGjBiBKVOmqLMYOoEpHQEGFV7nnXee7MSltV+B2+3G7t278dZbb8HtdvdZ+NAy19TU4LPPPsOOHTsAr1LV1+/wFXT5KioqShflYQQ+HMchOTkZ559/PuAduP3dbyVJknejwFuGTZs24YsvvkBlZaXczpXtXSlj1PLG5XLhnXfewaFDh3q1kPgDWseLFi3S3a4gxv9gSkeAwXEcYmNjMXv27A4Btqizoz+hgslut2Pt2rUoKysDvIKtr3Ben4kjR47g008/RXV1tS524YiiiKlTp2L48OEwmUzqbAajT3Deg8kIIQgODsa4ceMwcuRIOZaEv9u5JEkdzheqq6vD559/jgMHDsgO3VA5j/aEy+VCeXk5/v3vf6Ompkad7XckSUJwcDBmzZqFiIgIdTZDBzClI8AghODcc89FSkqK7GegxYwJ3g7ucDjw448/4r///a86u1+0trZi+/bt2LRpkzpLE3ieh81mw4IFC+QIjAxGfyGEyIN5fHw85s2bJ2/L1sJ6ptzlxnEcvvvuO2zfvh12ux0Gg6GD7xLXRwuqx+PBZ599hv3798Plcqmz/Qotc2pqKmbOnKnOZugApnQEGIQQXHDBBYiNjZX/7otg8AWEELS0tOC9994765gWkiShsLAQX3/9NYqKitTZfocK3wULFiAhIQFQzP7ov0Snh9cx9IfBYEBWVpY8EFJrnhbth/5eaWkp1q1bh1OnToF4d6XQvP6Wq7m5GR988AGam5vVWX6FljkmJgazZ89WZzN0AFM6AgiO45CRkYFx48YhJCREne13CCE4efIkvv322w7rxGcCIQR2ux07duyQQxl7PB7ZDN0fAThQiKKI1NRUTJw4EeHh4fKhXFqUhRGYcN7YOmazGaNGjUJSUhKg0XIohf7uunXrsHv3brnvdqVEK6911e7pd4miiPXr1+PQoUNoa2uTr/kbWkar1YqJEyfqIngZoyNM6QggCCGYNGkSoqOjO13XgubmZvzrX/9CQ0PDWXds+vnTp09j48aNKCws1MUgb7FYMGvWLNhsNlmIal0mRuBACIEoivIR9haLRc6jSwFn23fOhIKCAmzcuBGVlZXgvIfQ4QxlCbXYNDQ04P3335fjdmgRIp3zhg/geR7JycmYPHmy+haGxjClI8CYN28eIiMj1ZfPSFicDZIkoby8HP/9738HxPGTlt/tduPgwYP47rvvZIFMNFpCotFIzznnHCQlJcnl0KIsjMDFYDAgNTVVN9s4PR4PvvrqK+zdu1eOGjxQ8uO7775DQUHBWVs+zxSlIhcREYFp06YN2LMxBgamdAQQ0dHRmDBhAmw2mzrL77S1teGzzz5DWVkZ3G73WQ3EaqFQVFSErVu36uak16SkJAwfPlwOOKSlaZwRWHAch/DwcEyePBlxcXHqbL/j8XhQWFiILVu2yDvFBpLS0lJ89dVXmjuUAkBYWBgmT56sC3nJ+D8GtsUxBhSj0dhBKEyePBnR0dHy7F89WPsLl8uF2tpafPTRR3IZzqQs3T2D2+3Gvn37sHnzZvA8r4mZVonRaMSMGTMQFRXVZXkZjJ6IiYnBrFmz5K3kytm4v5VXnuexdetWHD58uMezkbqD9tnu+i7Hcfj0009RX1+vzvILyvo0m83IzMzEqFGjNJchjP+DKR06RrlvHgAmTpwo7z3vrtP7Evp7Ho8He/fuxfHjx8HzPCRJGnCnsZKSEmzbtg0NDQ3qLE2YO3cuIiMj+xVtlcHgOA4xMTGYOXMmPB6P5haAxsZG7Ny5E5WVlTAYDB3yBqJdi6KI/Px87N27F62trQPynWcKIQShoaEYO3asOouhIUzp0DHKDmswGDBjxgzZn8PfMyQoftPlcuHTTz+Vd5f4QrA4HA4cOnQIe/fuVWdpQlpaGoYPHw6j0djljJXB6IrQ0FBMnjwZsbGxMBgMnQZ6f7Njxw4cOHAADoejV6vFmSBJkrz06nQ6Nekbyj4ZEhKCKVOmwGw2M2uHTmBKh86hFoT09HSkpqbKoX21GuxEUURtbS2+/fZbnykc8CpceXl52Lhxo2ZOaUqsVivmzJmDkJAQnz0zY/ARHh6O6dOng/PuEBloH4r+8sMPP+DEiRPycQW+kiEbNmxATU2NvOVdK4KDgzFs2DDYbDbWb3WCtj2A0SNKzXzixIld7lrxJ1RIbdmyBc3NzT7vxI2NjTh48CDy8vLUWZowZcoUOSgbg9EVHMfJEwOe5xEdHY2pU6d26Cu+sDB0B50YSJKEAwcO4MCBA2htbQUGaDmlO+rr67Fp0ya0tbX55Tm7gud5WK1WREdHY/jw4ZpN1BgdYUqHjlH6SYwfPx6hoaEd8v0Nx3FoaWnB2rVr4Xa71dkDChUQ+fn52LNnjzrb7xBCMHr0aGRlZcnxQxiM7uB5HkFBQcjIyEBycjI4r/O3L62DXaHczr5lyxYcPnxYzvOlMiBJEjZv3gyPxwOe5zW1VkZFRWHcuHED7nfGODOY0hEAhISEYOzYsR22fvlKWPRGeXk5du3a5XOTKc/zMBgMKC4uxo4dO9DY2Ki+xa94PB6EhoZizJgxiIqK0txMztAnxHvkOyEEISEhmDp1qnxgoLLP+rv/1tbW4sCBA6isrFRnDRj0maiF9vvvv0dJSUmHPC2IiorCtGnTWJ/VCewt6BjOG0I5ISEBMTExmjuhOZ1ObNu2DU1NTeqsAYeuBYuiiOPHj+PQoUPqW/wOIUQ3cVIY+ofG50A/T14eSIg3IupPP/2E/Px8n5aDWieNRiM4jkN1dTX2798Ph8MBg8GgmbXDZDIhIyMDiYmJ8jVaVrbc4n+Y0qFzRFHEtGnTdOFL4HA48PXXXwOKAFm+6rzUFM3zPPLz87Fr165O+f6EPuOECRMQEREx4M/LGFxwHIfY2FhMnz5dbqu+7C89wfM89u3bh+PHj/u039DlGqfTKSsYVF5Qy6U/oVYnjuMQGhqKYcOGyfVOnXp9WR+MrmFKh46h5sBhw4YhODhY0w5CCEFzczO+//57CILgFwFCFY/6+nocPXpUDjhEhQkVcv6qF0IIEhMTkZSUJJvMGYyuCAkJQU5ODoKDgwGNtrjDO2kpLCzEoUOH/GKhhKLfAsDWrVs1i7XDKawuwcHBGD58uCy3/CUzGJ1hSofOMZvNyMrK0vxUWY/Hg61bt6K+vh6iKMLpdKpv8QnEax4+ceIEDhw4AHiFiXrQ97UQ4byOgDabDZMmTdL8fTD0TUREBGbMmKG+rAm5ubmanYdSX1+Pffv2+XRZpy9ER0dj0qRJ8s4iunTL8D9M6dAxoijCZrMhPj4eVqvV77MlOpBTy8KPP/6ovsUvEEJQUFCAvXv3wu12ayLAOMVJnOPGjZP9OvxpaWEEDqGhoRg3bpz6st8hhODQoUMoKSnRxJHS5XJh69atcDgcmvRbeOsgJCQECQkJfrHQMnrG/62Q0S/Gjh2L+Ph4TaLpUSFBrQ2bNm2SB1+6HqpMvqS2thYnTpxAc3OzfM2fa+RKgT1z5kxYLBafPzMjMOF5HiEhIcjMzFRn+Z3q6mrk5eWhtrYW8PEyT3ffvWPHDnk51N/Q3zQYDIiNjUVKSopf5AWje5jSoXPo0ooWHZZCCEF+fj4KCgpkB1J/l4fuYsnLy9NkxqYkLi4OmZmZnZZ4GAzqP5CdnQ2r1arO9jvHjx9HcXGxvBvM3/0WAE6dOoWamhpNJk5UuaDWjtTUVFnp0FqODFVYresYjuMwatQohIWFaSIwqDVDkiTs3r0bHo9Htnr4uywcx6GsrAyHDh3SzEyrZNy4cQgKCmIzJkYnwsLCMH36dJjNZs3b6r59+3DixAn1Zb9SVVWF/fv3a+5DER4ejpycHHAcp/l7GcowpUPH8DyPjIwMhISEaDK40RmBJEnIzc0FNIw3AABlZWU4duwY2tvbNS0HAGRnZ7MlFkaX2Gw2jB49Whez6dLSUtTU1MhLov6WI/T59+7dC7vdrs72K8HBwUhPT9f8nQx1WO3rmISEBERGRspLGlrR2tqKzZs3a2LhoBBC4HK5cPr0aZSVlclWGK2YOnUqoqOj1ZcZDFgsFmRnZ8t/U+W9uzSQEIV/Fd21Qgjxm8KhfjY6Odi0aRNcLpcmfZaWJSwsDMOGDZPLoPXEZajClA4dExMTowsTfn19PUpLS9WXNaGiogIFBQXqy34nISFBtkCxmRODYjAYEBcXh9jYWE2WE+hyKAAUFxejrKwMnNcHS6mQ+Avqx3Hq1Cm0tLT4/feVcBwHm82G5ORkQOUczvAfrNZ1TEpKCmw2m+wE5m/cbjecTicOHDjgt8BCPcFxnBzoSEvhBe+6fVpaGiwWi+aWKIZ+CAoKwujRo2EymTooAP6EtsWjR4/i9OnT8uCqZZ9paGjAqVOnNKkPJTabDenp6TAajZqXZajClA4dExsbK/sNaDFLgTco2K5duzSfFVCLQlNTE06ePImamhpZuGpVP8OGDdOFsyBDPwQFBWH48OFwOp2a9Bnqu9HS0oKCggI0NjZq1j+gOCnbYDDg+PHjHfqKv8tECEFQUBDS09NBvEtODP/Dal3HZGdnIywsrMMaqT87qtFohNvt1sWOEfr8brcbZWVlKCsrk/Mk784ef1ob3G43xo0bh9DQUBZwaAjDcRzMZrP8d3BwMMaNG9fhbCJ/QwhBSUkJKioqZD8s2n+VssSfZfN4PPjuu+/gdDrhdrsBRVn8BcdxiIiIQFRUlCZLX4z/wZQOHWE0GuUwvfDGg6CxIPzZOZUYDAYcPHjQb4pOd0iSJG/ZraqqQlFRkSw4/C284A1PP2LECJhMJjidTs3rh6ENxHvAGfVdkCQJiYmJcnv0d7uUJAkcx6GoqAjl5eXgvBMVLfoIVM+fl5eHkJAQGI1GzQb9iIgIjB07FmCOpJrBlA4doeyINpsNCQkJmisdZWVlqK6uVl/WDEIITp8+jdzcXHnG5C/PfCWSJGHUqFEIDQ1lZlqG3P7i4+ORkJCgWZvgOA4ejwe5ubkoKirSlTKcn5+PxsZGQCXr/IkkSbK/DUMbtOkZjC6RJEkeSGNjY+XzVrSapUiShEOHDgEKL3Q90NzcjLq6Os0EF7wWIJfLhZycHBaZlAFRFGE2mzF8+HBZ4dCiz3IcB6fTiZKSEtTU1OhiNk/rQZIk5OXlyde1GPgJIYiPj0dWVpY6i+EnOAD+f/OMLqGdkxCCSZMm4R//+AemTZsmKx29ddKBFnIulwuPPPIInnrqKRiNRnl5Q2t4nsfll1+ONWvWICcnR53tF9xuN1wuF5599lm88MILqKmpUd+ie9RtymAwgPP6KERGRiIhIQGJiYkICwtDUFAQoqOjERsbi+jo6B5P2RUEAR6PB83NzWhpaUF1dTXq6+vlvysqKlBTU4OGhgY0NjbC5XJ1+Dyn2IasViyVOzH00BaVREREYOXKlXjooYc0s3TAa1G499578fnnnwO9yIWzrcOevrsr3njjDdx4440QRVGTiYwkSdizZw9+9atf4ciRI2f9/Iwzg7Ckj2Q0GgnHcUQQBHLttdeSY8eOEVEUCSGESJLUaxpo2trayLXXXtuhbOoy+zPR3+c4jpx77rlk69at6iL7DZfLRZxOJ3nrrbdIUlJSp7LqPQmCQJKSksj8+fPJ7bffTv72t7+Rjz/+mOzdu5eUlpaSlpYW0t7eTtxuNxFFkUiSRERRlP/fFyRJIh6Ph7jdbuJyuYjD4SBtbW3E5XKR1tZWUlxcTA4cOEA++ugj8tRTT5Ff/epX5PzzzyepqanEaDTKZeV5vlP56XWt26QypaSkkA8++KDP9eMrvv/+ezJnzhy5XBzHdZvUz9DfpP6+3tJvfvMb4nQ61UX2K3v37iUXXnhhp2dhyW+p0wWWNEy0c/785z8nx48flwWYWsHoKg007e3tZNKkSYTzKkIDIaTOJimFV3Z2Nnn77bfVRfYbHo+HEELInj17SFZWVqey6iVxHEdMJhNJT08nixcvJn/4wx/Il19+SYqLi0lTUxNpa2sjdrudOJ1OWcEVRZHY7XbicrlUT90RdfvrqS263W75uqRQYERRJG63mzidTuJyuYjb7Satra2kqKiIfPnll+TJJ58kF110EUlPT++giOglcRxHLBYLAUAyMjLIjh071I/ud9566y2SmZkpl6+npH6e/ib19/WWLr/8cuLxeIgoir22L19x6tQp8vOf/3xAnp+l/iftbICMTlBzN8/zGDlyJCIiIjqZwP1NaWkpOB0ekFRbW4uqqioAZ28iPhOo+Tw1NVV3Ph2CICAxMRHLli3Da6+9hr179+L48eP4+OOPcf/99+OSSy5BamoqQkJCIAgCLBYLTCaT/Ew8zyMoKKjDTip4TdNdbXnsKsH7Xmi7oUs3dAsnjSfB8zwMBgNMJhOMRiMMBgOCgoKQkJCA888/Hw8++CD++9//Ij8/H/v27cPLL7+MK664Ajk5ObrZquzxeAAAISEhGD58uDrb71RWVqKurk6WHcqkNUeOHIHD4QDP853al78QBAFJSUm6qI+hCFM6dAQVoqIoygOBVhBCUF5ejvr6ejkOhp5oaWlBbW0tPB6PJmfC0IE1JiYG8fHxfh0ADQaDPIjTATs0NBTnnXcenn32WWzfvh0HDx7Ee++9h5tuugljx46FyWTqFDmV53lZ2ejLoMRxHEwmU5+flesiRLwgCJ2uqaG/YzKZ5PIaDAaMGTMGK1aswL///W/s3r0bP/zwA5566inMmzcPFoulU7mUvyMIAoxGI3jvTie1gnSmEELg8XjA8zzi4uIQFRWlvsWv2O12FBUVdRtBWGslpL6+XvbhaW9vV2f7FOLd3hwaGoq4uDh1NsNP9Nz7GX6FeGeABoMBYWFhMBqNmggGeMtSUlKi2e/3BiEENTU1qKqq0kyAUuLj4/0ya1MO+h6PB4mJibjxxhvx/vvvo7i4GBs2bMCqVaswY8YMREdH+6VM/oYQAqPRCJvNhmnTpmHlypXYtGkTCgsL8eqrr2L58uVISkpCaGhohzYhCAIEQfCZxc5isSA+Pl592e9UVVWhrq5OfVk3tLe3yw6cDodDne1TOI6DIAgwGAyw2WyaOLIymNKhKyRJAs/zCAkJQXR0dIdIh/6GEILjx4+DeAML9TY79TfEG6+juLi40wzen3Ach6ysLJ++K47j5HD44eHhuOiii/Cf//wHeXl5eOWVV7B06VKEh4fDYDCAEKKJ5cdfcN6lPpfLBZfLJVs3oqKicO211+L999/H4cOH8c9//hOLFi2SI8bSpSH4aDnOaDQiMzPTZ0pNXykqKpKj9Q6EJWegEUURdrsdLpcLERER6myfYzAYYDabERERgaCgIHU2ww/oayQZ4lCBZbFYEBoaqqkmTghBaWmprHT4QlCfDUpLhxbCVVkfCQkJnUz7AwHnXT6xWq2YNm0aXn/9dRw5cgQff/wxli9fDpvNJisZ8G5xbm9vh+SNSjlYEQRBXn5xuVyQJEleZuK8oa6XL1+Or7/+GgcPHsQf/vAHzJw5EzzP9ymY25nUnSAISEhIOKPPng1EZeWrrq7WtaXD5XLh8OHD6st+xWg0IiQkxKcTBUb39Nz7GH5HkiRER0fL/hx0QO1LGkiIN9w4FGeb6AmO41BRUYGSkpIBf/a+oPzNESNGwGq1dsjvCyEhIR0GQKXfhdVqRWZmJh5//HEcPnwYW7ZswS9+8QtER0d3+A6e52Xl1GQydekA2hf60oZ81dbOBrPZ3MHSRf+l9Zqeno6VK1fi+++/x759+7Bq1Srk5OTI/h1d1dWZtHWz2Yzx48f7vW4k1QnUlZWVqK2t7XCP3qirq4PZbD6jeh4oLBYLIiMj1ZcZfoApHTpDkiSEhIRo6kQKr+A9dOiQbI6k1/QCz/Noa2tDU1OTJssJNDgYvKfNBgUF9XnAoQN3a2trB+sWHQTnzZuHN954A/v378cDDzyAzMxM9Vcw+oHBYIDD4cC4cePw6KOP4scff8TLL7+MCy64AMHBwTAajXL03zMlODgY4eHh6st+gZa7vb0dNTU1aGtrk6/5u1/0hfLyctmC6m+orKBL2Az/w5QOHRIaGgqLxaK+7HdcLhfcbre8Fq432tvbUVdXB7vdrs7yOUajUVYMQ0NDYbVa+7wcpjaJm0wmhIeHY+nSpdi+fTs2bNiApUuXnpH1hNE1ZrMZkiShvb0dJpMJv/jFL/DRRx9h7dq1uPjii2G1Ws9Y0ed5HmFhYZoMYsrdQK2traisrER7ezs4HS6JUgoLC+Vtxv5EuRRJ/ToY/ocpHTrEZrNpvt4oSRLq6+vlLYZ6g3hjQNDQ2v4uoyiKsgDr7/ZmWlabzYa4uDisWrUKu3fvxhtvvIGJEycCXkVEr4NGIMJ5naGtVqvct6xWK+bPn49PPvkEu3btwq233oqkpCSYzeZ+tSdBEGCz2TrtmPE3drsdDodD11YOeJeAaKwXf8J5d3/x3i3i/emzjIGDKR06JDU1FTabTX3Z5yhnH3V1dfLpsnoVXoQQVFRUoKyszO9l5L2BreCdNUVGRnbwz1D6WigRBAHh4eFISUnB7373O+zduxd//OMfkZKSArPZDN67ZRpeawqFLsnQxDh7aF16PB5kZ2fjueeew+bNm7Fq1SokJiZ22hXV1fuE93pycjIM3tgpWkC8jt+VlZW6tnIAQE1NDRwOR6dzdfwBrRcagI7hf5jSoUOsVmuHAcxfKJdR2tvb4XA4NN8C2B105trc3Cwfl60FVIilpaV1mDkpTblUQREEAampqbjttttw8OBBrFq1CsnJyfJnGNqgfG/Z2dn4/e9/j++//x73338/0tLSEBwcLCscXfVLg8GA5ORkTZYMKIQQNDU1obW1FUTjuDU9Qfussn/4G2rl0MMS9lCkcw9iaAYdSKmQ87fgsFgsspJRWVnp998/E+rr63VxwmtSUlKHbbOEkA5/JyYm4tZbb8W3336LJ598EhEREbBarboeIIYabrcb7e3t8s6hJ598Et9++y2uvfZaeVbc1W4Xq9WqWVwdogg139DQ0G0kUr1Ad8I1NDR0qcD5GmoFMpvNCA4OVmcz/ID/3zqjV6hHvb9ROqWdPn1ana0r6EDd0tKC5uZmdbbfoev5giDAarXCYDAgODgYUVFRuPrqq/HJJ5/gL3/5C7KysmTHV4/HM+hjaugdOmjT92AwGOB2uyGKIpxOJ7Kzs/HCCy/gww8/xOLFixEUFNRpmYUur2hNc3OzbEXQMyaTCVVVVZ3q0V/Q98wctbWBKR06JDExETabze+DERVWLpdL9zMm3uvg6nK50Nzc7PcdNkr/Co7jkJaWJgsxg8GA0NBQjBgxAq+++ipeeuklTJkyRVYkg4KCIElSByWPoQ3UughvmzJ5w8zT/1NT/IwZM/Daa6/hzTffxKRJkzr4XAmCgOjoaNlS4k9o+QkhqK6u1n2/hVfOnD59WrOlW84bBycmJkadxfADTOLpDDrw+1vhgOK36bqrnqFlbWpqQmNjoyb1pSQoKAhmsxlWqxWJiYl46KGH8M033+DSSy9FaGgoOG/47q6sG3qfmQ4FqN8NulAo6bWIiAhcdtll+OKLL/DAAw8gPT0dwcHBMJvNHXbE+BPaduh2YH8rPWeCJEkdYtRogdFoZGHQNYIpHYwOeDweCIKA+vp6dZaukCQJoijC7XajubnZ74dHqQkPD0dGRgZ+9atf4ZNPPsGqVasQEREBQRDkeCeS92wdrRUkxtkRGRmJ+++/Hxs2bMAtt9yCpKQkOcKpFoiiiMbGRjQ2NgaEAiuKIpqbmzVbXoHXGulvBZHxP7TpJYxuoaZdrYWH3s20ROGA2d7ejpaWFvUtfmXcuHFYu3Yt/vCHP2DEiBGAt4xutxu8d+eKVoMSY+DgOA5GoxEcx2HYsGFYvXo1PvjgA0yePFn2DdGC+vp6NDc3B4xCqwcFiS5NBUqdDRaYFNQZiYmJCAkJ0SS0N+d1sJIkCaWlpepsXWEwGOSBvKmpSXPLjMViQXR0NCwWS4edRybveSpUuClN9ozAJzg4GImJiXJ71OLdCoIAh8OhSWTe/kJ3dBUUFGimoFEMBgMsFosm72wow5QOHUEIkaNbct6tXcrkL7QWBn1BUhxC53Q6/e5I2htKBYMKNfU1dT4jsNFi1kzlhMPhgNPp9KucOBOobNEypgmF+XVoA1M6dAY9A0KrWRM0cmLtL0pFjApcBmMownEc2tra0Nraqs7SHVTpcLvdmvp0wKt0BAcHg2h0+NxQhSkdOkN5NoC/Uc7ItTgboT8oLUBtbW0B4bXPYPiKQFlegXc5iO7i0hJ6ujDDvzClQ0fwPC9vq6RKh79N8B6PBxzHoba2Vp2lSwghqKurC5jyMhi+oLW1Ve67eofjOIiiqPkSi9FolLezazHJG6owpUNnWCwWOYiUlgIkEEy1DAbjf4q30+mE2+3WVGb0FVEUdWOVCYT6GmwwpUNHEEI6+HRogSAI8j56BoOhb4g3jHtbWxtcLldADKKEEDQ2Nmq+hTwQ6mowou1bZ3SAeHevaHHuCry/T02NbW1t6mxdwikifTIYQ5W2traA6bMAYLfbNVc6KGxpxb/o460zAEXgIerb4e/OQDV/SZJ070hK4TgOra2tzDLDGNI0NjaioaFBc+fM3qAW3La2Nl1YGvwtYxlM6dAtrDP0nUCb5TEYA4keBu9Ah9Wh/2BKh86gSxysE/Qdp9Op+dkrDIaW0GVRNlnpP6zO/AtTOnQEdQoD07z7BRO2Z05f6q4v9zC0Q4ulWAbjTGFKh86gwoNZO3qG1g0bEM8eWn891aXkPcxMnehnukt69zEYDHg8ng6xfRgMPcMBYC1VR1x66aV46qmnMGrUKHWW33A4HIiKitKdn0RXShghBDzP45FHHsGjjz6qzmb0E4fDgfb2dng8HjgcDrS1tcnXqCLh8Xjgdrt7VFKUhISEwGw2g+M4mEwmBAcHw2azISQkRD5niHFmEELgcrnwxBNP4E9/+hNEUVTf4lP6++54nocoikhKSkJxcbFmoQEAYNeuXbjrrruwe/dueXmK4XuY0qEzLr30Ujz99NMYOXKkOstvtLe3Izo6OmCUDo7j8Mgjj+Cxxx5TZw8ZaD30BSpcOY6D0+lEU1MT2tra0NzcjLKyMpw+fRplZWWoqKhAVVUVKioqOgSLo8pIX7FYLDCbzQgJCUFsbCySkpKQlpaGjIwMREVFITo6GqGhoYiKikJ4eLh8Eimjd5jScebs2rULd999N3bv3g0o+gXDtzClQ2dccMEFePbZZzFmzBh1lt9oa2tDYmIimpqa1Fma0pOAe/jhh7F69eoe7xnMSJLUY9wDqpQQQtDc3Iyqqio0NzejsLAQp06dwrFjx3Ds2DEUFhaisbFRDqmtVGaUQrk/App4rVFGoxFut1techEEAeHh4cjMzERmZibGjRuHnJwcpKamIi4uDpGRkbBarZ2eS/ms/VG2BisOhwOPP/44nnrqKb8vZ/W37mk4gLS0NBQUFPT78wMJtXTs2bOnX+2ZcXYwpUNnzJgxAy+88AImT56szvI5Ho8HBoMBbW1tGDlyJEpKStS3aEpPAur+++/H6tWrNQuspleo3wVVNCorK5Gbm4udO3fi4MGDOHHiRL9O6O3pHXRFT8KcU5wrRJUIjuMwZswYTJ06FZMnT0ZqaqpsGQkJCQEAuFwumM1mwHtaqcFg6He5BhMOhwOrV6/G008/HRBKByEEY8aMwcGDB9XZfoVaOvbs2eP3ehvKdD81YmhGT4LalwiCIM9KbTabOlv39FcADmYIIWhvb8fhw4fx3Xff4a233sLq1atx0003YdWqVXj33Xdx+PBhOJ1Oud6oAuAviNfRVBRFuN1uuN1uuFwu7Nu3D//85z9x55134uabb8bDDz+Mf/7zn1i/fj1OnDjR4YRSf5ZXz2glM/oLfW8Wi0XzgZ700SeJMbAwpYMhw3nN6TzPIzQ0VJ3N0Cl08IbXClBWVoZt27bhjTfewJo1a3DzzTfjt7/9LT7++GMUFRXJiga1MKiVDS0Hco7jYDAYwPM8nE4nysrKsG7dOtx3331YsWIFHn/8cbz77rvYvHkziouL4XK51F8x5AikwZO21aCgoH5Z2BiDB6Z0MDpAB6Hg4GB1lq6RvFs4hwLqAYZ4D9A6dOgQPvjgA/z5z3/GrbfeijvuuANr165FWVmZfJQ4/ax6oFIqGurv9ye0XOp3SQhBVVUVPvzwQ9x6662488478cwzz+Djjz/GgQMH0NTU1KkNiKLY6XsGM1q+t/5iNps1dxgmhHRoI2rfIYZvYLWsM9SCUyssFov6kq6hsQoGI2oFQfL6abhcLtTU1GDHjh3417/+hYcffhirVq3C3/72N+Tl5XWyYHQ1KNHv6iqvK+i9fU1nQnc7MJxOJ0RRBCEEeXl5ePHFF3HnnXfioYcewr/+9S/s2LED1dXVIN5tvf19tkDlbOvbn9D2aDAYNPe/8ng8aG9vB1T+Rf1JjP7DlA6d0d7eDpfLpYniEQhCayjCKUJc01ReXo7vvvsOzz//PH7zm9/g3nvvxTfffIP6+nr1x3tF/d16hy6/SJKEpqYmfP3113jwwQfxwAMP4JVXXsGmTZtQUlICo9Go6ZZMfxII702JHiY1NBYNFFYPhu9hSofOUCodgSZIGL6DLntVVFRg06ZN+Otf/4rf//73WLNmjRxngAbsGswQrxVDjd1ux/bt2/Hkk0/innvuwYsvvohvvvkGlZWVPSrwg72+9Aat76CgIM39cdxuN1paWuS/meXCPzClQ0dwHIfm5uYOOwq0gOO4gNu9Eiiz9O5wu93qSx0Gy8bGRmzevBnPPvssfvOb3+CZZ57B4cOH5XuGyoye0pMicfToUfz973/H/fffj+eeew5btmxBVVVVl6HCB8PslnThA6N3wsPDNZVx8PY5GuTOYDBo7mMyVGBKh44gXodAl8slz2z9DZ19pKSkqLN0jdIhTD2wBAJ09q6exbe0tGDr1q3429/+hltvvRV/+ctfZH8NGsCL47gulRaKFu1IC2idwFuPhw4dwp///Gfce++9+Pvf/47vv/9edwHvBgJRFANOeYqPj9fcp8PtdsPhcMgKe6DVYaDClA6dQTQ+2t5gMECSJISFhamzGD7EarUCCouFKIo4ePAgXn31Vfz2t7/FY489hvz8fDkvEBUrX0OtXep04MAB/PGPf8RDDz2EN954A4cOHZLX8gfDjgUqK7SSGWdCSEiIbqwzHMex5Ww/Evg9bhDj707AeeM2iKKI8PBwdTbDD3Ach/Lycrz99ttyaPc9e/YAAEwmk3xPIA0weoAQgh9//BEPPfQQVq9ejY8//hjl5eW6GfiGEoIgIDQ01O/yjUJ/l/YjpnD4F6Z06Ag6kLS0tGgaOIfneURGRqov6wrlTJbneXk3AwJoxkeFneTdJu10OrF+/Xo8++yz+N3vfoevv/66w8FqdOmgt9l5oDy/vzEajXA6nfj0009xzz334LnnnsOPP/7Y4TyYQESSpIBSRAkhiI2N1ay8xLvdvLm5mSkcGtCz9GL4Fc67NbKqqqpfp3gONGazGfHx8erLuoU6gZEA2fZGhZzkDQEuSRIKCgrw8ssv4+GHH8YLL7yAuro6eRZG/Xvos3UlJOmg050gV+Z3lQYz9Bmp0sZxHGpra/H8889j9erVePfdd1FUVKT+WEBAFe9A2h4sSRJSU1PVl/0GIQRtbW2orKxUZzH8AFM6dIYoimhra4MoipoMBnTGp3elg+d5CIIAQRAQGxuL1NRU+RCwQIAqEB6PR96V8tBDD2Hv3r09biXkvIop48whXr8pl8uFTZs24YEHHsCf//xnfPPNN2hrawsoqwfHcbBYLPLJvIFCWFiYpu3Y5XJpOrEbyjClQ0dQUx9VOrREffaKFgpQT9AZntVqxXnnnYf58+fLPg96d7TkOA6CIKC0tBSvvfYaHn30Ubzyyiuw2+3qWxkDDG03NEmShKqqKrz22mt45JFH8PLLL6O4uDigFA+z2Yx58+Zh/vz5CAoKUmfrjuDgYBgMBs0sM1ThbGtr07WcGKwwpUOH1NfXy971WmEymeSjxNEHPwJ/QweM0aNHY/ny5Rg5ciQEQQiY5YKdO3fimWeewUMPPYT9+/fLwo9THPPOBKLvoW2F4zjs3bsXjz/+OP76179i165dnbYv6xWO4zBy5EhceeWVGDdunGaDeV8JDw/XpIxU0aSHCTY2NqpvYfgBfY0kDABATU2NZqY/KoStVivi4uI6CGW9kZSUhMWLF2PWrFly+ahTqR7LC2/E2Y8++ggPPfQQXnzxRbS2tnYIWqWchSv/ZvgGWrc0mmtTUxNeeuklrFmzBp9//nmnpS69WkAEQcCcOXOwZMkSJCQkyNdpX+guaYHNZuswofEn9P05HA7U1dWpsxl+gCkdOkTL3Suc12fAaDQiJiZGvq71co+akJAQLFy4EEuWLEFERIQ6W5eUlpbin//8Jx5++GF8//33HWZeStSKB8O/uN1u/Pe//8WTTz6JN998EzU1NUAAvJeIiAhcfPHFmDt3rq79m2JjYzVZBlK+O0mSNJvYDXWY0qEzeJ7XVOmg8DyPmJiYDjNuPTFmzBgsW7YMI0aMUGfpkn379uHpp5/Gs88+i/z8/A5LKHqrW8b/3svBgwfx1FNP4W9/+xtOnz4NzuuLo5WFoC+MGDECV155JSZMmACe533ets7k+7OystSX/I4oimhtbVVfZvgBpnToDI7j0NjYqOl6MrV2JCcnq7N6RRCETmcYGAyGTibdMzHvcl5/h8TERFx66aUdllX0iiRJ2LZtG/785z/j1VdfRXV1NSRvXA5KTyHM/cGZDByBxJk8nyAIIISgrKwMf/3rX/Hkk09i37596ts6WD/O5HcGGqPRiHnz5uHyyy9HYmIioOhr6j7YFXRXGF2mVC5Vcl6lS22Z6y+JiYmaTKp4npdlk8PhQG1trfqWfqGH9x2InF3rYQw4xHv+ihadUgnP88jIyOhRQHVFV0JNPatXC7O+QBUOm80WMMsqkiRh3bp1ePLJJ/Hxxx/D4XDIPgJ9Xa5SD2q+SEOB/jwr542PAq9CaLfb8fbbb+Oxxx7Dhg0bOrw79Xvs62/4kvDwcCxZsgTnnXceLBZLp/etLKNSEaF9kvNOOiRv0DF6P7WcnK1fS1RUlPqS32lubkZtbW2neulPYpwZHABWezojNDQUb7zxBi677DLNDkUSRRFr167FNddco87qN3R2IXnPdImMjERISAgsFgssFgusVitMJlOPHu1UUYmNjcXixYuxYMGCs55x+RKXy4WPPvoITz/9NHJzczW3ZjD6jloZJoTAZDLBYDBgwoQJuP3227F06VKYzWZI3uBtStSf1wK3240tW7bgk08+QVVVlTq7E3QQbW5uht1uR3t7OxwOBxoaGuSTrwVB6KRkoZ/PSwjB2rVrsXTp0k715i88Hg8+++wz3HTTTR2Otmf4B6Z06BCDwYAXX3wR1157LYKDg9XZfkGSJOzcuRNz5swBFEsuvWEwGBAZGYmYmBjExMQgLi4OUVFRiI6OhsFgQFhYGMLDw2Gz2WC1WhEcHIyQkBAYjcYe42twXtOuzWZDdHS0ZvXSV1577TU899xzyM3NBa8I0c7QP+pBlOM4GAwGOWBfTk4ObrvtNlx//fUICQmR26z6c1rjcrlQXl6O5uZmdVanfkb/bmpqgt1uh9vthsvlQk1NDex2O5qamlBTU4PGxkbU19ejoqICtbW1qKur61IR6Q7iPQNn+vTp6iy/QAiBw+HAv//9b9x6661sMqABTOnQEVRoEULw5z//GTfffLNmSwiEEBQVFWHkyJFwuVwg3iiOFM5rgg4LC0NycjKSk5ORkpKC+Ph4pKWlITo6Wk4RERGIiIiQrTbdCWelIFQLRaiWabr7Di2hAm3t2rV45plnkJeXB4/Hw5SOAEPZtmg7VM/yMzIycPfdd+P//b//h7CwMF22R0pP/aq7cquvt7e3o76+Hs3NzWhoaEBVVRVqa2tRVlaGyspKlJSUoLKyEgUFBWhubpb7KP2XJrPZjMOHDyMzM7NLK5EvId6loebmZvzrX//CypUr1bcw/ABTOnQEnVF5PB488MADuPPOOzUNR15fX4/x48ejoqICxOuLYTabkZqaiuzsbKSmpiItLQ3Z2dmIi4tDcnIyIiIiYLPZ1F/VLb0pEEoh2dN9esDj8eD111/Hs88+i5KSkg4xHtTCnqFfemtnHMfBZDIhMTERv/nNb3DTTTfBYrGob9MlvbXD3p5dTVtbG2pra1FeXo6amhqcOnUKeXl5KC0tRVFREQoLC+F2u2UrZlpaGvbt24fQ0FBwXuulv6BKR01NDV544QWsWbNGfQvDDzClQ2cIggBJkvDLX/4SDz74INLT09W3+A2n04lbbrkFu3fvRlZWFlJSUpCSkoLhw4cjMTER6enpCA0NhcVikZ3O+itEBovS4XQ6sXbtWjz++OM4efJkh+fqTdAz9EVv7YxTHMQ3duxY3Hnnnbjxxhvl6+rdW3qit7bY27OrIQqnSvr8NTU1KC8vR1FREU6ePInTp0/j2LFjKC4uxsyZM/Hmm29CFEV5V5u/oGUtKirCH//4R7z++uu91gdj4GFKh86gnXDx4sX4wx/+gJEjR6pv8Su7d+9GcXExsrKyEBsbi5iYGJjNZoiiKHuz92Qi7YtS0Vs+paf7tOaTTz7BmjVr5JDmTOEIXHprZ8p3arVaMWzYMDz00EO44oorAO/EQa/01h57e/b+4nK5UF1djcLCQlRWViIlJQUzZszotd/7CkIIjh49igcffBBffPGFOpvhBwQAj6kvMrSF53mEhITgggsukPfaa0VCQgJGjRqFxMREhIaGyrM45fa6njjbfEpf7/MnVHB+9913eOqpp3Dw4EFN46swBob+tDVJktDU1ISCggJkZ2fLga+o5U89yPfnu31Bb7/fW35/oc7fKSkpGDlyJJKSkvokN3wBfRclJSV4//33UVFRob6F4Qe6n6IyNIMQgvLycl1s56JbVbVCKwHVF0RRxP79+/G3v/0Ne/bs0fyQPob/IYTA6XRi3759ePHFF3Hs2DGgh8FbrYRoAe1TXSVfwHljgAiCIEd01aoeCCGw2+2oqanx2fMyeka70YTRLYQQ1NfXo6Ghgc2cdYokSTh9+jT++te/YseOHZoHc2NoA/E6J7rdbmzevBnPP/88ysvLwXn9G7QaXPWOVgO+x+NBU1MTGhsbNSvDUIcpHTrF4XCgpaVF3kdOWBQ8XdHc3IxXXnkF69at6zIOAmPo0dTUhE8//RTvvPMOHA4HUzp0BsdxcLvdqKurg9PpZNvYNYIpHTqFEILTp0/LJyFSAaZMDP9C4zSIoogPPvgAH3zwAZqamtj7GGJ0tyRBCEFNTQ3eeustrF27FqQXJ2uG/2lra0N5eTnrrxrCeoSOKSkpQVtbG+sgOoEOMFu2bMGbb76J0tJS8IpDpBhDE9ouCCHweDw4efIkXn/9dezatYv1XZ1ht9tRWlrKrBwawpQOHVNeXg673S47YrE1SG3heR75+fn4xz/+gSNHjsjWJ+bPwaB9k24j37dvH/7xj38gNzdXfStDQ1paWlBQUNCv0O2MgYUpHTqmsrISdrtdfZnhB+gMVTlTbWxsxMsvv4ytW7fC4XDIx58zEzpDCSEELS0t2LBhA954440OfZhNHLSlra0NRUVF6ssMP8KkpY4pKSlBU1MToJOtdkOJrpSOTz/9FF9++SXq6+shSZJsomXvZnBBujjGvKek/ixtF/X19fjiiy/w4Ycfwu12d7qX4X/sdjtqa2vVlxl+hCkdOqapqQkVFRVMYPkZZV3Tmem+ffvwzjvvoKSkRL5GTbTs3TCUKK0Zp0+fxocffogDBw6wdqIxdrsdRUVFbLeZxjClQ8eIooiTJ0+yPeV+hvrQ0P9XVVXhxRdfxL59++BwONi7YPQKbSMulwsHDhzAO++8I+9EY2hDe3s7ysrKmPKnMUzp0DGiKKKwsBAtLS3MkVQjCCHYvHkztmzZgtbWVtlRkMHoDdpf6+vrsXHjRqxfv561HQ1paWnBqVOn2M4VjWFKh84pLCzs5IhGE8P3VFVV4ZNPPkFZWZl8PDcbOBj9wePx4PTp03jvvfdQWlrK2o9GtLS0oLCwUP6byVBtYEqHzqmoqGA7WDTk66+/7nCuChswGP2BKqmtra3Yv38/Nm7cCI7j4PF44HK51LczfIha6WBoA1M6dI7L5ZJn2Az/Ul5ejnXr1qGuro7NihhnhLLdlJWV4csvv0RtbS1bLtUAURTR3t6uvszwM0zp0Dk2mw1Wq5UJKD+gVOwIIfjuu++Qm5uL1tZWpvQxzhjadz0eDw4ePChbO4xGo/pWhg8xGAwIDQ2F0WgEp+FJt0MdpnToCHU47ezsbNxyyy1ITk7ucJ3hG5SKXVtbGzZt2oSSkhImnBhnDbVslJWV4auvvpLj7zD8x7Bhw3DPPfcgJyenQ0A/2u+V/nJ9SYwzQwDwmPoiQxvo4CYIAubMmYMHHngAl156KSIiIuR7WGP3DZIkyXXrdDqxdetWfPDBBygvL1ffymB0oD990uPxQJIk5OTkIC0tDfAqJAzfY7VaMXz4cKSnp6OsrAwlJSUwGo3ybpb+KhP9uZfxfzClQ2dYrVZcfvnluPvuu7FgwQKEhoYCXmHF8zwTUD5CKUDcbjdeeuklbN26FS6XiwkXRo/0t320t7fDaDRiwYIFMJvN/f4848zgOA5WqxXZ2dlIT09HW1sbSkpKZIde9h78A1M6dERYWBhuuukm3HnnnZg4cSJCQkI6KBrM+cw/7Ny5E6+//jqKi4uZEy+jV/rTJ2mcF4/HgxEjRiArK0t9C8MPJCYmIjs7GwaDAceOHYPL5eoQg4e+U2Xf7897ZnQPUzp0QmpqKh588EH84he/QGZmJkwmUwerBlM4/IPD4cBf//pXbNq0qdOWRmp+7Soxhi79ef/EezaLw+GA2WzG/PnzZV8uep4Ps2b6FkIIjEYj4uPjMXLkSAQHB6OoqAgtLS0g3gMc6VZnxsDDlA4dMGbMGDz44INYtmwZYmJiZAVDrXUzfM+XX36Jt99+G2VlZfI1plgweqI/bYPjOAiCALfbDafTieTkZIwYMULOZwqHbyGEdJgs2Gw2jBo1CnFxcSgqKkJVVZVsXWaRS30DUzo05txzz8UDDzyAyy67DGFhYZ06Bfop1BhnTn5+Pv7617/ihx9+gMfjUWczGF3S1/6p7NOiKKKurg4OhwMTJkxAaGgoBEFQf4ThYwRBgM1mQ0pKCtLT01FRUSGfz8IsHb6BKR0acumll+K+++7D/PnzERQU1O36YV+FGuPMqa6uxrPPPovPPvsMdrud1Tmjz/SnrdAlFIPBALfbjaqqKhgMBkyfPh1ms1l9O8MPiKIIq9WKrKwspKeno6amBvn5+Uzp8BFM6fAjnPf0UqvVisWLF+Oee+7BzJkzYbVaO9wz1BUOXy4r0S2LSjN2fX093nzzTbz33nuoqKjocD/FF2VhDF3oTNrtdqO8vBxOpxMTJkyAyWQC8TqaDrQfF/1NZVJuFx0KUPmqlrGcN1hbfHw8EhMTUVNTg6KiIkCxJENlhvI7ziYNVZjS4Uc4b8NevHgx7r77bkyZMgUWi0V9m8xQaphKAai8NhB1oPwezrumTuNyFBYW4i9/+Qv+9a9/4fTp093ObgaiHAyGGkmS0NDQgGPHjqG2thbDhw9HZGSkrHAo48ecCVS5QB8Gy6GGUibQ/5tMJsTHx2PYsGFwOp04duyYbJlSyyfGmcGUDj9isViwfPlyrFy5EhMnTuzSnDpUhQDnnUn4QhDS75EkSRbCLS0t+PLLL/HMM8/g66+/RkVFRY9CZaDKwmB0hd1ux4kTJ3Ds2DFYLBakpqbCZDLJ+Wfa/tR9Sa1U079p36Cc6e8FMso6iouLQ0ZGBpqamnD48OEhZxHyJRyArqd2jAHnuuuuwz333INRo0bJFg5lIx7KDbq9vR1VVVWw2+1obW2F0+kEz/MICQmBzWZDZGRkh8is/YVaO+rr67Fz5058/PHH2LZtG0pLSyGKIjweTyeBrKS3d9PTZxmM3uC8VlCj0YiEhATMmzcPy5cvx/Tp0xEUFARBEHptg13R1NSEuro62O122O32Tg7SLpcLVqsViYmJiIuLG3LByrpTtERRhN1ux5EjR/Diiy/i008/lQ/fHCiGqsxgSocPoTMMnudx9dVX495778WoUaMGxUFPSpOt8hpN9Lnh9aNwu91oaGhAfn4+jh49ipMnT+LUqVOor6+XD1RzOp2QJAmiKEIURXDepRCDwQCDwSDXG8dxiI6ORlZWFuLj45GQkID09HRkZGQgOjoaISEhcuyD5uZmtLS0IDc3Fzt37sT27dtlU7bD4ehzx+9NEPf1exgMNbRtKf8NDg5GdHQ0MjIyMHPmTMyYMQMZGRkIDw9HZGQkzGYzXC4XHA4HmpubUVpaitOnT6O4uBilpaWoqKhAVVUVGhsb5cFSbc2A18IhCAJMJhOMRiNsNhuGDx+OsLAwZGZmYsSIEUhLS0NSUhKCg4Pl8tF+ajQa4XK5IAjCoNx943A4cODAATz33HP48MMP1dm9yoWeUL+LoQJTOnyM0WjEkiVL8Jvf/AYTJ04cFAoHFAoGDaRDBQ/d4+5wOJCbm4sjR47gp59+wokTJ1BSUoK2tja0tLTA4XDITp1UGPa0vAGFEgdvvVosFlkZoUIzJCQEERERsNls8rbE+vp6OBwOtLe3o7W1FQ6HQ/3VvdKbcBmqAoRx9vTUtujJqFSRtlgsiIuLg81mg91ul9u20+mU//V4PLKi7/F4+jU75zgOISEh4DgOQUFBsFgssoNlVlYWpkyZgilTpiAnJwdWqxWCIIAQ0umwysGCJElwOp3Yu3cv/vKXv2D9+vVy3aKXd9cbQ1VmMKXDhxgMBixZsgSrVq3q1ocj0JEUO0Hsdjt27tyJ9evXY9++fSguLobdbkdLSwva29tlpUJpKlZaR3rrhEqlQ3k/pzqm2mw2QxAEecmEzvLOht6ES29lZzC6o69ti+d52ZpAvNZEanGA4nsGui1SxZ4q+iaTCampqRg1ahTmz5+P+fPnIy4uTv2xQQHdRQQA27dvx9NPP43vvvtOli1nU9dn89lAhikdPuTcc8/FQw89hHnz5sFgMHTYpjkYkCQJLS0t2LNnDzZu3IgNGzagsbERNTU1aG1tBe+N6qcUmmoBq+y4vXVCqnSoOzv9HXqP+nuUysqZKh/qcqtR/yaD0Vd6altdtStqXVTnK/tXV0spfYEqNnQmj276FAAEBwfDYrEgLCwM5557LubOnYuFCxciOTlZfWuXkAHaneZLaD3yPA+Xy4XNmzfjT3/6E3744QeQPlhne6KrOh0KMKVjAKHLCwAwffp0/Pa3v8WiRYsC2sJBlz+o+dTpdEIQBBw+fBjr1q3Dxo0bcfLkSXltWa0QKOlNwHT3OYry873dO9CcbdkZjO7oqW31t12drbVDqdijH98TFBSE4OBgxMfHY8aMGbjsssswb948BAcHw+12ywqG0vdD6mI7sPpvPaBUjtra2rB+/Xr86U9/wu7du9W3dqC3Z+lr3Q42mNLhAyZMmIAHHngAP/vZzzoE/gp0WltbsWHDBrz//vs4cuQIKisr0dzc3Gdt/2w7ofrzvd0/kKh/W40/y8IYXPTUtvzdrtRl6e/vU8fvmJgYZGZm4qqrrsLVV1+NyMhIefCmy51UCVGi/n09YrfbsXbtWjz77LPIzc3tVv719iz9rdvBAovTMcCkp6fjvvvuw1VXXRXQFg4KIQQNDQ34z3/+g/vuuw9vv/02Dh48iJqaGrS3t8NoNPbZUa23TtgbZ/v5s0HL32YMbvTUts62LNTS29zcjKKiIuzcuRNffvklysvLkZCQgIiICNnaIYpipyXns/19XyJJEjweDwwGA7Kzs2EymZCXl4fW1tYuy93VNQZTOgaU6Oho3Hbbbbjhhhvk7WWBCiEEdXV1+M9//oOVK1figw8+wMmTJ2G322VzKby7SDweT586WF/u6Ymz/fzZoOVvMwY3empbZ1sWKhfo7N/hcKCqqgoHDx7Ep59+iqqqKuTk5HR7wN3Z/r4v4byWGZ7nYTabMXLkSDgcDhw8eLDb85q6ujbUYUrHAGE2m3HNNdfglltuQVxcXCePcj0jSRJcLhc4RWyNtWvX4te//jXee+89lJSUgHjPiaBChfOu/VJHK/p3T6k31Perk5qe8gYaf/wGY2jSU9vqKc8XqH+vtz7YFeplA+KNwdPY2Ijdu3fj008/RV1dHSZPngyTyQRRFOWtt339DT1gNBqRmpoqh7GnZVc6+gbS8/gLpnScBbw3JoXJZMIVV1yBVatWYfjw4fL1QGlwHMfBYDDA4/Fg8+bNuPPOO/HKK6+gvLwc7e3tANBhX7r6udR/a4Gvy+Dr72cMXfTUtnxVFvq9kiShtbUVBw4cwKeffoqQkBBkZWUFZCRUjuMQERGBpKQkVFVV4cSJEx0mZkz56BqmdJwFdACeOXOmfICbMgaF3qF70EVRREVFBVatWoUnn3wShw8fRnt7u7zmqpy5BMqzDTRD9bkZvkdPbctXZaHfSxQBBSsqKvDFF1/g0KFDSE9PR2JiYicfj0AgPj4e4eHhyM/Px+nTp9XZMr6q20CDKR1nASEEo0aNwt13343zzz9f7jCB0nF4nkdzczNef/113Hzzzdi6dStcLhcIIbBarRBFEVarFW63G0ajsZPZdCjBBAbDV+ipbfmqLJwq1oekOO6gsLAQn332GWpra3HBBRd0+BylK6dTLaHlp0tCqampMBqNOHbsGOrr62EwGDoEclPiqzoOFJjScYYYDAYkJCTgtttuw7Jly2A2m+WGFgiNyu1248iRI7j11lvx9ttvo6qqClB0ENqh6AFR3W0LYzAYjP5AVEG1JElCW1sb9u/fj+3bt2P06NGIi4uTZRH1N6NJD9By0DIJgoCsrCw4nU4cPHhQPk+KKlt6K7+WMKXjDLFarfj5z3+OFStWIDw8HGazOWD8ONra2vDqq6/innvuwU8//SQHAGMwGAyt8Hg8KCgowNq1ayEIAqZOnQqD97BHvcpWZZlMJhMyMjJQXV2NvLy8DvFIGB0hLPUv8TxPLrnkErJv3z5CkSRJ/r9ekSSJFBYWkkWLFpGgoCACgHAcR4xGY6dnZIkllljydxIEgRiNRmKxWMiiRYtIaWmpLLv0hiRJHRLl4MGD5KKLLiLwytfukvrZh0pilo4eUGqo1ITG8zxycnJw11134dxzz4XoPYJdT6Yzas5Ts3HjRlx33XXYu3ev7NBlMBg6nLPAYDAYWhEcHAyHwwGj0YjCwkKsW7cOOTk5yMrKUt+qO6jMjY6OBs/zOH78OGpqatS3DXmY0tEDyoHbaDSC4ziEhYXhmmuukQOAKX04uhro/YVS0eA4Dg6HQ977DgDPPvss7rrrLpSVlcnLKdQZisFgMPSAy+UCvEstoiiioaEBGzZsgCAImDJlCuB1gFdO9rRCOdlUloPneYwePRrNzc04dOgQ7HY7jEYjeMXBlEOdTuYPlrpPV155JcnLyyMej6dHE5teaGtrI7/+9a9JdHT0kDbpscQSS4GbrFYrWbFiBbHb7cTtdhNCCBFFUdfy98SJE2Tp0qUdnoMtr7DllT7D8zwmT56MO+64A7NmzZKXJ9RoqXkrcblcKCgowIoVK/Dxxx+jpaVFfQuDwWAEBJIk4fDhw9i3bx/OOecchISEwO12y6dfU/QifwEgPDwcJpNJXmah8UmGOkzp6AGe5yEIAiRJQnR0NG6++WbcfPPN4L0RR6mpTNnQtWz0DodD9tE4efIkrrnmGuzcuVM2WTIYDEagQRULnudx4sQJ7N27F+eddx5iYmLUt2oqf7siJSUFTU1NOHz4MOx2e4eJqt7K6i86T9UZMspGMXfuXCxfvryTgqF1w1HuebdYLACA77//HsuWLcORI0fgdrs7rT12lxgMBkNv0K2ndPK0fft2LF68GDt27ACnioOhN2w2G6677jrMmjULJpOpg7VjqFo9mKWjF3iex5gxY3DTTTdh9uzZsqbaXYPxZ8P3eDwQBAEejweSJEEQBGzatAm33347jh07xvaIMxiMgEYtv+gEq7GxEZs2bUJmZiYyMzPBcRxcLlen5RYtkbyHYUZGRoLjOOzfvx+1tbWyojRUYUpHLwQHB+O6667D7bffLu9g6Yne8gcSjuPgdrtlDfrzzz/HypUrcfLkySEftpzBYAQ+SnlK5ZnJZAIANDQ04KeffkJ6ejpycnJ0pXBQ6O7G4cOHo6KiAocPH4bT6dStZcYfMKWjC5SNYd68eVi5ciXi4+N7tXJAA6UDXo36k08+we23347i4mJAEcbcn+VhMBiMgaQr+UVlmyRJqK2txd69e5GdnY2srKwu79cC5RjBcRx4nkdoaChOnDiBgoICOebTUNxCy5SOLqCNJCUlBTfeeCMuvPBCGAyGPg3iveUPJHQHzddff40HHngAJSUlnRo7g8FgBCpKGUb/r5ZrbW1t2Lt3L0aPHo3k5GT5oDW9LC/TcSM5ORktLS3Izc1FS0uLvPwy1GBKRzdYLBYsXrwYv/3tb2EymUAI6RBsqzv82cjdbje++uor/Pa3v8WpU6c6BfryZ1kYDAZjoFHLsK6UEI/Hg7q6Ohw4cABTpkxBVFQUDAZDl0qH+m9f0VU5OY5DZmYm9u/fL/vcDUWY0qGAU6yz0VDnY8eOlbfO0kG9p4bbU95AIooiDh48iHvvvRdHjx7tsgH7qywMBoPhC/oiw0wmE0RRRGNjI/bs2YPJkycjMjJSDm1A6ct3DTRq5cNqtcJoNOLo0aPyyd5DDaZ0KOC856sEBwdjyZIluOOOOzooIsoG3B3+aNiEEJSWluK2227Dnj17ulQ44KeyMBgMhq/oSYZRqzOdDHo8HrS0tODw4cOYMWMGYmJiNFc61BBCkJaWhpMnTyIvL29IxlBiSocKSZIwY8YM3HXXXUhOTu6kaFAlpLvkS6i5sLq6GnfddRe2bdsGh8Ohvo3BYDCGJC6XC3V1dSgoKMCcOXMQFhYGnud9Lpu7Qj020GQymRAaGoq8vDzZ8X8owZQOFREREVi+fDmuvvrqDoe56QGO49DU1IR7770X69atg91uV9/CYDAYQxq3242Kigq0tLRg5syZcvgA9QTS3yh9TGJjY3H69GmcOHECra2t6lsHNdq+BZ3BcRwmTpyIZcuWwWw260rhgFeLf/XVV7F+/fohaZZjMBiMvtDa2oqPPvoIr776KgghmsfwUG9AsFgsuOSSSzBmzJgO14cCTOlQEBMTg7lz52L06NGATtYAKR6PBx9++CFeeOEFVFRUwOPxqG9hMBiMIY/ZbIYgCGhsbMQrr7yCzz//XHN5yXnDMMBr8RBFEVOnTsW5556L6Oho9e2DGqZ0eOF5HuPHj8f111/fpyBg/sTj8WDv3r149tlncfr0adkrW71WyGAwGEMdp9MJSZIgSRJKSkrwzDPP4KefflLfphl0NyTHcVi+fDnGjRun+dKPPxk6T9oFgiDAbDYD3jW2Sy65BBkZGYBC4dBa8SCEoLKyEk8//TROnDihzmYwGAyGCmpNEEUR+/btw5///GeUl5cD3mVqt9ut/ogmZGdnY8GCBYiPjx8yE8chrXSIogin0wkAGD16NC688EKgC0VD/bc/aW1txfPPP4+NGzeira1Nnc1gMBiMXvjxxx/xyiuvoLGxEZw3NILWUMfSpUuXYuzYsbookz8Y0koHvGtt8fHxOO+88zB8+HDNQ9MSQuTft9vt+Pzzz/Gf//wHzc3NQ8oEx2AwGGcDx3EwGo2QJAllZWX4+OOPsXnz5k5Bw7SC9x5zP2LECMycORMRERHqWwYl2te8xnAch9GjR+PKK6/s0j9C/bc/oEpHQUEBXn31VXkvN1WIlIoJg8FgMDpDCIHH45EtCseOHcPzzz+vq2VqqvwsWbIEI0eOVGcPSoa80hEREYHp06cjOztbcw9nKLyc6+rq8PLLL+PQoUOA1/9ED9o5g8FgBCKSJOHIkSN45ZVXNF+qpgoRjaY6evRonHfeeYiJiVHfOugY0qMYz/MYMWIElixZAkEQZI/iriwe/oCGM/d4PFi3bh02bNiAlpYW2QzHYDAYjDOnoaEBmzZtwn//+19NnUnp2EIVD0EQcPnllyM7O1t966BjSCsdISEhmDhxIsaNG9chWpxWUOUiNzcXb731FoqLi2XzoNa+JgwGgxHIEEIgiiLy8/PxwQcfaB6C3GAwQBAEebI5fvx4TJs2DREREZqPRb5kSCsdw4YNw9KlS2EymXSzdOF0OvHOO+8gNzcXHo9HE4sLg8FgDFZcLhd27NiB119/XfPIztTCTv30FixYgNTU1C7jMKlToKKPkdZPKF9WaGgoJkyYgOnTpwPeeP16ODzt22+/xddff42mpqYOilAgNzIGg8HQC5Ikobq6Gt9++y02btyozvYrnHf7Luf15Tv33HORk5MDi8UyaGX+kFI6lCQmJmLhwoUIDg4GABiNRjlQmFZUV1fjww8/xMmTJzs4GTEYDAZj4JAkCbm5uXI4Ar0QFhaGBQsWICYmZtAupw85pYOasxITEzF37lz5uiiKmr5kl8uFtWvXYufOnXLAssGq6TIYDIbWOBwO7Ny5E59++qkudi7S8efCCy9EamqqbJkfbCEShpTSQbcpRUdHY/bs2UhISJDztN6Sevz4caxduxYFBQUBv2bHYDAYeoAO2F0ljuNQUlKCjz/+GEVFRbJDp1ZQxSIlJQWTJ0+GzWZT3zIo0G6U1ZCUlBRccMEFutEenU4n1q1bh+PHj6uzGAwGg+EDJEmCw+HAwYMHsW7dOk230EJ13MbChQsRFxcnK0KDaSI65JQOq9WK7OxsjB07VnPNlm6Dzc3NxcaNG1FdXa2+hcFgMBg+pKKiAuvXr9c8UqlS6TjnnHMwduxYGI1GwLu9drAw5JSO8PBwnHvuuQgLC9PFATutra345JNPcPToUd1YXhgMBmOoIEkSjh8/jnXr1mm6g5FaMiRJgs1mw6xZs+QIpVpPkAeSIaV08DyPtLS0Dg6kWsLzPI4cOYLvv/8edXV16mwGg8Fg+BhRFFFSUoINGzbg4MGDgEYni1OfQvrv7NmzERcXB+hgo8NAMqSUDqvVipEjR2L48OGADrTH9vZ2fPfdd8jNzQXP87qwvDAYDMZQ5NixY9iwYYM8Lvh7kFf7bIwdOxaZmZmwWCxd5gcqQ0rpiI2NxcKFCztplFpx9OhRbN68GbW1tbJHNYPBYDD8T11dHX744QccOXJEPnpCS4KCgjB79mxERkZqPlYNJIPnSXqARn1LSEjAtGnTNA+6RQiBw+HAN998g/z8fNlZiCkdDAaDoQ2SJOHw4cP49ttvQQjRheWZnjw7WKwcGCpKB8/zCA4OxpgxY5CdnS0P8lohiiJOnDiBbdu2oaysTD7UjSkdDAaDoR01NTX48ccfUVlZqc7ShPHjx2PYsGG6sLwMFENC6ZAkCSEhIfI5K3pg27Ztmm/RYjAYDMb/4Xa7ceDAAWzatEmdpQkcx2H27NmIj48fNNaOIaF0EEIQFxeHmTNnqrM0oa6uDrt27UJ5ebk6i8FgMBgaUlRUhC1btuhmR+HMmTMRGxs7aPw6BsdTdAPnPbnPbDYjOzsbWVlZ6ls0YdeuXThy5IjmxyozGAwG4//gOA4ejweHDh3C3r17AQ197eg22ZEjRyIpKUlzt4CBYlArHbSxhIeHY/LkyTCZTPIuEa12izgcDvzwww8oLCzscJiPFmVhMBgMxv9B5XBhYSF++OEHuFwuzXwpqCNraGgoRo8ejeDg4EGxxDKolQ4arz40NBQTJ05UZ2vCkSNHsHfvXjQ2NjJFg8FgMHQCjZXEcRzq6+vx008/4eTJk+B5Hm63Gx6Px++TVqpkzJo1CxEREersgGRQKx20UcTGxmL8+PHqbE3YvXs3jh07pr7MYDAYDA0h3pNnqYXh6NGj+OGHH+DxeOSleq2YOnUqwsPDAQ2XewYK7WrRT5hMJmRkZCA2Nlad5XMIIZAkCaIoQhRFNDQ0YP/+/d1uxwr0xsRgMBiBCiFEtmYAQGlpKXbt2oWmpibwPO/3ZRa32y3/ZkxMDJKTkwfFwW+DXukICwvDtGnTZDMVXXKhyZdQnw232w1CCA4dOoTc3NweG6/afNefxGAwGIyzgwaPlCQJJ06cwNGjRzU5psJoNMrWFZPJhBkzZiA0NBQI8AnqoFY6OI5DREQEpk6dqs7yGzzPy17H+/btw6lTp9S3MBgMBkNncByHgoIC7NmzBy6XS/OBfty4cfISSyAzqJUOGvp85MiRgEYHvNE1wtraWuzbtw9VVVXqWxgMBoOhMyRJQlVVFXJzc1FTU6O50jFp0iRERERo6lsyEAR26XvBbDYjLS0NNptNneV38vPzUVBQoL7MYDAYDJ3i8Xhw7Ngx5Ofn+315RU1cXBxSU1NhtVrVWQHFoFY66HkrVEP1tQ+HGvq7hBAcOHAAhYWF6lsYDAaDoWNOnz6tmx2H48ePR0hIiN/HsoFkUCsdoaGhmDFjhmyO8veLokpHU1OTbKJjMBgMhv7heR4GgwH19fXIzc1FU1OT+ha/k5OTA6vVqvlSz9kwqJWOoKAgDB8+XN5FogWEEBQWFuLUqVPweDzqbAaDwWDoELrDsa2tDfn5+SguLlbf4ndGjRqFoKAg9eWAYtApHTzPy86b4eHh8vqXv60cUGyZPX78OEpKStTZDAaDwdApkiTJk9WioiIcO3asw1K9FmNKSkoKoqKiNPcvORsGndJBd6gEBwdjxIgRMJlM6lv8Bm2UBQUFbGmFwWAwAgjiDRYGANXV1Th16hQkSdJE2YA3WJjNZkNGRkZAO5MOOqUD3sHeYrEgJydHc42woaEBBQUFaGxsVGcxGAwGIwBobW1FSUkJmpub1Vl+g54Lk5OTA7PZrM4OGAad0sHzPHieh8lkQk5OjuZ7mgsKClBUVKRJjBAGg8FgnD0ulwunTp3SdAciHctGjhzJlA49QdfhQkNDkZWVpc72O4WFhaiurlZfZjAYDEYAUVFRgZMnT0IURflMLS1IT08PaGfSQad0UIKDgxETE6O+7Fc8Hg/Ky8tRW1urzmIwGAxGAFFbW4uysrIOh8JpQWJiIsLCwjS34p8pgVnqXuB5HpGRkfLhOFpht9tx+vRpNDU1aebtzGAwGIyzp6mpCRUVFWhvb9dkuZx4D/aMiIhAbGxswJ44OyiVDkEQkJ6ergsn0qqqKjidTiDATwZkMBiMoYzD4UBZWRnq6+shCIImlgY6hqSmpmq6M/Ns8H+t+YGgoCCkpKRooo0qqa2tRX19PURRBMdxcgyR7hKDwWAw9AkhBNXV1aipqZFluT+hYwjP84iJiZFPLw80BqXSYTabERkZqb7sd8rLy+VTZWmDYTAYDEZgUldXp/nGAEEQkJKSwiwdeiMyMtLvmqiasrIyWekQRZGFQWcwGIwAhjqTKqOVakFiYiJTOvQEx3G6UDpqampYJFIGg8EYBHAch7q6OpSXl2u2g8XtdkOSJFgsloC1nAdmqbuB8565YjKZkJyc7Helg3oXw9s4Ghsb4XK5AAAGgwE8z8v3aNFgGUMTGixP7VjN87zsEEcT7TO0L3Ul2JRry12lnvod/U2DwSBHWOwK5ufE0BuEEDidTjQ3N8PlcmnaPmNjYwPWp4MDMGhGP47jYDKZkJGRga1btyI2NlZ9i08RRVEWumVlZbj//vvx7rvvAorD35SoG606n8EYCKgCIUlSB+dq2lbpNaXCIAgCQkNDERUVhZCQEJhMJkRERCAqKgpGo7HbpULiPa+ivb0dLS0taGlpkWeFdImxtbUVzc3NaG9vh8fjkctFlSKtgi4xGH3h+uuvx5o1a5CSkqLO8jmSJIHneVRVVeG8885DXl6e+hbdM+iUDkEQMHLkSGzevBlRUVHqW3wKIUQW2nl5eXjwwQfx2Wefgef5LnfSMKWDoQVUOQ8KCkJcXBzi4uIQHh6OiIgIREdHIywsDKGhoQgLC0N4eDhMJhMMBgPCwsIQFhYGg8HQo9IhiiJcLhecTiecTifcbjdEUZRTW1sbmpub0dDQgPr6ejQ3N6OsrAzt7e2orq5GRUWFbCWk1hb6vayPMLRm6dKlePLJJ5GTk9NJhvsaOsY0Nzdj5syZyM3NVd+iewaV0gHvbG38+PHYuHEjwsPD/d4oKD/88AMeeeQRbNq0qUsrB5jSwegjtJ2cafvgeR7h4eFITU1FdnY2EhMTERsbi5iYGMTFxSEiIgIhISGw2WwIDQ1FSEgILBaLbHmgy4HK9tpTWQghvS6zEELgcDhgt9vR1taGuro62O12NDU1oaamBtXV1SgrK0N1dTVOnjyJU6dOobm5mVlBGJqzYMECPPHEE5g+fTr4LpYffQm1dLS2tmLGjBk4evRot+OLXhmUSsfs2bPxzTff+N3ZhjYIAPjyyy/x+OOPY+/evd02CLVQ7u6+wYLJZJJ9XOA14RNCOlmBuhtkqT8APftgqMB5fSjUHvOc1++BECLXC63T6OhopKenIycnB6mpqRgxYgRiY2ORkJCAyMhIBAcHIygoCEajUf7Ortqj+hq9rn43Smi5ekP9/bT/iKIIp9OJxsZG1NXV4fTp06iqqkJZWRlOnTqF/Px8nDx5ElVVVTAYDCBeKwije5TWViqjuutDNF95X2/vfCgxadIkrFmzBhdeeKE6y6co+6nb7cacOXOwd+9eoId3qUcGndJhMBiwaNEifPrpp353tKFCkxCCjz/+GE888QQOHz7cbWdVC+bu7hsM0JmvKIqwWq1ISUlBYmIizGYzLBaLPHg4HA44nU40NDSgpKREPreG1hWt30DqZGdLd0oHzaMOmenp6RgzZgyGDx+O8ePHIyYmBmlpaYiJiUF4eHiHz50N6jJ0hbptq+nLdyjhOA4tLS2oqKhAVVUVKioqkJubi2PHjuHIkSPIz8+XFdreBtWhBFVKKbzX6pWUlIT4+PgOSicAGI1GtLa2orS0VI6m7HK5IElSp+8aqowePRpPPPEElixZos7yKeq6P//887Ft2zbZLypQGJRKxxVXXIH333+/V8HnKwghePvtt/HEE0/g1KlT6mwZdfnUjWqwwHvPwhkxYgQmT56MESNGIC0tDTabTVY66Ayd+gHY7XZUV1ejqKgIubm5OHToEE6ePAlJkuB2u9U/MaRQCv/s7GxMmzYNI0eOxJgxY5CWlobk5GRERkaCeC0g6nZ2tvSlnfb2m335Dor6u+hnm5ubUVFRgZKSEhw8eBAHDhzAgQMHkJ+fP+TbCIX2q4yMDMyaNQujRo1CfHy8vLxG86FQbu12O6qqqlBXV4e8vDzs3r0b+/btQ3t7u/rrhyRZWVl49NFHcf3116uzfIq6zyxZsgTffvut/F7U+Xpl0CkdRqMRN9xwA1577TV1lt8ghOCll17CmjVrUF5ers6W6U6YDiZCQ0Nx7rnnYtGiRRg/fjwyMjIQHR0Ns9ks7/ahM1PitWBQrZ3jOLS2tqKyshInT57EDz/8gO+++w6HDh3qsEwzlBAEAUFBQTj33HMxZcoUTJkyBSkpKUhOTkZERIRcl8qdVANNX9ppb7/bl++gqL+LzrqV15ubm1FcXIyKigocOHAAu3fvxs6dO1FVVTWkl14mTZqECy+8EJMmTcKIESOQmpqKkJAQuZ10BfEuV4miiIqKCpw+fRoHDhzA999/j2+//RZNTU3qj8gMBWtIUlISHnroIdx6663qLJ+irtfrr78en3/+OVpaWmRLaCAw6JSOoKAgXH311Xj99dfVWX7lmWeewZo1a9DY2KjOklELU3WjCmSCg4Mxa9YsXHrppZgzZw5GjRoFi8Ui5xOFcyKtB/r8ynqg+aIooq6uDgcOHMBXX32Fzz//HCUlJQHT0XpDKazp6ZFU+NP8KVOmYO7cuRg7dizGjh2L9PR0REREdFqrp59Vt69ApC/PQetNFEUYDAa0tLSgrKwMR44cwU8//YTt27fj8OHDaGtrk9sdXabrbhdOIEIHHo7jkJWVhYULF+KSSy7B1KlTERkZCd7rE9Ubyv5Hl4zb2tpQWFiIzZs345tvvsGmTZvgcDg6tNve3lNXBJrM4zgOYWFheOCBB3Dfffeps/3K//t//w+ffPIJWltbA0rpEAA8pr4YqHAcB6vVipycHFx++eXqbJ+jFJBbt27F1q1be5yRn0knDQRSUlJw00034bbbbsPFF1+M1NTUTscwU2VCWQfKa+p8juMQEhKCrKwsjBkzBsnJyWhra0N5eXkHX5pAhPOatWn5qQDheR4RERE4//zzceutt+Lqq6/GlVdeiRkzZiAhIQFWq1X+vLotqf8OVPryHMq2QgiB0WhEbGwsRo4cidGjR2Py5MmYNGkSQkNDUVlZiZaWFnBeRTbQUSuavNeR/tZbb8U111yDiRMnIiwsTN563B3d9R1a/7ROx40bh0mTJiE6OhonT56U65Iu43X3PYMF2ldnzZqFc889V53tV9atW4ejR49qFh31TBl0SofZbMbIkSM1UTqg6KTbtm3Dtm3belxb7otADSQsFgsmTJiAhx9+GFdddRVGjhwpO6qd7bMS76yf8840Ro4ciYyMDLS2tqKoqKhH5S4QoHVEBXdmZiauvfZaefA499xzMWzYMNhstrOuy8EOnc1zHIfg4GCkpaUhJycHo0aNwsyZMxETE4O2tjb5XKRAhioa9FkXL16MlStXYtGiRUhISJDzBqrNGI1GxMXFYfTo0UhNTZXPl6I7pwY7HMfBaDTinHPO0Vzp+Oyzz2SlI5BgSscAQzv3999/P6SUDrPZjNmzZ+PRRx/FhRdeiODg4AEVeErhCu8SRGJiIjIyMuBwOFBUVASHw6H+mK7oSz2MGjUKN998M+68805ccMEFmD17NuLi4mAwGOTdWE6ns5PliPE/lO2Nbq0WBAFGoxHR0dGypWz8+PGIj49HY2OjvEMqUCGEICwsDEuXLsXdd9+NadOmITg4GJziZOu+tL2+4PF4wPM8goOD5S3ZlZWVKCws7GA5okr0QEw49ARTOs4epnQMMLSjbd26Fdu3bx/0SgfvXSeeNWsWnnrqKcycORNms1nOwwA9p9ISQBEEAXFxccjJyUFrayuOHTuma5O5svzKWaHJZMKwYcNwzTXXYOXKlbj44osxYcIEhIeHd5i1088qBxPG/6GsI2V7UdYbAERERCAjIwPjx4/HtGnTEBcXh5qaGtTX13f5XXrHYDBgyZIlWLVqFcaPH9/p9NG+PIeyrvqajEYjsrOzMXz4cJw8eRKVlZXgFEssXZn8+1IWPUOfmykdZw6TXD6ADKFD3TiOw/jx4/HYY49h2rRp8mzcYDDIwmkgUAozJQaDASNHjsSvfvUrXHjhhTCZTF3epyW0Doh3C6vgDeRFCEFKSgruvvtuvPTSS7jvvvtw3nnnIT4+HlApJsp6HApm7LOFtj21ckZ9D4xGIxITEzF//nzcc889eP755/Gb3/wGycnJgPddmc1m3VuUTCYTFi9ejDvvvBNjxozxeXmV1kbaDidOnIjVq1djwoQJ4BX+SAxGV7CWMYAoB4ahoHQYDAZkZWXh97//Pc455xx19oDTkwIzYcIE3HjjjbLg6+leLeC8znZU2bBYLLjyyivx4osvYsWKFZg1axaSk5OZsNaAhIQEXHDBBbjrrrvw/PPP44YbbkBwcDDcbrffAwz2B57nMWXKFPzyl7/ElClTNGk7xLvsOWvWLKxevRqpqamysqdFeRj6h7UKHzHYFQ54Y3DcdtttWLhwoc9n371ZTQRBwNy5c3H55ZcjMTGx073qv/0JVUCpEJ47dy5eeuklrF69GhdddBFSUlI6mMR9XZeMjtC2lZiYiIsuuggPPvgg/vGPf2DmzJm668fKfhAfH49LL70UM2bMkNuMv8tLyyMIAubMmYPbb78d8fHxsuLBYKhhrcIH0AFmMHc6o9GIiy66CNdcc02H+BtaEhISgssuuwzz5s3rsu6pgPRHogjerYoGgwHx8fF45JFH8Mwzz8i7ewSvkyNDewwGA8xmM4YPH45ly5bh6aefxqOPPoqkpCSYTCY5GY3GLtuXv6DlPOecc3DZZZfBZrPJyoay7fkLWhcWiwXXXXcdFi1aBEEQ4PF4uu0XgQrx7qLT8v0HOqzmfAQdbAYT9HlMJhOSk5OxcuVKxMTE6EKY0Eimw4cPxyWXXIJhw4apb9EESZIQFBSECy64AM8//zxWrFiB8ePHw2q1dqg3ojhPhlpG/D1rZfwPjuMQFBSEadOm4Ve/+hVefvllLF68WB5w3G53h91E/oQQArfbjbS0NFxwwQXIysqS25HW8obneURHR+PWW29FVFSUOnvQYDAYNK/rQIbVnI8wGAyDzkxOndSMRiOuvPJKTJgwQd5CpzWc18QreHfSzJs3T7bAaKkUZWRkYPXq1XjyySdxwQUXICEhoYMpXK1gMEVDPwiCgKioKCxcuBCPPvooHn/8caSlpcn9QCtrJrVyLFy4EGazWXdWhLFjx+K6666DoDjXZTBhtVo1UTgHC/7vMT5Gy0YuSZJsUtTaBOsL6LPFxMTglltugaA4TEzLELx00KbWjvj4eMyaNQuZmZnyPf4WyoIg4Gc/+xn+/ve/44YbbkBOTo4cQRTMmhFQ0K2hK1aswEsvvYT58+cD3ngpyomFv9pYWloaFixYgJSUFN0pHPAOyitWrEBaWhp4b6RdrRS0gYbjOJhMpg592V90JSvou9dbG+iJwG8FCuhL0eoFUAFAB+bIyEj1LQENIQQ2mw2LFy9GRkYGoLB+aClQlPXOKfbRT5o0SVaMuuqwAwn9DUEQYLPZcO+99+Kxxx7DokWLEBUV1cFRVKlsqMuu/D6t2jGjI9TvJiIiAueddx7WrFmDFStWICgoSI4Lw/txx9TUqVMxZ84cv/1ef6CTj5SUFCxfvhzBwcFynh7L2x+oghkUFISIiAh1tl9xuVyyMhdoBF6Je0GSJDidTnlroj/hFGcQWCwW3ThYDhSEEAQHB+Omm25SZ2mOevBOSkqSzyiRJMnnbYHO5MaMGYNnnnkGt9xyCyZNmiTP9NQzYqZUBBZUuBuNRkycOBF33XUXnnvuOVn5liTJ5zEy4B3MZ82ahcTERJ+36TOB8yrfPM9j/vz5cp1QeRzIbZ4qVMHBwZpaOojXqtvQ0ADJe8CfHttCdwwqpYM26JaWFr8MND0RHByMoKAg9eWAhud5jB49GqNGjdK98JAkCRaLBUFBQX4pq8fjwYIFC/Dkk09i8eLFSE9PhyRJzNN9EEIIQUZGBq666ir86U9/wrRp0wA/LTFarVaEhITIS4l6g/Y1juMwdepUZGRkyIqH1jL5bKEWSpvNhpCQEHW232lubobL5Qo4+RJYpe0jdrtdk07pdrvlkLTh4eGw2WzqWwKakJAQXHzxxQHRyAVBgMlkAue1Pvl6FvrLX/4Sq1evxty5cxETEwN4hRRzOBt80PYfEhKC888/H3/5y19w1VVXgef5Tu97oBVeakUwGo0drGd6gj5zaGgopk+fPuisekFBQQgNDdXsyAVal3ScC7S65QAErurZDdOnT8cPP/ygaac8duwYHnnkEaxdu7bD9Z4aiJ5nARzHIT4+Hh9//DFmzJjR43PohXfffRerV6/GyZMn5WWOM8VgMMhbJeG1bFD/jbvvvhvXX399h50N8L5PvdQTNcnCO2jSWRu6CEYmSRIaGxvR1NSEsrIy1NXVweFwoLGxUU7t7e0dPtMVZrMZ4eHhiI2NRXBwsPx3QkICYmNj5RNz6e9L3vDZ6jpT1iMts/oef6Oc0IiiiLy8PLz33nt46aWX4HQ6ISmcys+m3anJzs7G73//e9xwww3qLN1BCMHXX3+NZcuWyYcUqk+DHsi68Qc8z+PKK6/EE088geHDh6uzfQq1mnIch7a2NsyaNQuHDh0CAqweB6XSMWrUKOzevbuDE5O/qaysxAMPPIC33npLnhn11jB6y9cSjuOQlpaG3NxceTuw3i0e7777Lh577DGcOnXqrAcp5QBNzcQxMTH43e9+h6uuugqJiYmd6kP5Ps/2930BIQStra0oLi5GUVERCgoKUFxcjNLSUtTV1aGqqgptbW0g3vgUoijC4/HA4/H0Ossj3hm52WyWnWh5nofFYpHXxGNiYpCeno6MjAxkZ2djxIgRSEpKkg8MVCobFDrYK6+r7/EHauVHkiQUFBTgP//5D5599lk0Nzf3WkdnQlZWFh555JGAUDoAoLy8HJMmTUJtbW2Xlmc9y7zuuP3227FmzRqEhYWps3wKtWpwHIfKykosXLgQR48eVd8WEJDBltLS0kh+fj6RJIlogSiKpL29nfz2t78lJpOJCIJADAYDEQSBcBzXbVI/h56SwWAgF110EXG5XESSJM3qtj+88847JCsriwDoVNe9JfVn6Puj1zMyMshbb71FiouLid1uV/80IYTI9aSHuvJ4PIQQQpxOJzlx4gR59913yT333EMuuugiMn78eDJy5EiSkpJCgoKCiNFoJDzPd6gDdXvgeb7bpK7HrpLBYCAWi4XYbDYSHx9P0tPTybhx48i8efPIihUryEsvvUQOHDhAWltbOz2Hx+PRvG67+u329nZSVlZGnn32WZKQkECMRmOn5z7blJWVRf71r391+F29M3PmTGIwGAi66Ifq59Nz4jiO8DxPfvvb36of0a9IkkQOHToky7ZAS/qeqp4hhBCcPn3a7zMgOgPmOA4GgwFRUVGw2WzyDDGQ4XkemZmZndas9Yzy/Z/JjEr9GTrTyMzMxJ/+9Cf87Gc/Q0pKiu4dhtvb27F792489dRTuOyyy3DJJZfgd7/7HV577TV89913OHz4MI4fP47Tp0+jra0Nbrcbknc3BvWLgbc+qS8B9ZnqKhHv0o06cqPRaOxgGXA6nWhpaUFlZSWKiopw5MgRbNu2De+88w4effRRXHvttbjqqqvwxBNP4JtvvkFtbS04HZ/pYfSeXPvzn/8cq1ev7rRlfqDK3pXFQK8QQpCTkxNQcqMnIiIiEBMTo8nuSArHcaivrw/YMeXse4DOoGtedXV1fm0U9LfovzzPy0qH+p5AxGAwYPTo0UAACT11Oelg2Nt7UObT+z0eD4h318KaNWtw0UUXITw8vEfFlppCe7rnbOjpWRoaGrB161Y8/PDDuPjii3H99dfjmWeewaZNm5Cfn4+ysjK0trbKCoa6ruBdQ3a5XHIerYeu7u0K9b20DtHNTgbJu9unra0N1dXVyMvLw7fffovnnnsOv/zlL7FkyRLccccd+PLLL1FfXw9J5USn/j5f0tV7pb4pkZGRuOSSS/Dwww8jNjZWzieqrdNnAuf1EfHns54NHMdh/PjxgyJYIiEEERERiI2NlUMj+BOi8MuqqamB2+1W3xIQBHYr6AJJkmC325GXl+fXRqEeYDiOQ2xsrBxExp9l8QUcxyE6Olr+W+9Cj3jPqBiojmkwGJCdnY01a9bgwgsvREhIiOZCVN2mPB4PTp48iWeeeQZLlizBihUr8MILL2Dnzp04deoUamtr+1UfXQ1uXV3rDvV96r97g77DxsZGlJWVYefOnXjvvfewYsUKLFmyBGvWrMH+/ftl3wl1fWiFwWBATEwMrr32Wjz++OOIjo6WB6m+KmzdQX1r6Hvob51qQVxcHHAG71+PREVFyc/jb0RRlNv40aNH++TMrUe0lZo+gG6PpNuJtCQtLQ2JiYny34Hc6XieR3h4OKCY0SkFn96ejXidJB0OhzqrV9SDl8lkQlZWFv74xz9iyZIlCA0N7ZCvFZIkweFwoLa2FuvWrcNNN92ESy+9FH/605/www8/4Pjx42hqaoLT6VR/NGBQti1RFNHc3IyKigrs3r0bL7zwAq6++mrccMMN+Pjjj2XLjR7aosFgQGhoqLzTISEhYUC2bbe3t8NutwPdWFv0SGxsrKbLEQMF5w06mJqaqsnYYjAY5Dpsb2/XpAwDwaBTOqh5Nj8/X/OZaEJCgmwdUA/QgdYBOY7rcIS23uF5Hk1NTXC73Wdl0jaZTIiNjcXvfvc7LFq0yK8HbPVW1/X19Xj//fdx/fXXy8sOx48fR11dnbxd0x/l9Cdms1mO9FtTU4MTJ05g3bp1uPvuu7Fs2TK89dZb8qCsJZzXrys8PBxLlizBqlWrEBQUdNYDRUtLCxoaGtSXdU1kZKRPdvL4G85rvY6Pj9dMhtMx7fjx42c0odID2o7KPoDjODgcDtTU1Ph9hkeFPE2hoaFITU3tdutuoCkhBoNBHsTUz6r14Eb9AShlZWUoLi5GY2NjlwKvt7rneR6CICAoKAi/+c1vcPHFF/s92JuyXPQZnE4nqqur8fe//x2LFi3C/fffjy1btqC0tBSNjY2KT/dvKUTPKNucy+WC0+ns0LftdjvKysqwceNGPPDAA1i4cCH+8Ic/oLq6WvEt2iB4T6q9+uqrcf/993e5zVLdj3pKbrcbVVVVqKurU3+NLiGEyEqi1pPAsyUiIgKZmZkIDw/XxKeDIkkSamtrmSOpHuC8JwASQtDY2Iji4mL1LX7FaDQiOTkZUVFR6qyAgxACh8MByRv0SG+DGVUS4O2Ux44dw/Hjx8+4nIQQmEwm3Hfffbj66qs1WcflOE4WLJI3YNfbb7+Niy++GKtXr8b+/ftRU1Mjz3jO9FkDASrge1Kk3G436urqcODAAfztb3/DJZdcghdeeAHl5eVyHZ2tpeFMiY6OxtVXX43rr7++w06O/g7EojcQ2aFDhzR7lv4gSRKqqqqALpYtAw3qz9HfdzZQUEU7Pz8fdXV1XU6mAgFtas9HEELgdDrhdrvhdDpRVlamvsWvCIKA4cOHIyUlRZ0VcEiShMLCQhDvlmCtOl5fkCQJe/fuRV5enjqrz/A8j+XLl+PSSy/VTGnkvCZ6l8uFL774AkuWLMFDDz2EI0eOoKGhQR58A12YDzTUGrRv3z7cd999uOSSS/DZZ5/JCrO/4bwOpCkpKbjxxhtxwQUXAN421p0C1R2EEOTn5+PgwYNwOp39/ry/4XkeJ0+e7FFZDBTS0tIwbNgw+Tn8/Tw0aF51dXXAOpFisCkdSpqbm1FQUKC+7HdSUlIQHx+vvhxweDweHDp0CIIgnJWPhD8oLS3F4cOH0dTU1OcBWS1A5s+fj1tvvRVjx47VNMbA8ePHcdVVV+GGG27Ali1bUFNTA6LYejkQzomDDaoQS5KE9vZ2HDx4EHfeeSeuvvpqHD582O+KhyAIcnyTcePG4Y477sCECRNkpZKiboNdQQhBRUUFdu3ahcrKyj63b63gOA6lpaWAYpu0MgUCtI5jY2ORlJQkW5j8Xff0d48fP476+np1dsAwaJUOp9OpixCxqampyM7O7vIoZE5HPhG94fF4sGfPHr8L7DNh165d2Lt3b7/Nz1ShGj58OO69915MnjxZfYtPUZ5LUVdXh9WrV2PhwoVYv359B+dIGluDzqDRRVvqbwoU+lJW9XsnhKC2thaff/45rrnmGjz11FPymjhddqHxSNSfHSioImQwGDBnzhysWrUKkZGR8m4b9ey5u4GZXtuzZw927tzp0zIPFD/++KPf/esGEp7nERkZiaysLERFRYEb4PN0+grHcRBFURfj2tkwKJUOzutwdvr0aXlfuxaDpcd7KNjIkSORlJSkzg4oJElCfn4+Tp48qc7SFdXV1di8eTPy8/PVWb3i8XgQEhKC2267DdOmTfO7FcFkMsHlcmHXrl1Yvnw5nn32WVRVVXUS2F0NUozecTqdyM/Px5o1a3DZZZfhxIkTMJlM8qDN87xflg3pac2rVq2S25gyemtP75T3Bj8sKyvD7t270dDQ4Jcynyl5eXnygYuBTHp6OsaPHw+r1Sq/A39DlY7CwkJd7NA6UwK7JXQDz/Nwu90oKipCRUUF4B00/T0joIJkzJgxyMrKCtjZJbyCsKmpCV9++aU6SzeIooht27Zhx44dHUy5/eGaa67BZZddJsck8Rc0kNmLL76IK664Atu2bUNLS8tZb/lldKa9vR27du3C+eefj7///e/gBiBoV38JDQ3FZZddhquuugqCIPR5UkTbtMvlwg8//ICdO3d2yNMbn332GUpLSwO6DRNCkJKSguHDh2uuPNXU1MiT6UBF2xr0EbRj2u12FBQUQBAEeVeLFowZMwbDhw+XZzVnMhjqAbvdjg8++AD19fVyo9fLc0heL/ktW7bg2LFj6uxe4TgO55xzDq6++mrExsb6fRCqrKzEsmXL8Mgjj6C2tla+brFY+hVFlNE7dAAsLy/H73//e9xyyy1ob2/vZFHyBZLXmVUQBOTk5ODnP/85cnJyYDAY+tTmlIPe4cOH8d1338lHPvTl8/5m3bp1QBdLXoECx3GwWq0YMWIEMjMz1dl+p6SkBC0tLerLAcWgVTpEUURLS4u8bVYURU20bUmSYDQaMWbMGMTHx3cwzVHlI5CUkNzcXHz22WcQBKGDB7VW5acWAkIItmzZgg0bNgDe7cp9LZPZbEZycjJ+/etfY9q0aQgKCvLrjCYvLw/Lli3D+vXr5RgUVNHwx0AYaKgthurUG6IoyoNga2srXnnlFSxduhSnTp0CVANkX9tQX+E4DoI3xgNVdO+66y7Z0bS38kuK481dLhfWr1+Pb775BmQAznUZaF577TUUFxfD7XYH7MyceK0co0ePluONaIXL5cLhw4fR2trap7aiV/wnWf0MIQQtLS3Yt28foJjdaAHHcRg9ejTS09MhBng44Pb2drz00kuoqamB1WqVG75WHcBoNMJoNCIvLw9ffvmlLOT6ah3gOA5OpxNXX3015s2bB4vFIg9K/lAIN27ciMsvvxz79++HJEmdlB1f/jbj/9iyZQt+9rOf4fDhwx0GyIFu12rFyGQyYfbs2bjuuuvAn8EW2hMnTuCTTz5Bbm6uOktTWlpa8Mwzz6C2tjZgFQ7KsGHDMG3atE59098YjUYcPnwYTqdzwNulP9G2Fn2A8mXY7XYcOHAAdru93515oKANddy4cZg0aZK81zpQsVqtyMvLw2OPPdYhToBW9QuvgPvkk0/w9ddfw+Vy9elESzrjNJlMmDFjBn72s58hISFBfg6qdPgKSZLwySef4Prrr0dRURE4b+yTvq7tMwYWk8mE4uJiXH755fjuu+/k99BX5fVMMRqNGDVqFJYtW4bs7Gx1dq9IkoSvv/4aa9euRUNDg+bLGJIkwe12449//CPKy8sDvj3bbDaMHDkS6enp6iy/Y7fbcejQoYB2IsVgVDqUiKKIuro6VFZWQhRFzUzVhBAEBQUhJycHycnJAa2ltre3w+12Y+3atVi3bp08i9Gibon3FNIPP/wQb731FhobG0G8S2u9KQz0PoPBgOuuuw4TJ06UTZa8N7qpL9/TW2+9hTvuuAP19fVyaG+HwxHwQjoQoQHYRFFERUUFbr75ZnzxxRdyni8h3mB7M2bMwLXXXtvl7/XUlqkvyAcffIDPPvusw7Zrf6AuG8/z2LJli3wAXyBB+76S1NRUzJgxQ9OlFeK1thYWFqKlpQVOpxMeHUaF7g9kMCWO4zqktLQ08s477xBRFIkkSUQLJEkikiSRQ4cOkUWLFnUqcyAmg8FApk+fTg4ePEhEUSQOh4N4PB71ow8YtA6VeDwe8uGHH5Jx48YRjuM6lbEv6ZprriHHjh3r8L2+wOFwyP9/6aWXSFhYGBEEoVN7VZevr0n9PUMpqeuiv0n9HgCQuLg48v7773d4h75AkiTi8XiIKIpk37595Pzzz+9UPnXq6vmNRiOZOHEief/994nT6VT/jE9Q9klRFInL5SKHDh0i06ZNI2azuVO59Z54nieCIHS4duWVV5LCwkL1o/sVKldff/11kpiY2KncAZg6XQjopO6QoaGh5J577lG/R01wOp3k4YcfJhEREQMiLLVOBoOBnH/++aSsrIwQr+DxpeJBFB2QEEK+/fZbMn369E7l6muKiYkh//73v4nL5erwG77kzTffJPHx8UQQBMLzfKf2qi5jX5P6e4ZSUtdFf5P6+wRBIIIgkJCQEPL+++/LA6tScfQFLpeLvPXWWyQmJqZTGXsqL71uMBjI7Nmzyddffy1/p1pR9wVU4SgtLSXz5s0jPM8Tg8HQqdx6TzzPE57n5b8jIiLIE088QVwul19lhBKPxyO/w5UrVxKbzdap3AGYOl0I6KTukDzPk3nz5hG73a5+n5qwfv16MmfOnAERllomjuOI0WgkRqORzJ49mxQWFhKXy+UXxcPlcpEvv/ySTJs27YzrURAEcscdd5CCggK/CGZCCPnwww9JREQEgULAqdurupx9TervGUpJXRf9TcrvogoHvIN4bGwseffdd4nH4/FJu1ZaCzweDzl48CBZvnx5pzJ2VV46M6eWGnjb1dSpU8lnn33mt4FSFEVSWVlJLrjggoC0cHSVeJ4nCxYsIDt27CBut5uIoqh+bL/gdruJJEmkurqazJo1a0Dauw5SpwsBnboSSGPHjiWHDh1Sv09NaG9vJ7fccksnM14gJ47jyJQpU8j27dt9pnh4PB7S3t5OmpqayFtvvUVycnKIwWAgZrOZGI3GfnfG1NRU8t///lf9Mz7j888/J3FxcR3qTN1Ozyapv28oJXVd9Dd19V1KU3tCQgL5/vvviSiKHZYuBkpZpYqH2+0mdrudvP3227Jy2tXz0bJSi4LBYOgwQwdAsrKyyMsvv0zq6+vVPzegSJJENm/eTCZMmNChH5pMJmI0GjuVPVCS0WgkK1asIO3t7QP2nvsLXXYTRZFs3ryZDBs2jKCbNhFISQDwmNrJI5BROv9RRxuO45CSkoKpU6f61DmwNwghMBgMaGtrw7Fjx+QjnwMV5fa/yspKbNiwAWFhYRg7diwMBkOnuqa7XZSfo9Dr8IYjd7vdckwTGmOlpqYGL7zwAp5++mkUFxdDkqQOTqPq71SjzP/1r3+NK6+8EsHBwR3uGUgcDgcMBgMOHTqEK664ArW1tXIZuAE+v6G3Z2d0T1d1x/O8HBPDbrdj+/btmDt3rnycgaSIcNzV5/sLbf9GoxHBwcGoq6vD/v37u+wr9G/qYEj/r6S5uRl79+4FAGRmZiI0NLTDZwghsjOi2nlSCS2Xsn/S5/Z4PHj11Vdx9913o7S0VO6r8Drx088HImPGjMGtt96KESNG9Fg/voTzOrZyHIcPPvgAW7ZsQXt7+4DLDi3opIkEclLOWnieJ0ajkVgsFnLttdf6fE22L3g8HlJeXt6rCTUQUlczRABk4cKFZMOGDR2em84QqeOcy+XqsF5J6crht62tjXz77bfk/PPPJ2azmZhMpk6/2VviOI6YzWYiCAJJSkoin332WYff7KosA0FlZSUZO3ZsB2dFddkGIinfxVBL6rrob1J/X1ffbTQaydixY0lBQYH6FQ8YkiQRURRJe3s7ee+992TLmLos6r+7SkajUbbUzJ07l2zatKlD++7u/2pof1Wzd+9ecvHFFxOr1SpbWcxmc6/lCoQUHBxMbrnlFtLY2KjZsooSURTJ0qVLicVi6dO7D4DU6UJAJ6XAEARBXmPMyckhR48eVb9PTZAkibz11luyuSxQU1fCma4xh4WFkWuuuYasW7eO1NbWkra2NnU1EKIQtOrO7fF4SENDA9m+fTv55S9/SaKiojr9Vn+S0knsl7/8JTl9+jQhCoVD/ftni8vlIu3t7WT58uUdFI4zLX9vSfn9Qy2p66K/Sf196kSXDUwmE1m0aBGpq6uT33NPA3Z/oX3B6XSSffv2kWXLlsltVvmcvT03LTNVPARBIPHx8eTXv/412b9/P2lra5N9Bbrrf0qcTidxOp2kqqqKfPHFF+Tqq68moaGhnX53MCRBEMjEiRPJxx9/rK4GzThw4ADJyckhGARLK97U6UJAJ7XAgFfrT09PJ//85z/V79PvUCFVXV1Nrrjiik7lD6SkrGe6Bk7/r5z9pKSkkKuuuoq89NJLZMeOHaSmpoa0tLTIwkyZGhsbyY4dO8gf/vAHMnv27A7e2hzHEYPBQKxW6xn5cQAg0dHRsmOgL3xPKC6Xi9x///1y+dVtcqCTut0PpaSui/4m9fd19d10N4bJZCIrV670iWVM8vp1OBwO0traSv7xj3+Q4OBguYzq8qqfo7uk9PmwWq1k+vTp5MknnyR79uwhdXV1xOFwyP3P7XbLyeVykX379pFnnnmGXH/99SQ9PZ3AOzCrf4P+Tn/KpafEeeVWUFAQ+dWvfkVaWlrUr8fv0Pb1wgsvkLS0NMJ7Hc/VZQ/A1OlCQCe10KDOVsHBwWT58uUdzPz0X2XyNcrffe2118jw4cMDtiGp61qdqPKhTDQvMjKSnHPOOXKaNm0aSU5OlmdmNPXU0bq73l3iOI4sXryY7Nq1S57ZDcQ7p7NF5Xd98sknsjOgP5K67vublN+j/m6lEtmX3+zus+o8OhNXf76/SV2u/ib19/X23UFBQeSVV16RB2pf4Ha7yaZNm3we1yc4OJiMGzeOXHjhhWTBggVk3rx5ZMKECSQqKqqDctFTfQRqUj6PIAjEZDKRiRMnkk8//dQnSuWZ4HK5yBVXXEGCgoI6yM8AfxedLgR0UgsNmnieJ9OmTSOnTp0ixGtWJxooHUrKy8vJddddJ89mAi2p6/hME68KyqNUUNS/eTbJbDaTP//5z6SxsXHA37Xb7Zb/X1ZWRkaPHi37nvgjZoG6TvuTlAqF0WjspCh2N7Pt7nfpZ+jn1DsZlDNi9WfPJKnL1N+k/j51Ut8vCAIZMWIE+emnnzq0gYGA7tJyuVyksrKS3H///cRgMPSqgJ9N6sv39pY/GJLJZCJ33HEHaW5uJv+/vfsOj6O89wX+ndm+0qr3LlmyLVu25YoDtkkcgwMmJyQ3EGpCAgmGOIFATp5wk3Nyc9PuTQ+p5+ZAIKETMGBMNaYZ1+Buy1VW717V7Tvz3j+yM5kdybZk7c7szv4+zzMPaN/x7uzMu+/85q2hUChutaBTcejQIbZo0SKGCfKp+viTZTP06BU1nudRUlKCJUuWnLMH8Pn+faylpaWB4zgcPHgQZ8+eBZBcvb1jda6k3vQ8z8NsNk9qGvOLsWTJEtx8881x6ZEuvV8oFML999+P3bt3y2skaLEexnSuhTQyoaysDEuXLsUll1yChoYGeSsvLwfP8/I07bxqYTL1Z0vXk+M4pKWloaKiAgsXLsSqVauwatUqLF68GI2NjbDb7QiHw+NGIWlNffwXwhjD0NAQ+vr68JnPfEYeYRAL0m+Aiyyp7vV6sX//fvT396t3BS7i2CcinXeTyQSz2Qye5+XtXOWkESjPnclkwpIlS3DnnXdizpw58vfXUygUwmOPPYaXX35ZHrViFOMikWTe1NGgcrPZbOzaa6+Vq0T9fr+uNR1ST/Wvf/3rzOl0Tvhd1K8l0qY+v9PZpPd0OBzjPidW2ze+8Q3W29urvgwxIc1P8vjjj7OCgoKoJgXl94vXpj6fk90sFgtraGhgf/jDH1hvb+85fwNut5tt2rSJffazn2WFhYVRk0Ap34+PNGeWlpayz3/+8+y1115jw8PDLBwOy50XlY4fP87uueceVlFRIffTmeqmPhdT3dTvp97U+0Mxcdif/vSnqO8TC8ry6Pjx4+yOO+4455wX5zq+qW7KqntlzZeRN2UNT1FREfvOd77DRkdHmd/vl0fXaU3ZodftdrOrr76amUwmuV/OhfJlkmzjXkjqTV1gqLeGhgb2/vvvyxdW76AjFAqxXbt2sZUrV8rt29L3UGeyC23qcxHvTf35sdrUnxOLLTc3lz388MNxu8aBQIB1dnaylStXysMI4/l91Jv6HJ5vk/6NzWZjV1999aSaCaQRDoIgsB07drBrr72WZWRkRA2TtFqtrLCwkN18881yv5kLjYxgkQnzNm7cyJYtWyY3yaiP+Xyb+lxMdVO/34U26d+ZzWZ2+eWXR03AdaHvOlVjY2PsF7/4BXM6nXK/g/Mdu/q70XbujVOUsWvWrGGHDx+WA46JAmQtKPuGvfnmm2zevHlRx2uEa51SzSuMMXg8HmRlZWHNmjXqZOAC/z7WpCaFsrIyDA8P48CBAxgdHY1K1/J4pipex8ZNMCHSdM2bNw+f/vSnMWPGDCBybpWm+3mMMfzxj3/E888/D7/fL7+/+nPiZarHz3EcLrnkEvzkJz/BkiVL1MnjKL9HcXExrr76asyZMwc9PT1wu92wWq249NJL8R//8R+49957UVNTIx/ThaqpTSYTZsyYgfLychw7dgx9fX2anTdM8dwpj0sURYyNjSErKwvLly8Hpvhek2G1WjE0NIQPP/wQfX19EEUx6hhi/XmphuM41NTU4Atf+ALWrl0LLjIh10STG8abIAjyZ3Ich0ceeQRbt26F3++HxWLR9DcRb+MikWTe1NHgRJHhxz72MXmtEL1rOsTIyIeenh52yy23yNXWVqt1yj371eci3pv682O9qT9vOtuGDRtYd3e3fO5jfd3PnDkz7qlEfQzx3NTn7nwbAFZXV8eeeOIJ5vP5JvV0fq7z1dzczH72s5+xn/3sZ6ylpUXOz9I+0jDMyQiHw/LwQPUxn29Tn4upbur3O9820b9dsGAB6+3tjdtaJ8ePH2c33nij/Hnqzz/f8dF2/s1isbDbb7+dDQ0NMaZaUFJr0meHQiHW1NTEli9fLl9TLjLvlNY1qPHYzv8IYlAnTpzAyy+/DJPJBCC645uWpCdAnueRl5eHW2+9VX7qDIfDqr3JxTKbzZg5cyaKiork16Z7rZVPHYwx/PWvf0VnZycAwGKxKPZMPOnp6Vi5ciXWrVsHq9V6wZoINUEQEAgEEA6HUVVVhfvuuw9f//rXUVpaCkEQoqbAtlgsMJvN6reYkCAIuO6669DQ0CAfU6I/3THG0NHRgb/85S/y94618vJyeWkBquWIrfnz5+OWW25BZmYmRFGU7wl6UN6Ptm7dis7OzqjfgZ6drWNpaqWNQXR2duLNN9+E3++HKIoIBoO6XUyp4DCZTLjyyitx4403YubMmeNGCCQiKViL1zZd0g925syZqK6uVieDizTjXEzhHQqF5GPs6+vDli1bMDo6CpPJlHCFg/J8MsZQVFSEK6+8ckoBh/IcmUwm2Gw2uQqa53lYrVaYzWaYzWY56JrqdbRarSgoKMAnPvEJlJSURB1zLPOFmvr9z7dNZHR0FC+88II8uifWHA4HqqqqkJ+fr04CVMdPJsdkMqGkpAQ33HADVq5cKa9DozfGGMbGxrBp0yZ0dnaOG/lmhGs9uRLHgI4fP463334bJpMpYZ5MBUHArbfeirVr18Llcl3UzZD8k3QzBICqqiqUlZWpd5kWZbDy8ssv4+TJk3J7u7qg0Jt0rIwxmEwmlJaWorGxERaLBYIgxOVGKZ3/yQY1SosWLUJBQQGgOs+JKhQKob29HS+//HLMz6UoiggEAigvL8f8+fMv6nySf+I4DmazGSaTCXa7HevWrcNXvvIVIPKAonc+k8qPLVu2RJUnRpNSOViZqc6cOYNXXnkFPp8PJpNJ9wyHSPSdkZGBDRs2YNWqVbBarepdyBSIogie5zF37tyYBx1SoDo2NoaNGzdieHg4IQMORPK9VHVrs9lQUFCA4uJi+fXJNn9IAUC8fyuzZs2Cy+UCLqK2RA8cx6GnpwebNm2K+bmRznddXR0WLlyoTiZTwCIr69rtdqxevRp33XUXXC4XTCbTRQfIscTzPAKBAF588UW0tbWpkw1D37OsManw4jgOwWAQO3bswN69e8el60UqYOvq6nDnnXfK7bhk6qQAICsrC9XV1fLS3rESDocRCARw+PBhHD16VG6qS3Qcx8HpdMLlcslNeIn0RMUYk4NtvW8CkyWdu7179+L06dPq5GnhOA5WqxWZmZmoqqpCdna2/DqZGj4yKmX27NnYsGGDHMSFQqGE+e2+9dZbOHDgQMxrzBJJcvyqY0T6oUpPDy0tLdi4caPcnqd3wat8ivzEJz6B2267DdXV1eB5PmFqY5JNcXExysvLY15rJPVfeOONNzA2NqZ73pmsUCgEj8cjF2pcpBkkUfIWYwwjIyPyjcBisch5X/n7SCRS2TE6OoqXXnoppnlBem+73Y68vDzk5uaqdyGTIAVvdXV1+OpXv4rVq1fLQ1QtFosuAW4wGEQgEJD/9vv9eOWVV3DmzJmY5qFEo/2ZTgDSBR0aGsI777yDPXv2yFVsiUAqXG+55RbcdNNNKC8vB2fg6YjjqaSkJK4F9fbt2zE0NKR+OeGwSH8OQRDQ39+PlpYWOS1RnvIkJ0+exNDQEDiOS6hamAvxeDw4cOCA+uVpUQZaJSUlqKqqSsjAK1FJffasVivy8vJwww034HOf+xyQADVpfKQDtiAICAaDeP/997Fnzx74fD71roai71nXgfoH29zcjL///e+6jmA5F5fLha997Wv49Kc/jYKCArldnlyYVFhXVlaioKAg5teWMYZTp06hpaUFoVBInZxQpKdl6Sbe2tqKrVu3ysGG+jeht127duHs2bNgkWGCiRYUSbhILZFUE+P1erFv3z65PV4677HAGENhYSEqKirUSQl3/RKFdF7C4TAyMjLwmc98BnfddRfsdjvMZrPu+UoaAi098L788stobW2NWZ5JVCkXdCgxxjA4OIj33ntP7tuRSBdcEATk5OTg/vvvx5o1a5Ceng4k2DEmMmkIZmZmZlwK5p07d55zIa5ExCIz4A4MDOCdd95BZ2dn1JwaeuYr6fPdbjd27Nghn9dEqoFUk86XlLdEUcTo6Khc28FF+o7FgiiKMJvNsNvt8vmQPl/P65bIWCRodblc+PSnP41vf/vbyM/Pl89fIuQr6dpt27YN27dvh9vtNvz11P+sJ4Djx4/jqaeewujoqO7Rr5KU+UpLS/G9730Pa9euhd1uB1TVrmQ8aVRGfn4+cnJy1MkxsX//foyNjalfTkjKoMLv92Pnzp145pln5Em+lMGH1qTf3NDQEP7whz/gH//4h9zerncwdCGiKEY1Afn9fuzevVvuMyM9zSq3i8HzPDIyMlBQUBDz/klGZrfbsXbtWnznO98ZN8+J3uUni9RyjIyM4JlnnsGpU6cuOn8kk5QOOqQb99jYGN59911s27ZNbsIQFDMr6oFFnkol1dXV+Pd//3esWLECTqeTRrVcgHQjM5lMcfkh+3w+nDhxAoIgJFRHzPORbnqiKKKlpQUPP/ww3njjDQiCIE/0Jd3otSQd0+bNm/G3v/1NnolRj2O5GNJ55TgOPp8PTU1NclqsmkQ5joPdbofD4QB0Cg6Tjd1ux+WXX45vfetbqKioSLgyUyoz3n33Xbz77rsYHh5OqIfeeEn5oEPKiEePHsUTTzyB3t5eOU3PG8lEn79o0SLcf//9mDNnTkIN80pEoiiCi/RMl/6Opd7eXrS1tcnvmyw3AekGj0ie//nPf449e/ZENQNM54n8YoiiiLfeegu///3v0dbWJt+otTyGWAkGg2hvb4/qXCz9lif6TU+FzWaD3W6Peo/pvJ+Rmc1m1NfXY8OGDZNa0FAvg4ODePzxx3HixImkzO8XI6WDDlEU5emsg8Eg9uzZgy1btiAUCoFPgMlipCc9FmmbBICPf/zjuOGGG1BYWBiVnioZdio4xaRYsT4/7e3tci/zWL93vEk3P7PZjA8//BAPPPAAtm7dCo/HE9VUoEXeGhkZwUsvvYT/+T//J/bs2SP/HuP5mfHEGIPP50NHRwdEUYxpbSmnGt5MAce55ebm4vrrr8dVV12VsHlJEAQ8/fTT2L17d0zzSaLT966aYJqbm/HUU0+htbVVnaQLZeEvFTZmsxmf//znsXz58oSZvj1RmSNTHks32VjeRNva2qLWX0k2LDI7o9/vx/bt2/HAAw/gxRdfxMDAgNwkJUTWkFEGIhdD/W+lWrre3l48/vjj+O53v4u9e/cmXa3RRFhknpETJ04AMWxekSRLU56ezGYzli5dijvuuGNcp9tEEQ6HcfjwYTz77LNoaWlJuOOLJwo6FMLhMPbu3YsnnngioToIqguZ/Px8fPnLX0ZpaSmQIL2wExWL0+rB/f398lDZZC8wGGPYv38/vv/97+ORRx6Rh+2ZzWbwMZiYTvlvWaRWsampCb/97W/xwx/+EMeOHYvaP9kFg0F0d3dP65ydixQEkvF4nofD4UB5eTluuummcfPzJMrvlDGGQCCAZ599FgcOHJBrsFJF6nzTSerq6sLLL7+MHTt2JFyVVygUknvFr169Go2NjbDb7bBarXEp4JIdU9RqxPr8dHV1xWw4pN64SDNUc3Mzfvazn+H+++/H66+/HtPhwKIoIhwOo6+vD6+//jq+853v4MEHH0RXV5d616TGRYbJtra2xjzPQZGn4/HeyU4KxhobG/Fv//ZvCVd+QxF0b9myBS+//DLOnj077ZrEZENBh4JU+B46dAiPPfYYuru7gQSJkLlIp0ip46s0FCw/Pz/q5kr+SSqU43VeRkZGoqYwTmYs0pQSDodx9uxZvPjii7j33nvx3//93zh16lRM1oHgeR5nzpzBgw8+iPvuuw+bN2/G6OioerekxyLNViMjI+qkmOCm2RnV6DIyMnDllVfC6XQmZNDBcRx6e3vx9NNP4+TJk/Lr8SqnEpHhgg7pBjyZTU0qfP1+P959911s2rRJXshLjypNqYA5VyHz8Y9/HHl5eYa5+cWL8jye73xOBc/zcp5IhJomdd6+0HYu0m9AqvX4zW9+g4GBgfP+m8no6+vD7373O/zud79Da2urPA+HMji82C0Rmc3muNz0uEhVfKJ+b71lZGRgzZo1YBPUBqn/1hqL1HI8//zzeO+99+D1etW7pATDBR2x0traimeeeQa7d++WmzXiUYhMR01NDQoLC2myoHOIZ8EsLRLFcZy8YKBRsEi/gdHRUezduxeHDh1S7zJlO3bskAtao7dfi6KIQCAQlzyhDLTi8f7JzGKxYMaMGaitrQVTrFacKARBwO7du/HSSy8ZrllxKoz965+mDz/8EI8++ih6enpgtVpj3hN9ukRRRH19vTxLKfkX6akmXjVU0uqn0g3aqKRml+nq6+vDyMiI/KRuZDzPIzc3Ny6TUanzGwUe/5Keno6lS5cCE9RqqP/WQ09PDx555BHs3bt32p2zk5mxf/0XSSoUx8bG8Oabb8rNLIlGFEVkZWUZvhC/WFIHLeXTYaxkZGQYdsiyNGJFGjIrzVY6HTabTa4VMnKQJj1hT7QwG4kvm82GsrIyIPLbT6Sa6bGxMbzwwgt4//33MTY2Zrja0amgu9UEpEKRMYb29nY888wz2L59e0JlYkT6EpSWlsJms6mTUp4y2Jhom676+no4nU7DBnxSfwun04nMzEx18pRlZWXB5XKBKeb9iNW1SCQcxyE9PR0FBQUJV14YnclkQlpaGhAJnKXf5nQD5umSlq1/7LHH5KUTUpkxS8wYO3jwIJ5//nl4PB51kq6kp6pUrqo7n3je2GbMmGHYmg5E5qwRRRHZ2dnjFsq6GCUlJcjLy1O/bDgcxyEtLQ11dXUwmUwxaZoiU5co5aEoihgbG8PLL78ck75RRkBBxyRI1cyJNkqE4zi43W74fL643FjJuZWXl6OgoABQNMcZCRcZPi7VUEyXdL6MeK6UeJ5HdnY2qqqqwCKriBL9JELwEQwGwSYYTZOqjF0CTBPP87BarZg/fz7WrVuH7Oxs9S666+zsTLhgKBFINRxSwBjrH7zL5UJVVZUhO/GKkSHiLpcLxcXFMQk6srOzUVBQYPimQKvVirKyMmRlZSEcDsc034mRtaKM3CdmOgRBkOdH4RJghWIWWb6iqKgI11xzDRoaGmKaH5IVBR3nwRhDZmYmVq9ejVWrViXcU5oYWb8CkXkBKENHCwaDGB4ejksnYKvVioaGBrhcLnnorNFkZWWhpKQkJoGCyWSSb8ZG5nA4MGfOnJjWcEg3T6/XKy9/zsVovhkj8Xq9aGpqkv/Wu++E8vqsWLECH//4x+UH11S+fol1F00wJpNJnlI3PT1djp7j2VdgKtxuN06dOgWv15vSvaHPJRwOw+12Y2RkJOZPh4wxLF68WM4XRpSTkxOzURgmkwk5OTlyRz+jcjqdmD17NhAZVh2LG5+Uv4aHh9Hf3y/X3oGGzEbx+Xw4duyYPKFjIp2bjIwMfPKTn8T8+fMB1XwrqYaCjvMoKCjAmjVr0NjYGJPCI9aOHDmC3t5emEymmD5ZGYHUuVaq6Yh1YCAFpEaehj4vLw81NTXqly9aXl4eMjIyYn4tEoF0/V0uF5YsWSK/HsvvOjg4iL6+Prmmg0QLh8Nob2/HwYMH5abxRLJw4UKsWbMGRUVF6qSUQkHHBEwmExwOBxYvXox169bBarVCEISECzy2bt2KoaEhsEjfBfIv0tNgR0cHenp64lJI5+bmYtasWYYdxZKdnY2SkhL1y1Mm3ZAzMzPhdDrVyUlP+n5msxlVVVVR5yyWTbJDQ0Po7++PS142isHBQbzxxhvqlxOCxWLBNddcgwULFsQ0XySb1P3mF1BaWoorr7wSc+bMAWNMnoEyEUg303fffVdu4yXjcRyH9vZ29Pb2xrwmQlrW/oorrjBsP4WMjIyYzNHBcRwEQYDJZDJsgIbI+frUpz4Vtyfs/v5+dHR0yH/HOk8bwfDwMN544w20tbWpkxLC3Llzcfnll6OwsFCdlDIo6FCQOvfwPI/6+np8/OMfV++iO0EQEAwG8eSTT+LYsWM0D8A5SNeyq6sL7e3tMV+G3mQywWw247LLLkNZWVnCBKSxFMv1hkwmE7xeb1yauhIBz/Oorq7GlVdeGdPvxyKr1vp8PnR2dmJgYEC9C4lgjCEUCqG5uRkvvfRSwgVlPM/DbDbLI1lStbYjNb/1eXAch5KSEqxevRpVVVXqZN1xHIcjR47g+eefpwLoAkRRxPDwMM6cOYPBwcGotOkWSFKQUVVVhY997GNIT09X75L0+vv7Y7owlcfjMeycMhkZGXEpM6T+QlKncWlIqBHPYSwIgoD+/n48//zzOHbsmDpZd2JkvazLLrsMOTk56uSUQEGHAotM5jN37lxceeWVcasmvViCIKCvrw+PPvooTp06Rc0q56EslE+dOoWuri75CVQqyKdbcLPIlN7XXHMNCgoK4rLAl55aWlqwZ8+ecflsKudNeZ57e3vlPkhGU1FRgc985jPql6dNejru7u7G6dOnx10LMl4wGMTBgwfxt7/9DaOjo/Lreuc7puh797GPfQyzZ882XJkxGRR0KHAch/z8fKxYsQK1tbUxrSaNhUAggKeffhqbNm2SV+xUbuRflOfj6NGjaG1tHfc6VDfFqZKa4hYsWIBly5bJtR3qz0hWzc3NePPNN9HT06NOmjQpb/b392Pv3r3yvDJGYrfbsWrVKixevFidFBMcx6G5uRlNTU3Tyq+p5OzZs3j66aexefPmqNo15QOH1ueR4zh5PqX58+fjkksuGTfhpLpMP9+WrCjoUOB5HrNnz8batWthtVoTps2NMYZgMIi33noLjzzyCNrb2+mJZxKkH2Z3d3dU1XSsr2tGRgY+//nPo7CwMKpgSXZ+vx/vvfceXnvtNXi9Xnnug6l+N8YY3n77bWzbtg0+n2/K/z6R8TyPmpoa3HTTTTCbzTH/XTLGMDo6ipaWFrS3t6uTyXm0t7fjV7/6Fd566y34/X7Ng4yJcJEHFZfLhbVr16KysjIqLRXEtvRNchkZGViyZIk8gUuiEEURO3fuxK9//WscPXoU4XCYJgO7AOWTjM/nw4EDB9Dd3S2nxfoHvmrVKqxevVpeSdUo16a5uRlPPPEE3nnnHXg8HrBIk9L5KL/7yMgItmzZgoceekhuYzfKuQGA9PR0fPKTn8Ty5cvBItNex1pPTw+OHz8uj5gikxMKhXD48GH88pe/xLZt2y6Yb7UiBR7Lly/HokWL4HA4wBt0VuOJmAD8L/WLqUaqrpo9ezbWr1+P2tpaue3tQhnhQumxcOTIEfzoRz/C1q1bx43C0OLzk5H6vIiiiKVLl2LGjBkTpqv/niqz2Yzi4mLs3LkT/f39gIFurt3d3WhtbUV6ejry8/ORlpYm31yV31H6f6lGpLW1FZs2bcL/+3//D9u3bx+Xd5Od3W7HwoUL8c1vfhMlJSXTzkNK0rnkOA7/+Mc/8Nhjj02rmSsV8TwPxhja29sxOjqK+vp6FBUVQYysLaTniDOO4+T5n/bt25dSgwJSPujgIqtp2mw2XHHFFbjjjjvkDqSTKUQms8909PT04Pe//z02btwIr9cblRbvzzYSj8eDuro6zJ8/Hw6HQ50ck3NZXFwMn8+H3bt3w+PxqJOTinQ+WGQYYkdHB06ePImBgQF0dnbi1KlTOHnyJJqbm3HmzBm0traira0Nzc3NOHLkCN59910888wzePTRR7F//36EQiFwE7RLx+K866W0tBTf/va3sXLlypjOP6KsKRsdHcVrr72GjRs3Gi5o0wLHcQiHwzh79ixCoRAWLVoEp9OJcDiseydOjuOQk5ODffv24dixYxAEIal/D1PBUnnjOI5ZLBZWXV3NHnroISaKIhMEgYmiOKktngKBAPv973/PqqurmdlsHnfc6k393WiL3q699lq2f/9++fzG8jpK+aanp4fdeuutzGazjfv8ZNqU+cpsNsv5z2azsYKCAlZVVcXq6+vZokWL2Ec+8hG2YsUKtnLlSrZixQo2b948lp2dHZVn1Xk12fNteno6u++++1ggEFBnhWkTBEHeDh06xG644QYGgPE8n7TnS6/NZDIxm83GLBYLq6ysZH/4wx9YIBBgoVBIfdp1IQgC+9Of/sQqKioYLvA7UW/q75pE27gXUm5zOBxs7dq17MiRI1MKOGJxszqft99+m61YsYLZ7XbG87x8vOrMZ4BMqMlWUVHBnn32WRYOh2N+HQVBYOFwmDHG2M6dO9nll1+e1IGHMl+ZTCZmMpnk16V9eJ6XAxIpf0rpXCRYmej91Jv6sxN9M5vNbM2aNezkyZPyNY8lZdDx/PPPs6qqKvmzleUAbZPbLBYLM5vNzGQyscsuu4y9//776lOuG1EU2bFjx9jq1avloFL674U29fdMli32vZ6SUFpaGhYtWjTlYbJT2XcylO3jvb29eOyxx3Dw4MFxnUaN0ldASzzPo6urCzt37oxL2zgXaaYDgMWLF+OrX/0qamtro9KNgCk64bJIp1JpnRsusgqzRBRF8Dwfl86VWpOurcPhwPz58/H1r38dNTU1cfktSp0KBwYGsHv3bnR2dqp3IVMQCoXkTqSHDx/GI488Epcy4GJwHIfq6mosW7YMeXl5cclPiSb5S4MYyM3NxUc+8hFYrdZx7c3n22JN+Z6vv/463n33XYyMjIwLOkCBx5RJncreeecdNDU1RaXF4loq38NsNuNTn/oU7rzzTpSWlspDaGPxOXqQOt5J30HKe1LQIfVBkF6Xvqf69WSlDJpKS0tx9913Y+3ateAjE3fFy759+/D6669HTUWf7OdSL1JwPDw8jK1bt+KFF17QvY+MtISF1WrF6tWrUV5eDig6Yhv1Wqd00MFxHGw2G2bPnh21HLXeTpw4gRdffJGecGIoHA5DFEUcPXoUO3fuhNvtVu8SU1arFbfffjvuvvtuFBcXJ3XQQf55IygsLMSXv/xlXHfddXLH0XgNw+zr68O2bdvQ1NQkf4Yy4CMXr6urC5s3b8apU6fUSZriOA7BYBCCIGDx4sWYPXv2hJ3cjSalgw5EajmWL1+OoqKihPhBe71e/P3vf8eePXvg9/vVyWQaGGPw+Xx47bXXxtV2xIPT6cT69etx++23w+VyTRh4TPQaSSyiKCInJwd33nknvvKVryAjIyOqNieWRFFEIBDAkSNHsGXLFgQCAfUuZJqCwSAOHz6MTZs2qZM0xfM8TCYTeJ5HTk4OLrnkEnlVZyOXCykfdBQXF2PlypXyU4TeVcJNTU147bXX0NfXZ9hMpwflj/jAgQN4//330d/fH7cnVUlOTg7uuusubNiwAbm5uVFNEHR9Ex/HcbDb7bj99tuxfv16ZGVlRaXHur8Kz/MYGhrCzp07ceTIkahySK8yyYh6enrw5ptv4ujRo7qdVy7SD0y69yxfvhxlZWWAIl8lwj0p1mL7i0kyNpsNM2bMwNy5c4EJqkq1vsiBQACbN2+Wx2yT2JF+tBzHwePxYNOmTTh06NC4ax4PBQUFuOeee7BhwwZkZ2fLnRKTtTBJhWBJKvQLCgrwla98BV/96ldRXFw8YR+WWFDmw6NHj+LVV18dNy8PiQ3GGPx+Pw4fPoznnntO7tuh5w2e4zjU19ejvr4edrtd7pytptfxxVJKTw5WWFiI6667DpdffnlURzkl9d/xdODAAfzxj3/EsWPHJpWxtDw2oxkcHERBQQHmzJmDjIwMdXLMOZ1OzJs3D06nE83NzfB4PAkdWE4nb03n3yYKm82G7Oxs3HvvvbjrrrvkTn6CIIyr3Zju95UCDlEU0dnZicceewwbN26kac/jLBgMgud5zJs3D0VFRXKNg/J6TvfaToXFYkF3dzf27NmDsbExdbJhpFxNhzITFRYW4iMf+Yj8t57T4gLAm2++iePHj08Y/JDY8ng8eOGFF7Bv3z5NajsQaWq5++678cADD6ChoUH3/EbOrby8HN/5znewYcMGlJWVyXkkHqNVpCGyXq8Xe/bswUsvvYRAIDAuuCGxJYoimpqasHnzZgSDQXk0iV44jsPy5ctRXFysTjKUlKrpUN7IHQ4HFi9ejFtvvRUOh0NuWzvX/vEgZXKO43D69Gn8+c9/xuHDh+UajgvVdJDpGR4eht1uR0NDA3JycuTXJ7vuzsWwWq2YM2cOKioq4PP5cPLkSYiR+SykJ61EcKHvfqH0RGaz2aJqmZTfxWw246Mf/Si+8Y1v4JZbbkFaWhqgmHNkIrE4F8oy4L333gNjTA5wEiVPGA1jDGNjY7BYLFi+fDlyc3PHPfDF4tpORWZmJrZv344jR46ok4DI8aiPMdmkVNChVFhYiE996lNYvXp11DwKWl5UqUkHAJ566im88MILcLvdk2paIdMniiJ6e3tRXFyM+vp6eZ4WqYo1XnnAbDZj5syZmDlzJtLT03H69OmEq06dzHefzD6JiOd5iKIIi8Ui12DwPI/c3Fx84QtfwF133YVPfvKTsFgsCAaD4BQTv030u5zueRAEASMjI9i0aRMeeeQRjI2NRXUkJPEj/dbLy8uxdOlSXZtXBEGAxWLB6dOnsX///nF9erQ8lnhKuaBDunDl5eX40pe+hJkzZ8o3GmW6FrjIEsc9PT347//+b+zZsyeh2/mNhud5eDweuN1uzJkzB9XV1fLr8c4HoVAIhYWFaGxsREFBAXp7ezUZTTNZ8f7+elL2oUDku15xxRXYsGEDbr31VsybNy+qVuN8AQemea5EUUQwGMS+ffvw29/+FkePHgUin0kPH9rwer1wuVxYtWoVHA6HbkGHFPB4vV7s2rVLXq2ai+MDkB5SKuiQLh7P85g7dy7uvvtuuFyucela27JlC5555hl0dXWpk0gccRwHURTR09MDm82GefPmjRsSGS/BYBAWiwVpaWlYsGABZs+ejczMTLS0tCTECrV6/A70UFtbKw+H/cQnPoGcnBzwPB/VYZS7QLPXdM4Vx3FobW3FQw89hNdff12uWcF5ghwSW+FwGFarFbNnz0ZNTY1uQYd0b8rOzsabb76JlpaWhHkIiaWUCjokGRkZWLlyJT772c9GFSzK/2qB4ziEQiH89a9/xVtvvUUTAWlMKtRFUURHRwcKCgowY8YMOJ1O9a4xx0Wq7BljsFgsqK6uRmNjI8rLy+F0OnH69GlA8fSjdUCs5WfFGh9Z70V505bOtfT/RUVF+NKXvoQvfOELuOmmm1BfXy//O0TOu/QeyvM/0XaxpCXXX3zxRTz88MMYGhqSj5FqObQVDAaRn5+PSy65JGo5DOU1mM61ngwprzmdTuzatQsHDx5EKBSKOo54H4MWUi7o4DgOxcXF+OxnP4ulS5eOu4jqv+OJMYbjx4/jySefRFNTExUyOhobG0NfXx+qq6tRVVUVl1EKShM9RbtcLsydOxezZs3CnDlzYDKZ0NnZiWAwOK7QiXc+jff7x5PZbJY7aUuBg8lkghiZyvy6667D+vXrcfPNN2PRokXykGnlNVE/jMSK8jp6PB689957+NWvfoVTp07Jx0gBh/a8Xi8yMjLwkY98BHl5eeA4DoIgjLv+6r9jTSoPenp6sH37drl/jxSQGEFKBR1c5OmyoqIC69evR2lpqXoXzS/s888/jxdffDHua4GQC+vt7ZX7d5SUlGiaF8TIomomkwnFxcVobGzEzJkzMXv2bHAch66uLk3nbdDyu8easkpaunlXVlZi3bp1WL9+Pa677jqsXr0aaWlp8hoq0Og7c5EnaEEQcOTIEfzqV7/CBx98ADGyIJl00yHa43kes2fPRkNDg3wd1HlC/XcsSe/NGIPNZsPWrVvR1dUFjuMMNZIp5YIOu92ORYsW4Y477oDNZlPvEtdMpebxePD444/jgw8+0PSGQibGcRy6u7vh8/nGDaONJy7St0Sam8FkMslNAAsWLEBDQwMWLlyIjIwMnD17FqOjo+q3iDktfwfxIDWn1NbW4qabbsIXv/hF/I//8T9w2WWXobi4GIwxhMPhqLlStPzOra2tePDBB/Hyyy/LNVlGurEkI7/fj6KiInzsYx87Z02X+u94kIKOLVu2oL29fcJVxpNZygUdmZmZWLt2LdatW6d59Zl6/od9+/bh8ccf1321Q/LPa8LzPEKhEFpbW2G1WlFfXx/V0TieWKQPgXK+GOkJRxrSO3/+fCxbtgwzZ86EzWbD8PBwVNMLYjjBXTx/B9N1rmOzWq1gjMHlcuGyyy7DjTfeiK985Sv49Kc/jaVLl6KwsBCmyAJbLNLkAo1GK0nXSBRF9Pf346GHHsJf/vIXDA8Py31JpONC5DtOZiOxEwqFkJWVhUsuuURerkDr8y3VrphMJuzbtw+HDx+Gz+cDUyzjkOxSKugAgPz8fHzuc5/D/PnzgQkKMPXf8SB9xiuvvILNmzdjeHhYvQvRgfTD9vl8aG1tRVZWFmpra2GxWOJ+Y5IKmnN9Bh9ZibKurg4LFixAY2Mjli1bhsrKSvmYfT4fEAk8lMNBz/We53Mx/0ZPGRkZaGxsxNq1a/GlL30J119/Pa699lrMmTMHWVlZcrChfIK92HNzsTiOw9mzZ/HUU0/hj3/8I3p6euQaGclUn2i1PP5UwBjDrFmz0NjYqOu5NZlMaGlpwa5du6JqNvU8plhJuaCjqqoKd9555zmnmo3nRVUWch6PB3/729+wc+dOuT2fJI7R0VGcPn0a5eXlqKiogN1uj3veOB8uUhNjMpmQlpaGsrIyuf156dKluOyyyzBr1ixkZ2cjHA5jeHg46j0v9P5qU91fC+ogoby8HKtWrcI111yDL37xi7j++utx1VVXYcWKFaiurobdbo8KFvX8ThzHwe/3Y/PmzfjpT3+KlpYWwzy5GkkgEEBlZSWuuOIKdZLmfD6fvBq2kXAAphZaJzGz2YwrrrgCTz/9tFxtrn6y0KoQOHToEL71rW9hy5Ytus/5T8bjI7NWNjQ04N///d9x7bXXarIw3GQEg0GYzeaoQFUURQwODqKzsxNutxvt7e1oa2vDqVOn0NbWhtbWVgwODmJ0dHRcnp/IZH8Hk3mv6XK5XMjNzUVJSQkKCgpQU1ODhoYGlJSUIC8vD4WFhcjPz4fZbI4KMtRV0pP9TvEQDAbxyiuv4Pvf/z72798vd2DlOG7c73+q53Sq+5OJSbVg69atw+9+9ztUVFSod4k75bXs6+vDLbfcIk+Lr155Nlmve0oFHRkZGfj85z+P3/zmN3IG08uTTz6JH/zgBzh+/DjVciQgTjGKYM6cOfjP//xPXHXVVQkReITD4QlvoNIxm0wmBINBDA8Pw+12Y3h4GAMDA+jr60NfXx+GhoYwMDAAv98Pr9cLn88Hr9cr/x0IBMbdCCeiLvSUN/mJju9csrKy4HK54HQ64XA4kJGRgdzcXOTn58NisaC4uBhZWVnIyMhAWloacnNzUVhYCKvVKvfLUn6edB7OdTxTObZYcLvd2LZtG376059i+/bt8jVSHqdEfU4n42L+DRlP6uPT0NCAH//4x7j66qvVu2gqGAxi/fr1eO655+D3+8d1KE3W655SQUdxcTG++c1v4r777gMusIhTPImiiO9///v43e9+R0Nlk0RjYyO+9a1v4ZprrtGsc+lUSAXQ+W6owWAQfr9fDi5CoRCCwSBCoZC8SQHHZAo09Q1Teu18xzARh8MBu90Oq9UKi8UCq9UKh8MBp9MJs9kMh8Mx4bwp0udM9HnqwlnroEMqW4LBIJ577jn8/Oc/x759+8adL8TgeCZ6TzJ1XKTjdlFREb72ta/hm9/85rSvzXQIgoCf/OQn+P3vf4/+/v5xv7dkvu4sVbbZs2ezrVu3MsYYE0WRCYLA9NDV1cVuvvlmZrFYxh0jbYm7zZkzhz3yyCNscHBQfUmTiiAILBwOs3A4zERRZKIoqneRfx8X2qT3CYfDLBQKyZvy9Qtt0udLx6L+XSpfV27nOnam+DcTbVoIhUJscHCQ/eEPf2ALFixgFouF8Tw/Lk8BYBzHTWtTvx9tF7fxPM/MZjNzOBzs9ttvZwMDA+rLqilRFNnf//53VltbO+6aJ/N11/4xX0culwv19fUA/hkl6lXL0drair6+PmpWSSImkwnHjh3DT3/6Uzz88MMYHBxU75KwGGNRNRhSh1TlEE3lvlLNgDTaY7Kb9J7KkSKT2ZSfKX2ukrJGQ7klKlEU0dfXh4ceegi/+tWvcOjQIQiCIHdsJYmJReZu8fl86OjoQHt7u3oXTXEch7q6OqSlpY37nSazlPkF8DyPvLw8ZGdnAzGo0rwYUsHa1taGvr4+Q2Uko5NujE1NTXjwwQfxi1/8Am1tbXJ6oq8OrO5kCdVN/GKpAwHpM6a6Xci59jnf6+fa4kEQBPkhoqurC7/85S/x61//GidPnpRHp6nnVJFIeetiNxIbynPZ1taGpqamqHQ9lJWVISMjQ+5vYgQpE3TYbDaUlpZG9RrXmlTotbS0oLe3lwqMJCIq1sSQVgX94Q9/iOPHj0MQhHHzLSQSLjIHyERP2erfQTxvzOdysZ95Mf8mXqTrv2/fPjzwwAP461//Om7V6Mn2lSH66+/vj3qo0EtaWhqKi4vjPmRfS+NLIQORClsASE9PR11d3YQFr5aGhoZw4sQJuQNpvJ/ASHwMDAzg2WefxX333Yft27fLoyikjpkk9pS/lUT7vfj9frz00ku47777sGnTJrnjH0lOg4ODOHPmjDzhnl6sVitmzpypycrXWtH3DhxnHMfJNRtOpxOVlZXqXTTX2tqKzs7Ocw57JMlBEAQMDQ1h69at+MY3voHHH38cbrdbHoFBUsfAwAB+9rOf4bvf/S527NiB4eFhWCwWCjqSmCAI6OjokGs7BEHQpQmV4zhUVVXB4XAYJj8ZOugQRRF+vx9cZM0VqROpXhhjOH36NPr7+3WvcSHTx3EcAoEA9u3bhx//+Mf4wQ9+gFOnTulSOJH4UXb4lgp+xhjGxsawfft23HPPPfjTn/6E48ePIxgMApGmFJLc+vr65N+z1OlZD5WVlVTTkWxMJhOysrKQn5+vTtIUx3Ho7Ow03LS2qY4xhpMnT+Jvf/sb7r77bjz99NMYGRkBY4xGKBnARDcbn8+H//qv/8I999yDl156SV6CXBmUkOTW39+Pjo4OXftrMcZQWVkJu92uTkpa439NBmQ2m5GXl6f7bJLBYBAtLS04e/asbpmYxB7P8zCbzRgeHsbWrVvxve99Dw888ACOHj1K/TsMQBRFufYqHA5jx44duP322/GLX/wC//jHP+Dz+WA2m6m51GAGBgZw5swZ3SaRlO4RBQUFyMzM1OUY4sEY3+ICpJqOtLQ0dZKmBgcH0d3dDZ/PFzXEjiQ3xhiCwaB8czpz5gyeeuopfPnLX8aTTz6JwcFBCjKTGB+Ze6S3txf/9//+X6xfvx4vvPACuru75doNQRAowDSYsbExdHR0yKu8ah1UssgUCxaLBTk5OYbpK5YSQYfT6cSMGTN0L/gHBgYwNDREwYbBSPlKuq6iKGJoaAh79uzBD3/4Q9x55514++235cBEanbx+/2UFxKEz+eLahpR9ssJBoN4+OGHcf311+NXv/oVDh8+jEAgIN+EpGtKjMftdo8b+qwVqWbDYrGgtrbWMP06UiLosNvtKCkp0b2Ab21tpf4cKUAKKgRBQEtLC1555RVs2LABGzZswLvvvotgMCg/PUM1B4i0EW1I59rhcMhBRDgchslkgs/nw6ZNm3DdddfhP//zP7Fnzx643W66PimC4ziMjIygp6dHnaQpnudRVlYW1a8jmfOgoYMOLjJDos1mQ0VFhe5Bx+nTp9HT0wOz2QxTZJVJYlzSE7PX60VTUxMee+wx3HXXXbj33nvx3nvvyT3iA4GA+p8SjUz0GwwGg3jxxRfxuc99Dvfccw/efvttdHV1wefzgVfN6kqMi+M4nD17Fq2trbqMSJMCC47jUFFRAYfDod4lKRk66JBYrVYUFxfrXlh4PB4EAoFzzg5JjEkqPHw+H06cOIGHH34YX/ziF7F+/Xps27bNUD3Tk1U4HEYwGMQTTzyBG2+8Ed/4xjfw6quvorW1FR6Ph36vKYgxJvfD0yvokB6Ui4uLYbPZdL+HxYLhf0k8zyM9PR05OTkTLo8dT8q23kAggL6+PoyNjSEcDstTIlOVujFwE6zxIW1KLNLptLW1FX/9619xyy234MYbb8TGjRsxMjIy4b+RmmqkzsfUh2BqpMJbOmfq6ciPHj2KX/7yl1i7di3uv/9+vPHGGzhz5kzUb1QUxXHXRaK+3lPdSGJijGFkZAQDAwMQBEHX31xRURHS09PBKYZlJyvDBx0mkwlpaWnyQm9akwqVoaEhnD17FsFgUPcMTBKDFHw899xz2LBhA6666ir84Ac/wMmTJ6P2C4VCMJlMcpMcBalTwykWokNkCL3X68VLL72EL33pS/jUpz6FX/ziF/jggw/Q09MjT/CFCdrO6dynDi6yrMHIyIgunb6VeTYzMxNOpxOMMZhMJlgslqQNWA0fdJjNZuTn58NqtaqT4k6ZKXp7e3H27FldqulI4hFFEWazGRaLBaIooru7Gx9++CF+85vf4JprrsFtt92GP//5z2hvb4fNZpP/HYssTU/V/VPn8/lw8uRJ/J//83+wcuVKfPnLX8YzzzyD5uZmDA0Nyb9NCiqIRBRFDA4O6j63Unp6OvLz8+Wm+WSu7TR0ycUi45wLCwvVSZqQgg7GGM6ePYuhoSH1LiSFMcYQCoXkJ6hgMIjBwUGcPn0azz77LL797W/jiiuuwK233orHH38cBw8epI6MF+Ef//gHfvOb3+C6667DmjVr8JOf/ASHDh1Cf38/PB4PrFarPJyZEIl0/xgbG8PAwIAuvzupCY7neRQWFsJut8tNrcnK0EEHIlVUevf65TgOo6Oj8Hg86iSSpKRq9sls5zJRwSH13/D5fHC73Thx4gSef/553HPPPfjkJz+Ja665Bv/7f/9vfPDBB/JKxYg0wajf53yffaF0iTIo0spEE21JxyAds7SP+tgYY9i/fz+eeuop3H333fjoRz+KW265BT/5yU/w1ltvoa2tDSMjI1H9Oi40ekh9PWO9kcQliiLcbjfcbjd4ntfleklBh8vlgtlsHpfnkw0HQPuzqKHc3Fzce++9+O53v6tO0tRDDz2EH/3oRzhz5ow6iZBJM5lMcLlcsNlsyMvLw+zZszF79mwsW7YMM2fORHl5OWw2G8xms3xTk56WELlZS4XYhYiRTqvSv+dU/UkmWwBP1BwknmdqaeX7KmsLpb/D4TB4nkc4HMbo6CgOHz6M48ePY+/evTh+/DhOnToFv98Pv98f1YdqqsdNCMdxqK+vxwMPPIBbbrlF/j3p4Qc/+AEefPBBDAwMyAFQMuZlwwcdxcXF+M53voO7775b88wiPU1ZLBb89re/xY9//GPdJ5ohyUu66Sv/tlgscpBhs9lQVFSEqqoqzJkzB6WlpaipqUFxcTFyc3PhcDiQlpYGq9UaFYgoSQWZ9DQ1UcBwsaT3lSZFk15TH4d0DNIxejweDA0NIRgMoqmpCc3NzThx4gQOHTokT1MdDAYRDAblkWFSLZJ6AjZCJkv6vRUWFuI//uM/sH79el2bN3/961/jpz/9Kbq7u2E2m5N2QILhg46Kigr88Ic/xI033qj5hFzKQvZ73/sefv7zn8Pr9ap3I+SCbDab3AygDD44joPD4ZDnmZD2tdlsMJlMMJvNsFqtyMzMhM1mg8PhgMvlQmFhIdLT0+FyuWC328f9LqQe8larFTk5OSgoKAAUPerPFbScSzAYxOjoKMbGxuRO3dLffr8/qqnJ4/FgeHgYAwMDcLvd8Hg8cLvdCAQCECKTrUnNK+pmGAkfWYRPaq5KxsKZJIa0tDR861vfwne/+90p5/tY+q//+i/86Ec/Qnt7O6xWK8LhcFI2tRg+6KitrcWDDz6Iq6666rxVuvEiROZWuP/++/Hb3/5WnUzIpEzUnqysDZD+VqYpqYMFaVXUcz25Sa9xHCcP150uZXON8m/1sUqvKwOGifq/XAhngDkNSGL46le/it/85jfn/L1oYdOmTbj//vvHDalPRszIW21tLXv99dcZY4yFw2EmimLUFm+CILDh4WF2xx13jDs22mib7MZx3JQ29b+njTbaLn676667mN/v1+SecS6bN29mM2fOTPrft7aP/TpQRqV6RKg8z8Pr9dLIFUIISVI+nw9jY2PqlzWlx/0rHgwfdEzUUU1rHo8HPp9P/TIhhJAEJfWHAoCRkREMDg6qd9GUsik1mRk+6ICObbtSJx+PxwMWmb6WEC1IBRRtF94ImYiyc3YoFILf79c1v3Ach0AgoMu9LJZSIuhApMZDD4wx+Hw+Q2QWQghJRcoARC+cTg/PsZYSQYcUnWodpUo9nT0eD7xeryEyDCGEpBKO4+D3+3VvItf6/hUvhg86EuFGL82OmAjHQgghZGqCweAFp8snk2P4oIPneaSlpQHnaOfWwsjIiO49nwkhhEwdz/MYGRlBf3+/OolcBMMHHVLtglYBxrlQLQchhCQfRovzxZThgw5lfw7KNIQQQqaKgo7YMXzQQZmFEELIdNB9JHYMH3SoKavKtMxEWn4WMR51vqUtdhsh5yOtD6R3XkmEY4iFlAg6jHChCCGE6GOihQnJxTF80KFeVVbL0SuUSQkhhJB/MXzQwRiTpyPXCwUfhBCSvIzStJEIDB90cBwnBx3xrtkghBBCyLkZPugA1TQQQgghCcHQQYcW/TYIIYQQMjmGDjqkdji9eh7TxGSEEJKclA+t9PAaO4YOOpAgU9hyHAez2Sz//7k2QgghiUMqly0WC6xWqzqZXISUCjr0CjwcDgfsdjsFFoQQkkQYY+A4Dg6HQ144lEyP4YMOvTHG4HA44HA4KOgghJAkoXxQdTqdcLlc6l3IRaCgI46kDOtwOGCz2dTJhBBCEhxjDFarFU6nU52kKY7jxk12mYyS/xskOI7j4HK5YLFY1EmEEEISFM/zUTd5vW/4Uq15stP3LKYIu90Ou92uW58SQgghU2c2m2GxWHQPOABAEAQIgqB+OenofybjTO9+FIwxpKWlIS0tTfdjIYQQMjmiKEIQBDDG4HQ6kZmZqd5FU+FwGIIgJP19xPBBB3SeN18URXn0il7HQAghZOoEQUA4HIbL5UJeXp46WVOBQEAeTWMymZI2+DB80MEYQzAY1CXwkObfcDqdMJlMcoYhhBCSHHieT4jBAAMDA3Lgocf9LFYMH3SEw2GMjIzAbDbrcsPneR5msxmZmZmG6ARECCGpQnpozMzM1L1fh9frRTgcBiI16MlK37OogVAohMHBQbnWQQ9msxk5OTlIT09XJxFCCElA0hDVtLQ05ObmyrNK62VsbAyhUEj34Ge6kvvoJ0EQBIyNjalf1hTHcUhPT6eaDkIISTJOpxNZWVm63+z9fj/C4XDSNqtI9D2LccZxHERRhN/vB3Rc4p4xhuzsbKSnp+t2DIQQQqZGKruLiop0qymX+P1+CIIAURTB87zux3OxDB10SJ1I+/v71UmaYoyhrKxM997PhBBCJo8xhvT0dGRnZ+v+wOh2u+U+HdSRNIEFAgF0dnbqMr5ZmSmsVivNSkoIIUlCul9kZmaioKBA95v80NCQfAx6H8t0GD7oCAaDcLvduszkxnGcnDkqKipQUFAQlUYIISQxscgUBy6XS5c+HcraDEEQoubpSGbankUdCIIAv9+P4eFhdZJmpIybkZEBk8kU9TohhJDEwxiD2WxGbm6uLoMARFGUgw63242hoSFdHp5jzfBBBwCMjo6itbVV/bImpMDCZrOhqKgoannkZK4iI4QQo3O5XCgsLITT6dS8vJaG7AJAd3c3xsbGogKRZGX4oEM9gkUPHMfBYrGgpKQE2dnZgCqKJYQQknhyc3NRWVmpy+SSUsDBGEN7ezu8Xq96l6Rk+KCDMYbh4WGcPn1anaQpjuNQUFCArKwsCjYIISQJZGdno6SkRP2y5rq7uxEIBNQvJyVDBx1cZGEcQRDQ1dWlTtYUx3GoqqpCQUFBVMQsdRaiQIQQQhJLfn4+ysrKdJ92vKOjg4KOZMFxHLxeL06dOqVO0lxRUREyMzPB6TglOyGEkMnJzs5Gfn6+5iNXlDiOQ2trK3w+nzopKel3JjUi9efo7OzE6OioOllTubm5KC0t1aUnNCGEkMnLzMxEZWUlXC6XrjXRbrcbbW1tuvZLjCXDBx2MMYRCIYyMjKCvr0+drCmLxYLS0lJkZGTomokJIYREU9Y+m0wm5Ofno7KyEjzPQxAE3Yar9vX16TbXVDwYPuiQMtLg4CA6OzvVyZqrra1FTk6O+mVCCCE6Uj8IFhYWoqamZsI0LfX39+teSx9Lhg46pA6aPM8jHA6jublZvYvm6urqUFxcrH6ZEEJIghAEAXl5eXLQwfO8bv06Tp8+bZimFRg96EAk8OB5HiMjIzhx4oQ6WXNlZWWorq6mdVgIISSBKDv42+121NTUoKysbFya1o4dO2aYOTqQCkEHIp1JR0dH0d7eruvQJ8YY0tLSUF1djdzcXN0iZ0IIIdGUTSj5+fmoqamRJwXTK+AQRRHNzc0UdCQbURTh8/lw+vRpjIyMqJM1w0WmtZ01axYKCwt1bSckhBASTaoZLy4uxsyZMwGdazlGRkbQ0tJimDk6kCpBh2RsbCxqvg69bvpSvw69MjIhhJCJ8TyPwsJCVFVVqZM0d/LkSXg8HvXLSS2lgo7R0VEcP35c/luvm35tbS1qampgtVrVSYQQQnTCcRwcDgeqq6tRUlKi24OppKmpiYKOZKau6dCaNJrG4XCgoaEBRUVFgGJhH0IIIfphjCEvLw+zZ8+G0+nU7cEUkW4BTU1NGBsbUycltZS623k8Hpw4cUKeTlbrKJYxJq8uu2TJEsyYMQNQrBFDCCFEPzzPo7a2FkuXLtX9YdDn8+Ho0aMYHR3VNfiJNX3PqsaCwSA6OzvR3d0t1zrogTGG6upqVFRUwGazyTPNGSljEUJIsrFaraiurpY7keqpq6sL/f39CIVC6qSkllJBhyAI6O7uxuHDh8EY0/QmLwU40mfm5uZi/vz5yM/PB8dxEARBtyCIEEIIkJOTgzlz5iAjI0OdFHfq8v/EiRPo7++fMC2ZpVTQAQDDw8M4ePAgoHHNgnrYFWMMixcvRnl5uaEyFCGEJKuKigosW7YM0OFGr/w8URSxf/9+jIyM6N7ME2vG+jYXwHEcPB4Pjhw5onuVFcdxqK+vx8yZM+FwOMDzvKZBECGEkH+x2+2YM2cOZs+eDegQdCiFQiF8+OGHus4rFS8pFXQAgNfrRUtLC3p6etRJmpGCi6ysLCxbtgyFhYXjakIIIYRop6ioCEuXLkVWVhagw6hCnuflQKevrw+9vb0IBoMQRdFQ9wdtz6rOpNEjAwMD2L9/vzpZE8qMYzKZcMkll6C6uhomk0nzTE4IIalMWR5XV1fjsssuS4ib+/79+3H27FnN+x5qISXvcsPDw9izZ4/m1WfqzCM1sSxcuBAZGRmaHw8hhKQqLrIsBcdxSE9PR0NDg7yqrN727NkDt9s97p5hBCkZdLjdbhw+fFiX9jKpmozjODDG4HQ6cfnll1OHUkII0ZhU5s6YMQNr1qxBWlqaehdNiaKIsbGxCScFM8r9ISWDDkEQ0NraimPHjqmTNCU191x66aVoaGiAzWZT70IIISROGGOw2WxobGzEpZdeqk7WlCAIEEURx44dQ1tbG4LBIBA5RqMEHEjVoAMAenp6sGfPHvXLmpKq9/Ly8rBixQpaBI4QQjTCRWaCLioqwqpVq5CXl6feRVNSYLFr1y50dnbKs1cbKeBAKgcdIyMj2L9/P3w+X9RFlS6yFhdaGWCsXr0a8+bNg81mk4MRQggh8cEYg8Viwfz583H55ZerkzVnNpsRCoWwZ88e9Pf3a3Yf0lrK3tm8Xi+OHTuGkydPqpNkWl7w2tparFmzBkVFRVFDpwghhMQeYwy5ubn4+Mc/joqKCnWy5hhjaG9vx6lTp+SmFSNK2aADADo6OrB7924g0p6m943+iiuuQENDAwUdhBASZ1arFQsXLsSVV14Jk8kEURTVu2hKFEXs2bNH1zmktJDSQcfAwAB27doFv98PQRB0n6V0xowZuOqqq1BYWKhOIoQQEkOlpaVYt24d6urqEuJBLxQK4YMPPkBPT4+hm9eN+80mwePx4OjRo2hubpaHsSqp/443s9mMdevW4dJLL5WXutf6GAghxOgcDgdWrFiBq666CiaTCSwyCZeWffok0mcdO3YMR44cgcfj0b3WJZ5SOugAgPb2dmzfvh1msxkWiyVqHg2tMcZQVlaG66+/HnPnzoXZbNbtWAghxIg4jsPMmTNx/fXXo6ysTB4lojbRa/Egfc727dvR1tamTjaclA86ent7sWPHDvj9fnWS5qQhXGvWrMHVV1+N/Px8QMPMTwghRldQUIBrrrkGq1atUidpSupHyBjD6Ogotm/fLjetWCwWwzaxGPNbTUEwGERTUxMOHz6sTtJcOBwGYwyZmZm46aabsHjxYlgsFvVuhBBCLoLVasXSpUtxww03wOVyRdVsa12jrGzGOXDgAI4cOYJAIACz2SxPFGZEKR90AEBnZye2bt2qfhnQeN4OKGo15s6diy9+8YvyMsuEEEIuntlsxqxZs3DbbbehoaHhgkHGhdKnS+pLAgDbtm1Db2+vPIrGqAEHKOj4p7Nnz2L37t3o6OhQJ0UFG/EOPEwmk9yZieM4XHXVVfja176G6upqw1a1EUJIvJlMJtTU1ODLX/4yVq9erU6W6VHr0dbWhl27dmFoaAiMMYTDYfUuhmIC8L/UL6aaUCgEQRBQU1OD+vp68DwPURQRDoflUSTQIPJVs1gsqKurk5uA1AsAEUIIubDS0lLccccduP3225Gdna1OBnQo3wVBAAC88soreOGFF9DX12foGg5JygYdXGSqcWl8ttfrhcvlwsqVK+F0OuUMKC19rHWGROQYbTYbZsyYAa/Xi5MnT8Lr9ap3I4QQcg6ZmZn44he/iDvvvBMFBQVRaXrUbEgYYxgZGcGf//xnbN++HYFAQL2LIaV00CFlNI7j5FqNefPmoaKiQg5ItKT8ASh/BBkZGairq4MgCBR4EELIBUgPk4WFhbj55puxfv16VFRUyLULnKIZWy+CIOD999/HY489hvb2dvl19X3gXFuyStmgAxN0EvX7/cjMzMSKFSsSbtRIdnY26urqMDo6itOnT8Pn86l3IYSQlCbdjK1WK3Jzc3HzzTfjrrvuQl1d3bibtt437pGRETz00EN47733IAiC7sejlZQOOtT8fj/MZjOWLVuGoqIidbLusrKyUFVVhbGxMZw5c4YCD0IImUB+fj5uvPFG3HXXXZg5c2ZUkJEoN/ddu3bhb3/7G06dOiUfU7wHKyQCCjoUOI6DIAjIy8vDJZdconnzymTk5+ejrq4OnZ2daGlpSZl2QEIIORdlIOFyufBv//ZvuPfee1FbWyuX46IoJkQNh+Shhx7Ca6+9Bq/XK8+KmijHFk+Jd1fVEWMMnZ2deOONN3Ds2DF1su6kKHjmzJn45je/icWLF8Nqtap3I4SQlCF19gcAm82G5cuXY8OGDaiqqgIX6bsh9eXQk/IY9u7dix07dmBoaChqn1RAQYeKKIpoamrCm2++mXDjpZVRcGNjIzZs2IDi4uKUiI4JIWQiyhVi6+rqcP/992PRokXydAeJUsMhHWMwGMTLL7+Mw4cPRwUieh+fVqh5RYXneXmJ+9mzZ6OkpES9S8IoKyvD2bNncfz4cerfQQhJKcoRhjzPo6CgALfddhtuvfVWmEwmeb4lLjI9gt6Bh3Ss27dvxyOPPIJjx47J83LoeVxao5oOFcYYQqEQ9u7di40bN2JkZES9S8JwuVy47bbbUF9fHzWJGSGEGJ3UbCIIAux2O+rq6vC5z31OHnmYKDUcEsYYPB4PNm/ejH379sk16YlyfFqhoENFysj9/f3YunUrdu7cmdA9iuvr63HNNdcgMzNTnUQIIYbFGJNrD5xOJ9atW4cZM2ZEpSfKDV0URYRCIbzzzjvYunVrVF8O5bQNqYCCjgmwyPz3x44dw6ZNm9DX1ye/nkjC4TA4jsO1116LkpKShPmBEUKIViwWCwoLC3HttdfKi6iJoiivZZUI5SLHceju7sbGjRvR1NSUMMelBwo6zmNoaAivv/46tmzZAkSi1UQiZdqZM2di1qxZsNls6l0IIcSwpFqC2bNno6qqSn4tEW7oUvAjHc+WLVuwfft2+Hy+lKvdUKKg4wJaW1uxceNGHDhwQJ2kO2U/jurqago6CCEphTEGu92O8vJy2Gw2+QafCEGHhDGGw4cP49VXX0VLS0tCHZseKOi4gGAwiPfeew/PPfcchoeH5cg1ESijZYfDkZCTmRFCSDzxPA+HwyH/nSg3dS4yasbv9+OFF17A9u3b4ff7E2LOED3RXeo8pMx79uxZbN68GW+++WZCzZGfKNWIhBCil0QuBwVBwHvvvYc33ngD/f39Kd2sIqGg4xykKFXqjHTy5Em89NJLOHHiRMpnGkIISUSJFHwwxnD69Gk8++yz+PDDDxNuskm9UNBxDlInIGnzeDx4//338fzzz6fk1LWEEJKIEinQUPL5fNi4cSPeeOMNeL1edXLKoqDjPJQ1GowxdHV14fnnn8dbb72VECNZpBn3EBk+SzUwhJBUw3EcQqFQwtUkvPbaa3j66afR09MTNXz3XB1dpaaXyW7JioKOKTp16hTeeOMN9PT0JMSFlzolOZ1O6khKCEkpPM/DarXCbrcnVAfN3t5evPbaazhy5AjC4XBC9QXUG92lpkAURQiCAJPJBJvNlhCZSDqGYDCYEEEQIYRohUWawUOhkO7lsXQsAJCRkYGMjAyYzeaodEJBxwWpq7LKysqwePFi5OTkRO2nB2nWPUEQ0NbWhmAwqN6FEEIMizGGsbExdHR0yGuu6EUURbmJx+FwYPbs2SgoKJDTjdI8Ml0UdEwSx3Ewm81oaGjAypUrdY+qJYwxfPjhh9i9ezetNEsISTmCIODgwYPYu3cvoJg5WusbO8/zMJvN8udeeumlaGxsTJh7RaKgoGOSRFFEVlYWVqxYgerq6oToSMoii9M9/PDD6OzsTIhjIoQQLYXDYZw6dQqPPvooRFFEMBiUm8K1JgUYjDHU19djxYoVyM3NVe+W0ijomILFixdj9erVMJvNCdFpUxRF7NmzB++//z48Ho86mRBCUkI4HMbbb7+NXbt2wWw2g+O4qGUi9MBxHD760Y9i/vz56qSUpv+dM4EpA4vs7GwsXLgQ9fX1UUNVtaSuLuR5Hn/961/R0tKiS1RPCCF64zgOgUAAzc3N+Mtf/gKe5885LFVLjDHMmjULl1xyCVwulzo5ZVHQcR7KwGL27Nn46Ec/CpvNpkvAgQmCjg8++AAffPABBEEYl0YIIalA6pjp8/mwbds2vPPOO+pdNKGcg0Pa0tPTcfnll2Pu3Lnq3VMWBR2TYLVaMW/ePCxZskS+uevVvCK1VYZCITz88MM4c+ZMwk2KQwghWmOMob29HU8//TSCwWBCjOYTRRGLFy/G3LlzdR9dkyj0uXMmEZ7nUVNTg+XLlyM7OxtMx8WFOI5DOByGyWTCG2+8gR07dtCqhYQQEikfg8Eg3n33Xbz11ltRc2Tohed55OTkYMWKFaiqqlInpyQKOs5DWvBtzpw5WL16dVS1mV4sFgsCgQCeffZZtLe3U8BBCCERoiiira0NTz75ZELUdEiWL1+O2tpa9cspiYKO82CMISsrC42NjaioqAB0XlyI4zgwxvDKK69g165d8Pv96l0IISQlMcYQDofh9/uxc+dOvPbaa+pd5P4f0hZvjDG5tnzJkiXIzc2F2WyWR9ikIgo6zoMxhvLycixZsiRhMsjIyAiefPJJdHZ2avKjIYSQZGKz2dDZ2Ylnn30WPp9P7mivxwAA6b5htVqxZs0a1NXVIRwOp3Q/PAo6zsNisWDevHlYvny5bpPNKAmCgG3btuHAgQMYHR1VJxNCSEqT+nF4vV58+OGH2LZtm7xUhN4PaXPnzsXcuXPlQQh6H49eKOg4B47jUFxcjCVLliA7O1se+62nUCiEp59+Gi0tLeokQghJaRzHQRRFudm5vb0dTz31FPx+f0I0Z+Tk5GDJkiUoLy9XJ6UUCjrOo7KyEosXL06YiHTnzp3Yv38/AOg+2x4hhCQSdT8Nn8+Hffv2YdeuXYDO/fEQ+fxly5ahrKxM/ns6W7KioOMcrFYr6urqMGfOHEAxP4aWBEFAOByGKIrwer149NFH0dzcjHA4rPmxEEJIolMGHYwxtLa24umnn0YgEEiIG3VDQwMWLFgAp9OpTkoZFHScQ0lJCZYuXQqXyyVnVp7nNa31MJlM4HkewWAQO3bswIEDB+TFjKT1X4wQ+RJCSDwMDg7iww8/xK5duxLiQc1kMuHSSy9N6Tk7KOg4h+rqaixbtiwq4DCZTJrf3EOhEKxWKzZv3oy2tja517M0FEvr4yGEkGTBGMPJkyfx4osvRgUdTIdJHqUH1sWLF8tNLMrXpeYhdTOR0VDQocJF5sufNWsW6uvr1cmas1gsOHbsGHbt2oWhoSFAtXyykTMnIYRMl8fjwYcffoi2tjZwkc6mepWbJpMJtbW1qKurg8ViiQo41IwahFDQocJxHIqKitDY2AiHw6F5NKzG8zyee+45NDc3y5G6dEzKcedGypSEEBIrwWAQzc3NeOGFFwBFM7leZabZbMYll1yC0tJSIAE6uGqNgg4FjuPA8zzKy8uxYMEC3dsAGWPo6enBBx98gMHBQUBxjHr9YAghJNl0dHRg8+bN6OrqSogyVFp5VppXJJX65VHQocDzPNLT01FTU4O6ujrdhqVKPwaO4/D666+jqakJgiBE1XBQLQchhFyY1IzR3d2Nbdu26VpeSuV2QUEBSktLkZ6ebsgmlPOhoENBEAQ4nU7U19cjJydHnayLrVu3or+/H+FwWM6YUsZNpYxKCCEXIxQKAZHJwl599VX4fD6Ew2F5ZlCtMcZgs9mwcOFCZGdnq5MNT5+znsAKCgqwaNEi3abNZYpe1du2bcPRo0cTarVEQghJRj6fD4cOHcK+fftgsVjUyZpQNqHMmjULxcXFsFqtcjNLKqCgQ4HnedTW1mLp0qWaD4+Vai2kzwwGg3j11Vdx4sQJ3fuWEEJIsmOMoaOjA9u2bdO0bD+XZcuWyZ1JU2kBOAo6FPLy8rBgwQKkp6erk+JO2ZFIEAS43W4cOnQIPp9PvSshhJCL0Nvbi3fffVfumK8np9OJBQsWoKCgQLf+g3qgoEOhrKwMK1askJtVlB18tOg/IUW7JpMJu3fvRkdHB9VyEEJIDLW1tWHHjh1yXw+tSA+WygfMRYsWIS8vL6XK+ZQOOniej2pLy8jIQGVlJRDpZRzvIENNOhbGGF577TU0NzdHjVIhhBBycaRZpbu7u7F9+3bdOpIq1dfXIysrS/2yoel/1hNEeno65s6dK8+Jr+e46ebmZjQ1NWFkZESdRAgh5CKwyMg/t9uN7du3o6+vT72L5srLyzFz5kzY7XZ1kmGldNChXDk2Oztb92nPpVVlt2/fjvb2ds1rWgghxKiUnfUHBgbkJe/1xHEcamtrkZeXp04yrJQOOhCpcrNYLHLQMVENh7odLl6k5p6DBw9iYGBAnUwIIWQapDK8tbUVW7ZsiUrTegSJVPOycOFC5Ofnq5MNK6WDDo7jIAgCQqEQioqKMGfOHPUumuI4Dh0dHdi7dy+Gh4fVyYQQQi6S9ODIGMPIyAhOnz6N/v5+MMYQCoXi/lA5EUEQMGPGDBQUFCREHxMtpMa3PAep+cLhcGDu3LkoKiqS07Sq3VASBEEetUIIISQ2lOW4dHPv7u7G/v37wRiD2WzWfNgqx3Ewm82orq7GrFmzkJaWpt7FkFI66OAiC/8UFhaitrZW95EiJpMJ+/fvp6YVQgiJI57n0dfXhz179kTVgGhNCnRmzpyJ7OxsTR9y9ZLSQYckJycHjY2Nuldv9fX14dChQ3C73eokQgghF2mi+ZaGhoZw8uRJzefrkCgfcisrK1FUVKTb9Oxa0vcuqzOpI09GRgZmzJihTtZcS0tLVC1HKkS9hBCiNcYYfD4fTp06haamJkDn8nbmzJmw2Wwpsc5WSgcdAGCz2TBjxoyEmBXuH//4B1pbW4FItZuePwJCCDG6rq4u7N+/X/2yJpQ163V1daisrATP84Yv91M+6MjMzERdXR0EQdCtT4dU43Ly5MmophU92hgJISRV9PT04PDhwxBFUbfyH5FalpqaGmRmZoIxZuiHzpQPOvLy8tDQ0ACTyaR5nw7luPD+/n60trYiEAiA53ldpmEnhJBU4vV6cfz4cbjdbvA8r2uZW1NTg+zsbMOX/9reZROQy+VCVVWV5sOloFhrBQCOHz+Orq4uObMZNcMRQkgiGRgYwMmTJ9Uva66qqgoZGRkQRRE8z2v+EKwVY36rSbJYLCgpKUF1dTWgamPTihRcnDlzBoODgxRwEEKIhjo6OnTr16EkTRKGyJxNejb3xJP2d9kE4nQ6UVlZKS+2o3UbWjgchiAIYIzh6NGj6Ovro4CDEEI0dPbsWZw8eVL3sjcvLw95eXlIT09XJxlKSgcdGRkZqK2tldvQtI4szWYzzGYzPB4PTpw4gaGhIfUuhBBC4kB6yPR6vThx4gQGBwc1f/BUstvtKCsrg8PhUCcZSkoHHS6XCxUVFUCkaUWP5hUAOHXqFM1CSgghGpJqNjiOw+joKJqbm9W7aIoxhpqaGjgcDl2Dn3jT5y6bADiOg8vlQk1NjTpJc/v27UN3d7f6ZUIIIXHGGJOHzuqJ4zhUVlaioKBAl4ENWknpoMNut8PlcgEAQqGQLtPhMsZw5swZmvqcEEJ04na70dXVpX5ZU6IooqqqCjabDdChj6FWUjbosFqtKC0tRXFxMRDpX6HHvPfhcBjd3d0YGRlRJxFCCIkhaXSgutOo2+3GqVOndJ+VOjs7G1arFeFweNwxGkXKBh12ux35+fkwm81gjOkWVXZ3d8Ptduue2QkhJFWJooienh65mVuPGz5jDBkZGSgsLDR0v46UCjo4jpPbyhwOB4qKiuTX9dLW1oa+vj71y4QQQjQ0ODiItrY2IBIA6PEgaLfbMWPGDEMPm02poAOKAMNut6OwsFDXgAORuf+pPwchhOhrbGxM7tcxURNMvEn3osrKSqSlpWn++VpJuaBDmosjEZazD4fDaGlpweDgoDqJEEKIhgYHB9Ha2opwOAyO4zSfQkFq5i8pKYHT6QTHcVGbUWh7VnXGIqu5chwHp9OJwsJC9S6a4nke3d3dGB0dhdls1jyTE0II+afR0VH09/fLa2LpdaOX+nQYVUre5RhjcLlcKCsrUydpyufzoa+vD36/33DRLCGEJBOv14uenh54vV7wPK95eSw9dBp9VtKUDDq4yMRgaWlp6iRN9ff3Y2Rk5JzDuAghhGgjHA7D7Xajv79fnaQJKcjJzs6Gy+UybM23Mb/VBaSlpaG0tFT9subOnDmD/v5+udmHgg5CCNGP2+1GZ2en/LfygVCr8lla/dyotR0pGXQ4nU7k5+erX9bc4OAgvF4vBR2EEJIAPB5P1IOglqTyn+d5lJaWUtBhJE6nU56jQ08DAwPweDzqlwkhhGiMiyz81tvbC+gwQZiyD0l+fj7sdntUulGkXNDB8zxsNhuysrLUSZobGBjA2NiY+mVCCCE68Hg8OHv27IQd+9V/x5ogCHKgQ80rBsHzPMxmM0wmEzIzM9XJmmKMoauri+boIISQBDE6OoqBgQEgcr/Qcp4MZc1KZmamLmuBaSGlgg7GGMLhMCwWC7KysjSf5pYxhmAwKH+u1+tFIBAAF5mIRouMTQghZDzGGAKBAEZHRxEOh9XJmpDuAdS8YhBS5yCbzYa8vDzNOwpBsf7L2NgYvF6vnMmkKJcCD0II0Uc4HIbH45GnMtCScohsRkYG1XQYCc/zcDqd6pc1IWUkt9sNj8ejWdUdIYSQC/N6vRgdHdW1XDZyzXdKBh161SpIn8sYw+DgIAKBwLh0raNrQggh/zI6Ogqv16t+WVM2m40mBzMCqe+E3W6H1WrV/KIqP29sbAx+vx+gYIMQQhJGKBSiUYVxpO1dNwGYTCY4HA5YrVbNazokHMdhZGQEPp+PAg5CCEkQPM8jGAxieHhYnRR3HMed816g170qHlIu6OB5Hg6HQ/dOOtLIlXNlMkIIIdqRbux+vx+jo6PqZE2ZzWZYLBbwPG+4e0TKBR0mkwlOpxNms1mX6FGq2fD7/QiFQupkQgghOpHKZml5Cq1Jn2mz2eBwOGAymaJeN4KUCzr0ZKSMQwghRiM1ceg1qlB5jzjf5yfzvYSCDkIIISlPusmf72YfT+pAR6/jiDcKOnTAGIPX60UwGFQnEUII0QnHcQiFQvD5fOokzSk7liprNpK5lgMUdOiDMYbh4eGEyNiEEEL+JRE6kmKCmo5kDzYkFHQQQgghCUYddMAggUdKBR0TVVURQgghShPd8LWmdx+TeEmpoAOKIat6LPYGRWehUCik+Sq3hBBCJiaKIgRBgCAIut0fUkHKBR2iKMqBh154nocoipSxCSEkwUhDZvWk5/0p3lIu6ICOzSzKjCxNxU4IISRxWK1W2O129cskRlIy6EgETqdT96nYCSGERLPb7boFHdIwWa0fiLWUkkGH1LShZxWaxWKRp7glhBCiL+X9wGw269r8zRhDOBw2ZACSckEHYwzBYBDhcFidpCmz2UxBByGEJAjp5s5xnG4LrUmBD2MMgUBA18AnXlIu6BBFEX6/X/fZQO12OzWvEEJIgpGaV/R+KAyFQhR0GIHeQYcUPVOfDkIISTwWiwUZGRnqlzXFGDPslAopF3RIbWQmkylq+KxWVWlSR6Hc3Fykp6erkwkhhOjIZrMhLS1N/bJmpOYdPfscxlNKBh1QLaajTos3xhgyMzN1zdiEEELGS09P1/2BUHogNqKUCzoAIBgMwuv16hZJMsZgt9tpng5CCEkgHMchIyMDubm56iTNMMbg8Xh0H+wQLykZdAQCAfh8PvC8Pl+f4zjk5eVRTQchhCQQjuPgcrmQk5OjTtIMBR0GFAwGMTAwoH5ZEywyxa7L5UJ6erputS2EEEKiORwOZGVlwWazAYo+gFo0dShHqgwODuo22CHeUjLoCAQCGBwc1Hw4kjLj8jyPsrIyZGdnR+1DCCFEe9LDYF5eHjBBHz/13/E0ODiIUCikftkQUirokGoVwuEwxsbGNA861AoKCnTvsEQIIeSfQUV6ejpKSkomHGgQb9L9ieM4DA8PU02HEUhNGxzHYWBgQLc+HZLi4mJkZWWpXyaEEKIDKeiAxjUbUM1GOjAwgEAgoN7FEPS96+qAMQa/34/BwUF5LLRyiyf1Z9XU1CA/Px8AYDKZdA+CCCEkleXl5aGiogKYoLyO9/1BCnI4jkN/fz/8fr96F0NIybvc2NgYent71S9rrrCwENnZ2TCbzRRwEEKIjkwmEwoKCuSaDq3LZCmoEUURzc3N8Hg86l0MQduzmgA4jkMgEEBHR4c6SXPZ2dkoLS2F0+nUvCqPEELIv6Snp6O8vFzXqQyk4bI9PT1U02EkoihiaGgIIyMj6iRN2Ww2VFdXIzMzE+FwWPeOrYQQkqry8/NRV1cHqIavaiUcDiMcDqOnpwdjY2OGfRBNuaBDWrJ4eHgYbW1t6mTNzZkzRx6iRQghRBvKfho8z6OkpAQNDQ3gOA6iKGq+NpfJZILFYkF7ezuGh4fVyYaRUkEHF1lIRxRFjI6O4sSJE+pdNDdr1iyUlpaqXyaEEKIRjuNQVFSEyspKeYCBOtBQ/x1rUgDU3t6OsbExdbJhpFTQAcVCOl6vNyFqOoqLizFv3jyaJIwQQjSkrMFwuVyYNWuWXOss1YLEO9BQko7n9OnTFHQYBWMMgiAAAEZGRtDc3KzeRVOMMVgsFixcuBClpaVxH5JFCCHkn5TNK8XFxWhsbITZbJbTtMZxHMLhMFpaWuD1etXJhpFSQYeS1+vFmTNn4Ha75WhWy6gWiiBoyZIlqKys1PzzCSEklUnBRXV1NRYtWqRO1jz4GBwcRE9Pj2FnI0UqBx2iKKKvr09uYmGR2Uq1xPM8TCYTSkpKsGDBAnmoljICJ4QQEh+iKCInJweLFy9GWVlZVJoeZXBnZyeGhoYM/QCaskEHALjdbpw4cULztjs1m82Gyy+/XB6uBZqhlBBC4koq8ysqKnDZZZfBZDJFva6H48ePY2RkRO7MakQpfVcbHR3VtV9HOByWM3hjYyNmzZoFh8MBxlhUGiGEkNizWq2YO3cuFi5cmBDl7enTpzE6OmrYgAOpHnQMDQ3h4MGD8Hg8ulxkZQ1LdnY2PvGJT8hT8ErHIzW1TGYjhBAyeVVVVbjyyiuRn58v1yzrVaaOjo7iwIEDGBwcTIgAKF5SOugIhULo6OhAa2ur5hmMMSZnclEUYTKZsGbNGjQ2NsJms4FpNCENIYSkIqvVioaGBnz0ox/VvPyfSEdHB7q6ugw7/bkkpYMOABgYGMDevXsT4gZfWFiIdevWyR2aEuGHQAghRlRUVISVK1fKc3MwxuSZSNUzkmph79696O3tlR9GtfpcraV80OF2u3HkyJGEuMA8z+Oqq67C/PnzYbFY1MmEEEJipKysDB/5yEfg8XgwOjqKQCCA0dFRjIyMYGRkRK5x0Orh7+DBg3C73bBYLAlxP4oXDoBxv90F8DwPu92OyspKrFq1CmazGeFwWL1bXLBzDNEVBAHvvfcempub5YnMJsvIGZUQQmIpJycH9fX1MJvN4HkePM9HlbmZmZkoLCyM+jcTldmx8s477+D06dNgikksjSjlgw6pRsFsNkMQBE2jzIkysCiKCIVCEARhyisdanXchBBidGazGTabLeq1icrsWPH7/Zo99OoppYMOjuNgMpmiLjSn4ZwdE2VgqQbkYo5jqvsTQggZT1k2S/8/UXkdK1LfkVQow1M66JBwkdVnE6lK62IyeCpkWEIIIcmLgo6Ii6lZiKdEOx5CCCFkulJ+9IokkW7wF1PLQQghhCQ6qukghBBCiCaopoMQQgghmqCggxBCCCGaoKCDEEIIIZqgoIMQQgghmqCggxBCCCGaoKCDEEIIIZqgoIMQQgghmqCggxBCCCGaoKCDEEIIIZqgoIMQQgghmqCggxBCCCGaoKCDEEIIIZr4/9QOdQErZgzcAAAAAElFTkSuQmCC;" parent="1" vertex="1">
                    <mxGeometry x="251.84999999999997" y="1572" width="74.3" height="84.18" as="geometry"/>
                </mxCell>
                <mxCell id="LuvTsgrXkjyb_PGmXndt-178" value="&lt;b&gt;&lt;font style=&quot;font-size: 30px;&quot;&gt;Model Context Protocol (MCP)&lt;/font&gt;&lt;/b&gt;" style="text;html=1;align=center;verticalAlign=middle;resizable=0;points=[];autosize=1;strokeColor=none;fillColor=none;" parent="1" vertex="1">
                    <mxGeometry x="95" y="10" width="460" height="50" as="geometry"/>
                </mxCell>
                <mxCell id="LuvTsgrXkjyb_PGmXndt-179" value="&lt;b&gt;&lt;font style=&quot;font-size: 30px;&quot;&gt;MCP with Anthropic&lt;/font&gt;&lt;/b&gt;" style="text;html=1;align=center;verticalAlign=middle;resizable=0;points=[];autosize=1;strokeColor=none;fillColor=none;" parent="1" vertex="1">
                    <mxGeometry x="100" y="637" width="310" height="50" as="geometry"/>
                </mxCell>
                <mxCell id="LuvTsgrXkjyb_PGmXndt-181" value="&lt;b&gt;&lt;font style=&quot;font-size: 30px;&quot;&gt;MCP with Ollama&lt;/font&gt;&lt;/b&gt;" style="text;html=1;align=center;verticalAlign=middle;resizable=0;points=[];autosize=1;strokeColor=none;fillColor=none;" parent="1" vertex="1">
                    <mxGeometry x="125" y="1283" width="270" height="50" as="geometry"/>
                </mxCell>
                <mxCell id="LuvTsgrXkjyb_PGmXndt-184" value="" style="group" parent="1" vertex="1" connectable="0">
                    <mxGeometry x="390" y="1263" width="90" height="92.5" as="geometry"/>
                </mxCell>
                <mxCell id="LuvTsgrXkjyb_PGmXndt-183" value="" style="rounded=1;whiteSpace=wrap;html=1;fillColor=light-dark(#FFFFFF,#FFFFFF);" parent="LuvTsgrXkjyb_PGmXndt-184" vertex="1">
                    <mxGeometry y="21.764705882352946" width="90" height="48.970588235294116" as="geometry"/>
                </mxCell>
                <mxCell id="LuvTsgrXkjyb_PGmXndt-182" value="" style="shape=image;verticalLabelPosition=bottom;labelBackgroundColor=default;verticalAlign=top;aspect=fixed;imageAspect=0;image=https://images.vexels.com/media/users/3/140692/isolated/svg/72d1f12edf758d24f5b6db73bac4f297.svg;" parent="LuvTsgrXkjyb_PGmXndt-184" vertex="1">
                    <mxGeometry x="2.5000000000000004" width="80.15625" height="80.15625" as="geometry"/>
                </mxCell>
                <mxCell id="LuvTsgrXkjyb_PGmXndt-185" value="" style="shape=image;verticalLabelPosition=bottom;labelBackgroundColor=default;verticalAlign=top;aspect=fixed;imageAspect=0;image=data:image/png,iVBORw0KGgoAAAANSUhEUgAAAKgAAACUCAMAAAAwLZJQAAAA3lBMVEX///8AtPH/wwCRwwD4aCz/wQAAsvH/vwCNwQAAsPAArvCHvgD4Zij4ZSX/vAD4XRH4YRz4WQD4VAD+8/D3/P78/fn91swAqu//8tjI5/r6jmv8xrf+7ej6oof93tX7s56s0Wvb6r/5flPJ4Kb/+On/4aP/3ZP/7cng8vz/3pr4c0D9zsH6lXT8uab5hV3+5uD7qZH6m33y9+eq0Fzo8dXU5rG31oDi7sr4bTac2fh/zvZJv/OTxB//14L/xz7/zlT/6Lmv3/n/1HD3RACbyETH35uXxjRrxfT/xCn/zmLqwpTjAAAJJUlEQVR4nNWc6XaqShCF1YiAiIKKcwaNRqMxgyjO49Wo7/9CFzWhEZECCsy9+8856wQ7n1Xdu6voXicQcKVU6SNTfLwvVJphVYNK4f6x9fCRcjeYb/pofxYqfFJMCDwfPirGCwlRHBTui/8V1lSp+MbzgkZ4JhVXECrF0l9DBgKZx3dRFGImjES8KNy3/pTy47MZTpgF8iKwAl8p/hXlQ7uZTMSsY6kPa7L5J7O19TawFUs9qlB5uDXmgyjytmOpj+r7x21BHwXnlEcJ4cdbcqYKbkHVZdW8Yf4/3OT9V3zi/magLdE9p6p/brb63Wf+oNjgVpyBBCLz4XDi81acGVzmxZutpk9U5vnmzUqUgsMt6VzClzaQ5C/nwwA1RYW2NpKy8RUVaU68lvmOzMkdH0G/kFNUG6jL3DHcxj9Uz8ypx93d3XHrskuOHvDzhySGM5wk5rRmVFA1qOuuY0ips2EY4JnPBIYz1iT75yGgR1RG6TvC7PSeGI5RgKcqOHMiFUn5F/SAKnftGkCnLE8YNRcc8OWw5kRaJ4W5I2I4+RleVlL3WVFjefzEBHi8iCxItBJfkvWgh6h+P1muD6mvnGJ5evwJSAHSnN61gfrnnKewcutNv2sMldTp9nvKhOPOUrCx5kzhMp8gnUiPuwA9sU5kRdk8l/v9brdf7m0U5Un+ViEN34uBpijSnEhBIl9GVJsER3EHupNMHppYc2LNKUxGMg2obTFPACgy88ScujhQyJw+UCYaTpBXUMrVzNuLKGBObZw5NYk5rXGckDm94cypoA3Un+BAn605S8j9U2dOuMxPgCma8cqcJOQUXQOZR5oTrw3UQWYeqpzsvw41k86c+v6aUwmXeTGjjYTMPAcEtIismcn++Y0CZWQA1LOGvoubohzQLpUqXjX0G6Q5AU1WC+X24Rh5LY6boozsrzmRhr6zxoFC5tRETVFdQ4+tnIA3ASnPGnq/zQn1zikWJg09CvOOWQOgyDVPtqWqv5kvNXH7J2nozds6+xG9VUMfeMKteahmxpkTX9EG6iCLe6ihf/fKnPooTrCh/8C9Z06SzD/jpug3kHmkOSXISNffPNgKKFQ5mXVLxwsuCYGPxXj1z4TFjQ2dOUk+b0uGNa+iJZP8+9djsdjKqGoV2/eFQTKZMD/PFUlDX0aCAuakr5xighBrVh4zqYvD11TmszLghYvg6xp6dOaBKXqvgQrJ2JsKefXJUuuzkjTMAv5N+zHyzQMHNPQ/5nS4xfSWKUFvsVMPBeEsrLqGvox8lQO9bTwEVBAr9xnr5whr+10kqCLJPLK4hxr6osiLybeWk+PWVLEp/k4AYk4Sdv8EfmtTeG8Dj5h9vcrp8EzX0Hd8Nqcvuyk3fK6dOMyZJPk01px8O+Utvan7wcDOC3E7AmtmjNoDkZhTANmEQOef5ko38svlUNVymW+krz5WahJzMjmzcRRRh6emKuFwNI5ko6pYVVE2Gs2y49Eyb45LdgecOTGOjvcbKmNQpYsEDYqwbHC8zVt9FmtOUENPIPOjYPQSUU8bjW6vxDWAfufE2DvabywPlBaQP2LZ8fAK6g3MKZ0fByNWoTyfBEFzVGTmYXM6ZNwu5UlRU1RkQCFzWqqLxxHlaQaML9aVxKEiygHmlHdBeVR22zCSKqYHsPYE1sxDt6BqHobGwcrfrtMPNfTpkWtQdVld5n8zcRdUBjKnhnvMAyl7QdpVXExVjlH6QObzURRp1mSr6sqOpirDMN82bvFhMq+KNR20/GQ7qgw3UWztSM7884Jzaz6q1JUvromYxZLj1mV7lYhrczoper1IkTYyYxVX9YdrpWe7pHdvTicZrfQ8rM/y5f2bn0hy8nPfQVWX3qJSHyGZz82rprB9RV5/T45o3PFizuR7LSs9p7c1G2NUPFni+DV693rll0idfrn3fFSvV+533FwpRU7RCMn8lApR+5wLBHsaIRe9NlB1FgqFqPiLaf5h5aCviMLUm1OODh1Ez2ouMOt7GgBtZFGgOnOankBVVGrhKKpS7iUUp0LAU96Z0y6kiZ6/2nbH3Ms+pH5Fego8h1vzkZFW5VfpkE40vcrBrNXcy46mTh+oWz+Kq5yCkaU2Uo0KnYmO71+tfrlUr01nce3bzYDZskRmnkzRlQFUdQB6N1stqpIxspJUrb/MZztKlwNqBcQfWTmNtYGO5nQpio6H5tPaYrGoH6T++Tqdh+Jx2vjcta3iR2nktjTSRqobf/XZhKXpX27tr4ZHfDYnsuZfLEBtaGfNiTWnCOnsdzCMhXw2J13mq3EcKJR5FGeQ1ZkTMvOQOeFAddvSHhdQKPPIyokUJFfMya6ohTVneowC1U3RxYXbO9IOmKLIht47c5oDmUeaU1YbSMJl/n9jTnEg82nPamakOUE1M7ZyIlMUmfkVAIpr6NktqZmR++cCyDyyuCcN/QLFCZsTijMY0bV1OBfdA5nHtnXaQMhtiX4BQD3blnK4NR8HChKkOeneM7/iQGkgoMj9M3izmhlpTrqGHlkzAw09tq3TmROyZvbXnPQNPYoTbOiR5qRr6Oc4UKihx05RbaQ6ihNs69LIUtQzc4IaemxxT8zpLyqnSIRloyexrNVtiIh3NTNgTpendWw0GxxvR8tl/qjlcLQNZrNXJkiUNPRIcwoB+2deD8pGVMSlyQWsdH64HUfMYEnNjFvz9BQyp1/QSJQdD5cWh28Ns9smupoZ2dADBxM/5qROw/Eyff0qmxbYbfAMVTdFfa6ZG8dYBkdLEPL3AyP97RhdQ480J6ihz2cj0XHe6rTVBJVMgKj2r9IcVdxTYOU0HtmNJVH6N6qXh2BuBTX0AWfB1NTYHovtrGcNPVQzu1d+zAa9a+gpaFtCKD1k9Q09MqAL/0APhayuZvb3bSNWZyf0GO19/i/LNGFrZqih90xWh2A2BNXM3uk/a05GIRt6H83JoCkqomDN7KFyOwyqy1sy7vQacutQYEPvsXIzl01T/Gbm9Kv63HH+KXq2upk3EUm1kCNUOj53dt/IS9SZzblK0bu527tm3qAuVuZ3MM4p6X3thqZ0BTX3sqOoa3FVf0Lt9ovqbVf6VeVeVzOapiljHOndflr7g9VjIamaq6u0BHM3n9bqOZeR/BcBrU5qDSDdvQAAAABJRU5ErkJggg==;" parent="1" vertex="1">
                    <mxGeometry x="400" y="644.02" width="40.81" height="35.95" as="geometry"/>
                </mxCell>
            </root>
        </mxGraphModel>
    </diagram>
</mxfile>